<?xml version="1.0" encoding="utf-8"?>
<!-- Generator: Adobe Illustrator 24.0.1, SVG Export Plug-In . SVG Version: 6.00 Build 0)  -->
<svg version="1.1" xmlns="http://www.w3.org/2000/svg" xmlns:xlink="http://www.w3.org/1999/xlink" x="0px" y="0px"
	 viewBox="0 0 100 100" style="enable-background:new 0 0 100 100;" xml:space="preserve">
<style type="text/css">
	.st0{display:none;}
	.st1{display:inline;fill-rule:evenodd;clip-rule:evenodd;fill:#1C1C1C;}
	.st2{display:inline;fill-rule:evenodd;clip-rule:evenodd;fill:#48134C;}
	.st3{display:inline;}
	.st4{fill-rule:evenodd;clip-rule:evenodd;fill:url(#SVGID_1_);}
	.st5{opacity:0.5;fill-rule:evenodd;clip-rule:evenodd;fill:#8368BD;}
	.st6{fill-rule:evenodd;clip-rule:evenodd;fill:#9AFFFF;}
	.st7{display:inline;fill-rule:evenodd;clip-rule:evenodd;fill:#B3B1B5;}
	.st8{display:inline;fill-rule:evenodd;clip-rule:evenodd;fill:#836487;}
	.st9{display:inline;fill-rule:evenodd;clip-rule:evenodd;fill:url(#SVGID_2_);}
	.st10{opacity:0.24;fill:url(#SVGID_3_);}
	.st11{opacity:0.32;fill:url(#SVGID_4_);}
	.st12{opacity:0.32;fill:url(#SVGID_5_);}
	.st13{fill:url(#SVGID_6_);}
	.st14{fill:#FFFFFF;}
	.st15{fill-rule:evenodd;clip-rule:evenodd;fill:url(#SVGID_7_);}
	.st16{fill-rule:evenodd;clip-rule:evenodd;fill:url(#SVGID_8_);}
	.st17{fill-rule:evenodd;clip-rule:evenodd;fill:url(#SVGID_9_);}
	.st18{display:inline;fill:#55C2F0;}
	.st19{fill:#ADFFFF;}
	.st20{fill:url(#SVGID_10_);}
	.st21{fill:#3677C6;}
	.st22{fill:#034D8D;}
	.st23{fill:#A4FAFB;}
	.st24{fill:#1E61AB;}
	.st25{fill:#F2FFFF;}
	.st26{fill:#53ADE2;}
	.st27{fill:#3B7ACE;}
	.st28{fill:#103275;}
	.st29{fill:#3C7AC7;}
	.st30{fill:#286BAF;}
	.st31{fill:#1E8DC4;}
	.st32{fill:url(#SVGID_11_);}
	.st33{fill:url(#SVGID_12_);}
	.st34{fill:url(#SVGID_13_);}
	.st35{fill:url(#SVGID_14_);}
	.st36{fill:url(#SVGID_15_);}
	.st37{fill:url(#SVGID_16_);}
	.st38{fill:url(#SVGID_17_);}
	.st39{fill:#BD0C1D;}
	.st40{fill:url(#SVGID_18_);}
	.st41{opacity:0.44;fill:url(#SVGID_19_);}
	.st42{fill:#FF6543;}
	.st43{fill:url(#SVGID_20_);}
	.st44{fill:url(#SVGID_21_);}
	.st45{fill:url(#SVGID_22_);}
	.st46{fill:url(#SVGID_23_);}
	.st47{opacity:0.8;fill:url(#SVGID_24_);}
	.st48{fill:url(#SVGID_25_);}
	.st49{opacity:0.3;}
	.st50{opacity:0.8;fill:url(#SVGID_26_);}
	.st51{fill:#FFDA00;}
	.st52{display:inline;fill:url(#SVGID_27_);}
	.st53{display:inline;fill:url(#SVGID_28_);}
	.st54{display:inline;fill:url(#SVGID_29_);}
	.st55{display:inline;fill:url(#SVGID_30_);}
	.st56{display:inline;fill:url(#SVGID_31_);}
	.st57{display:inline;fill:url(#SVGID_32_);}
	.st58{display:inline;fill:url(#SVGID_33_);}
	.st59{display:inline;fill:url(#SVGID_34_);}
	.st60{display:inline;fill:url(#SVGID_35_);}
	.st61{display:inline;fill:url(#SVGID_36_);}
	.st62{display:inline;fill:url(#SVGID_37_);}
	.st63{display:inline;fill:url(#SVGID_38_);}
	.st64{display:inline;fill:url(#SVGID_39_);}
	.st65{fill:url(#SVGID_40_);}
	.st66{fill:#1B2832;}
	.st67{fill:#293D4D;}
	.st68{fill:#6AC700;}
	.st69{fill:#E01905;}
	.st70{fill:#10191E;}
	.st71{fill:#EEE9DE;}
	.st72{fill:#41383F;}
	.st73{fill:#161416;}
	.st74{fill:#32405F;}
	.st75{fill:#202B3F;}
	.st76{fill:#BF710A;}
	.st77{fill:#F79F02;}
	.st78{fill:#FFB236;}
	.st79{fill:#BF7600;}
	.st80{display:inline;fill:#D2D49E;}
	.st81{display:inline;fill:#B2906B;}
	.st82{display:inline;fill:url(#SVGID_41_);}
	.st83{display:inline;fill:url(#SVGID_42_);}
	.st84{display:inline;fill:url(#SVGID_43_);}
	.st85{display:inline;fill:url(#SVGID_44_);}
</style>
<g id="Layer_1" class="st0">
	<g>
		<path class="st1" d="M406.3,12l4.7-0.9l2.1,1.4l18.2,37.2l6.8,13.2l10.9,21.1l-1.2-0.2L425.5,44l-1.9-3.4l-3-5.4l-1.4-0.9
			C416.8,28.1,406.3,12,406.3,12z"/>
		<path class="st2" d="M413,12.5c0,0-2.1-0.6-5,1l1.8-2.3l1.2-0.1L413,12.5z"/>
		<g class="st3">
			
				<radialGradient id="SVGID_1_" cx="494.8985" cy="1521.2379" r="4.3084" gradientTransform="matrix(-0.8666 0.4991 -0.7016 -1.218 1901.9889 1610.5499)" gradientUnits="userSpaceOnUse">
				<stop  offset="0" style="stop-color:#00FF91"/>
				<stop  offset="1" style="stop-color:#00C7EF"/>
			</radialGradient>
			<path class="st4" d="M412.8,12.5l0.2-3.1l-1.2-2l-7.6-5.2l-0.9,0.5l1.1,7.3l3.8,4.2C408.3,14.2,411.9,13.5,412.8,12.5z"/>
			<path class="st5" d="M413,9.4l-1.6,1.7l-4.9-1.2l-3.1-7.1l1.1,7.3l3.8,4.2c0,0,3-0.4,4.5-1.7L413,9.4z"/>
			<path class="st5" d="M411.4,11.1l0.1,2.2c0,0,0.5-0.1,1.3-0.8l0.2-3.1L411.4,11.1z"/>
			<polygon class="st5" points="406.5,9.8 404.5,10 403.4,2.7 			"/>
			<polygon class="st6" points="408.2,10.3 405.9,8.5 406,9.9 			"/>
		</g>
		<path class="st7" d="M415.8,18l0.3-1.1c0,0-4.8-5.9-11-6.3l-0.1,1.1l1.9,1.1C406.9,12.9,413.5,14.4,415.8,18z"/>
		<path class="st8" d="M415.8,18l0.1-0.4c0,0-4.7-5-11-5.8l2.3,1.7C407.2,13.5,411.4,13.5,415.8,18z"/>
		<path class="st7" d="M413,10.7l1.1,1.9c0,0,1.7,7.4-0.9,11.2l-0.9-1.6l-0.1-1.1C412,21.2,413.1,15.2,413,10.7z"/>
		<path class="st8" d="M413.1,23.8l-0.9-1.6c0,0,1.6-6.3,0.8-11.5l-0.3,2c0,0,0.1,5.2-0.7,8.2l0.3,1.4L413.1,23.8z"/>
		<path class="st8" d="M417.1,20.8l0.6,0c0,0,0.1,4-3,5.7l-0.1-1.1C414.5,25.4,417.2,24.3,417.1,20.8z"/>
		<path class="st7" d="M417.7,20.7l1.1,2.4c0,0-0.9,3.5-3.6,4.5l-0.5-1.2C414.6,26.5,417.5,25,417.7,20.7z"/>
		
			<radialGradient id="SVGID_2_" cx="497.2859" cy="1463.4586" r="4.5342" gradientTransform="matrix(-0.8666 0.4991 -0.7016 -1.218 1901.9889 1610.5499)" gradientUnits="userSpaceOnUse">
			<stop  offset="0" style="stop-color:#00FF91"/>
			<stop  offset="1" style="stop-color:#00C7EF"/>
		</radialGradient>
		<polygon class="st9" points="448.9,83.9 442.6,71.7 440.3,68.2 441.4,72.5 447.7,83.7 		"/>
		<g class="st3">
			
				<linearGradient id="SVGID_3_" gradientUnits="userSpaceOnUse" x1="-39.0766" y1="-316.8528" x2="-39.0766" y2="-364.0032" gradientTransform="matrix(0.1809 0.9835 0.9835 -0.1809 739.226 -12.5787)">
				<stop  offset="0" style="stop-color:#87FBFF"/>
				<stop  offset="1" style="stop-color:#31EEFF"/>
			</linearGradient>
			<path class="st10" d="M421,13.1c0,0-2.7,3.5-3.5,5.3c-0.7,1.8-8.9,1.5-12.3-0.5s-6.9-5.3-8.2-5.3c-1.3-0.1-3.7,1.2-4.2,2
				c-0.5,0.8,0.6,4.9-0.6,5.8c-1.2,0.9-6.2-1.1-7.6-3.3c-1.5-2.2-0.9-2.6-1.2-4c-0.3-1.4-0.9-1.8-0.6-2.6c0.3-0.8,1.7-2.6,1-3.8
				c-0.7-1.1-4.9,1.5-5.2,2.8c-0.3,1.3-0.1,2.7-0.2,3.1c-0.1,0.4-3.1,1.5-4.4,0.8c0,0,3.2-0.1,4-4.5c0,0,1.3-1.6,4.2-2.8
				c2.9-1.1,3.4-0.9,3.5-0.6c0.1,0.2-1.4,1.6,0,4.5c1.4,2.9,4.2,2.6,5.6,0.8c1.4-1.7,2.5-7.3,4.2-8.9c1.7-1.6,6.1,0.3,7.7-1
				c1.7-1.3,2.3-4.2,6-4.6S422.8,4.8,421,13.1z"/>
			
				<linearGradient id="SVGID_4_" gradientUnits="userSpaceOnUse" x1="67.8008" y1="807.4846" x2="35.633" y2="767.827" gradientTransform="matrix(0.7265 0.6872 0.6872 -0.7265 -178.938 546.5945)">
				<stop  offset="0.176" style="stop-color:#000000"/>
				<stop  offset="0.4302" style="stop-color:#00FFF7"/>
			</linearGradient>
			<path class="st11" d="M419.9,12.8c0,0-2.9,3.6-3,5.1c-0.1,1.5-9.6,1.4-12.2-0.9c-2.6-2.3-6.5-6.3-7.4-6.4c-0.9-0.2-5,1.8-5.6,3.3
				c-0.6,1.5-0.7,4.8-1.4,5.5c-0.7,0.7-5.1-2.3-5.7-3.7c-0.6-1.4-0.2-2.1-0.6-3.1c-0.3-0.9,0.1-3.6,0.1-3.6s-0.1,2.7,1.4,3.8
				c1.5,1.1,4,0.5,5.7-1.6c1.7-2.1,2.8-7.1,4.6-8c1.8-0.9,6.3-0.5,8.1-1.4c1.8-0.8,2.7-3.1,5.2-4c2.4-0.9,8.3,4.5,10.2,9.2
				C421.2,11.6,419.9,12.8,419.9,12.8z"/>
			
				<linearGradient id="SVGID_5_" gradientUnits="userSpaceOnUse" x1="37.7254" y1="763.5677" x2="34.2685" y2="776.819" gradientTransform="matrix(0.7265 0.6872 0.6872 -0.7265 -178.938 546.5945)">
				<stop  offset="0.176" style="stop-color:#000000"/>
				<stop  offset="0.4302" style="stop-color:#B300FF"/>
			</linearGradient>
			<path class="st12" d="M377.8,9.1c0,0,0.4,2.2,0,3.3c-0.4,1.1-3,1.5-4,0.9c0,0,1.8-0.9,2.7-2C377.5,10.3,377.8,9.1,377.8,9.1z"/>
			
				<radialGradient id="SVGID_6_" cx="-44.5553" cy="-335.8976" r="19.3498" gradientTransform="matrix(0.1781 0.9691 0.9691 -0.1781 740.2031 -8.6839)" gradientUnits="userSpaceOnUse">
				<stop  offset="0" style="stop-color:#73DAFF"/>
				<stop  offset="8.675015e-02" style="stop-color:#61B8D8"/>
				<stop  offset="0.225" style="stop-color:#48889F"/>
				<stop  offset="0.3639" style="stop-color:#325E6F"/>
				<stop  offset="0.5003" style="stop-color:#203C47"/>
				<stop  offset="0.6338" style="stop-color:#122228"/>
				<stop  offset="0.7634" style="stop-color:#080F12"/>
				<stop  offset="0.8875" style="stop-color:#020405"/>
				<stop  offset="1" style="stop-color:#000000"/>
			</radialGradient>
			<circle class="st13" cx="406.8" cy="8" r="19.1"/>
			<g>
				<path class="st14" d="M395.8,8.3c0.4-0.3,1.3,0.1,1,0.7C396.5,9.7,395.9,8.7,395.8,8.3L395.8,8.3z"/>
				<path class="st14" d="M397.5,7.5c0.1,0,0.3,0,0.4,0c0.1,0.2,0.1,0.3,0,0.4c-0.2-0.1-0.2-0.2-0.3-0.3L397.5,7.5z"/>
				<path class="st14" d="M402.1,11.7c0.8-0.6,1.5-0.1,1.5,0.9c-0.8,0.4-2.1,0.4-1.7-0.9L402.1,11.7z"/>
				<path class="st14" d="M401.9,16.3c0.1,0,0.2,0,0.3,0c0.1,0.1,0.1,0.3,0,0.5c-0.3,0.1-0.5,0-0.7-0.2c0.1-0.1,0.2-0.1,0.3-0.2
					L401.9,16.3z"/>
				<path class="st14" d="M408.1-0.7c0.1,0,0.2,0,0.3,0c0.1,0.1,0.1,0.3,0,0.5c-0.3,0.1-0.5,0-0.7-0.2c0.1-0.1,0.2-0.1,0.3-0.2
					L408.1-0.7z"/>
				<path class="st14" d="M393.8,10.2C393.8,10.2,393.8,10.2,393.8,10.2c0.2,0,0.5-0.3,0.7-0.1c0.1,0.1,0.1,0.2,0.2,0.3
					c0.1,0.1,0.1,0.2,0,0.3c-0.1,0.1-0.2,0.1-0.3,0.1c-0.1,0-0.1,0.1-0.3,0C393.8,10.7,393.7,10.4,393.8,10.2
					C393.8,10.2,393.8,10.2,393.8,10.2L393.8,10.2z"/>
				<path class="st14" d="M395.3,13.9c-0.1,0-0.3,0.2-0.3,0.3c0,0.2,0.3,0.2,0.5,0.2c0.2,0,0.3-0.2,0.1-0.3c-0.1,0-0.1-0.1-0.2-0.1
					C395.3,13.9,395.4,13.9,395.3,13.9c0,0-0.1,0-0.1,0L395.3,13.9z"/>
				<path class="st14" d="M398,5.4C398,5.4,398,5.4,398,5.4c-0.1-0.1,0.1-0.2,0.2-0.1c0.1,0,0.1,0.1,0.1,0.2c0,0,0.1,0.1,0.1,0.1
					c0.1,0.2,0.2,0.4,0.2,0.6c0.1,0.5-0.6,0.5-0.9,0.4c-0.2,0-0.4,0-0.5-0.2c-0.1-0.2-0.1-0.4,0-0.6c0.1-0.2,0.3-0.2,0.4-0.3
					c0.1,0,0.1-0.1,0.3-0.1c0.1,0,0.2,0,0.4-0.1L398,5.4z"/>
				<path class="st14" d="M389.8,6.6c-0.2,0-0.3-0.1-0.4,0.1c0,0-0.1,0.1-0.1,0.2c0,0,0,0.2,0,0.2c0,0.1,0.2,0.2,0.3,0.2
					c0,0,0.2,0,0.2,0c0.1,0,0.1-0.1,0.2-0.1c0-0.1,0-0.2,0-0.3C389.9,6.8,389.8,6.8,389.8,6.6L389.8,6.6z"/>
				<path class="st14" d="M408,21.3c-0.6,0.1,0.2,0.9,0.4,0.5c0.1-0.2,0-0.4-0.2-0.5c-0.1-0.1-0.3-0.3-0.5-0.2L408,21.3z"/>
				<path class="st14" d="M403.5,21.6c0.2-0.1,0.3-0.2,0.4,0c0.1,0.1,0.2,0.3,0.1,0.4c-0.1,0.1-0.3,0.1-0.4,0
					c-0.2-0.1-0.3-0.2-0.2-0.4c0,0,0,0,0,0L403.5,21.6z"/>
				<path class="st14" d="M402.3,13.4c0.1-0.1,0.2-0.1,0.3-0.1c0,0,0.1,0,0.1,0.1c0,0,0,0.1,0,0.1c0,0.1,0,0.1-0.1,0.1
					c0,0-0.1,0-0.1,0C402.4,13.5,402.3,13.5,402.3,13.4L402.3,13.4z"/>
				<path class="st14" d="M402.5,17.4C402.5,17.4,402.5,17.4,402.5,17.4c0,0-0.1,0.1,0,0.2c0,0,0.1,0,0.1,0c0,0,0.1,0,0.1,0
					c0.1,0,0.2-0.1,0.1-0.2C402.9,17.4,402.7,17.3,402.5,17.4L402.5,17.4z"/>
				<path class="st14" d="M408.3-5.6C408.3-5.6,408.3-5.6,408.3-5.6c0,0-0.1,0.1,0,0.2c0,0,0.1,0,0.1,0c0,0,0.1,0,0.1,0
					c0.1,0,0.2-0.1,0.1-0.2C408.6-5.6,408.5-5.7,408.3-5.6L408.3-5.6z"/>
				<path class="st14" d="M404.2-2c0.1-0.2,0.3-0.3,0.5-0.3c0.1,0,0.3,0.1,0.4,0.2c0.1,0,0.2,0.1,0.2,0.2c0.1,0,0.1,0.1,0.2,0.1
					c0.1,0,0.1,0.1,0.1,0.1c0,0,0.1,0,0.1,0.1c0,0,0,0.1,0,0.1c-0.1,0.2-0.1,0.3-0.2,0.5c-0.1,0.1-0.1,0.3-0.2,0.3
					c-0.2,0.1-0.4,0-0.6-0.1c-0.1,0-0.3,0-0.4-0.1c-0.1-0.1-0.1-0.1-0.1-0.2c0-0.1,0-0.1,0-0.1c0-0.1,0-0.1,0-0.2c0-0.1,0-0.2,0-0.3
					C404.2-1.7,404.2-1.8,404.2-2z"/>
				<path class="st14" d="M405.4-3.1c0.1,0,0.2,0,0.2,0c0.1,0.1,0,0.2-0.1,0.2c0,0-0.1,0-0.1,0c0,0,0,0,0,0
					C405.4-3,405.3-3,405.4-3.1L405.4-3.1z"/>
				<path class="st14" d="M409.1,0.8C409.1,0.8,409.1,0.8,409.1,0.8c-0.1-0.1-0.1-0.1-0.1-0.1c-0.1,0-0.1,0.1-0.1,0.2
					c0.1,0.1,0.2,0.3,0.3,0.3c0.1,0,0.1,0,0.2-0.1c0-0.1,0.1-0.1,0-0.2c0-0.1-0.1-0.1-0.1-0.1c0,0-0.1,0-0.1,0
					C409.2,0.8,409.2,0.8,409.1,0.8C409.1,0.8,409.1,0.8,409.1,0.8L409.1,0.8z"/>
				<path class="st14" d="M407.2,11.9C407.2,11.9,407.2,11.9,407.2,11.9c-0.1,0,0,0.1,0,0.2c0.1,0,0.2,0.1,0.2,0
					c0.1-0.1,0-0.2-0.1-0.2C407.4,11.9,407.3,11.9,407.2,11.9L407.2,11.9z"/>
				<path class="st14" d="M406.5,19.7c0-0.1,0.2-0.2,0.3-0.2c0,0,0.1,0.1,0.1,0.2c0,0.1,0.1,0.1,0.1,0.1c0,0-0.2,0.1-0.2,0.1
					c-0.1,0-0.1,0-0.2,0C406.5,19.8,406.5,19.8,406.5,19.7C406.4,19.7,406.4,19.7,406.5,19.7C406.4,19.6,406.4,19.6,406.5,19.7
					L406.5,19.7z"/>
				<path class="st14" d="M408.9,17.3c0,0,0.1-0.1,0.1-0.1c0.1,0,0.1-0.1,0.2-0.1c0.1-0.1,0.2-0.2,0.3-0.1c0.1,0.1,0.1,0.3,0.2,0.4
					c0.1,0.1,0.2,0.3,0.1,0.4c-0.1,0.1-0.2,0.2-0.3,0.2c-0.1,0.1-0.2,0.1-0.3,0.2c0,0-0.1,0-0.2,0.1c0,0,0,0-0.1,0c0,0-0.1,0-0.1,0
					c0,0-0.1-0.1-0.1-0.1c0,0,0-0.1,0-0.1c0,0,0-0.1,0-0.1c0,0,0-0.1,0-0.1c0,0,0-0.1,0-0.1c0-0.1,0-0.1,0-0.2c0-0.1,0-0.1,0.1-0.2
					C408.7,17.3,408.8,17.2,408.9,17.3L408.9,17.3z"/>
				<path class="st14" d="M409.6,18.2C409.6,18.2,409.6,18.2,409.6,18.2c-0.1,0-0.1,0.1-0.1,0.1c0,0,0,0.1,0.1,0.1c0,0,0.1,0,0.1,0
					c0.1,0,0.2,0.1,0.3,0c0-0.1-0.1-0.1-0.1-0.2C409.7,18.2,409.7,18.1,409.6,18.2L409.6,18.2z"/>
				<path class="st14" d="M411.7,20.6c0.1,0,0.1-0.1,0.2-0.1c0.1,0,0.1-0.1,0.2-0.1c0.1-0.1,0.2,0,0.3,0.1c0.1,0.1,0.1,0.2,0.2,0.3
					c0,0,0.1,0.1,0.1,0.1c0,0.1,0,0.1-0.1,0.1c-0.1,0.1-0.2,0.2-0.3,0.2c-0.1,0-0.1,0.1-0.2,0.1c0,0-0.1,0-0.2,0
					c-0.1-0.1-0.2-0.2-0.2-0.3c0-0.1-0.1-0.3-0.1-0.4c0,0,0,0,0,0L411.7,20.6z"/>
				<path class="st14" d="M413,20.3c0-0.1-0.1,0-0.1,0c0,0.1,0,0.1,0,0.2c0,0.1,0.1,0.2,0.2,0.3c0.1,0,0.1,0,0.1,0
					c0,0,0.1-0.1,0.1-0.2C413.3,20.5,413.2,20.2,413,20.3L413,20.3z"/>
				<path class="st14" d="M393.9,15.4c-0.1,0-0.1-0.1-0.2,0c-0.1,0-0.1,0.1-0.1,0.2c0,0.1,0.2,0.2,0.3,0.3c0.1,0,0.1,0,0.2,0
					c0,0,0.1-0.1,0.1-0.1C394.2,15.6,394.1,15.3,393.9,15.4C393.9,15.3,393.9,15.3,393.9,15.4L393.9,15.4z"/>
				<path class="st14" d="M397.5,9.9c0-0.1,0-0.1,0-0.2c0.1,0,0.2,0.1,0.3,0.2c0.1,0.1,0,0.3-0.1,0.4c0,0.1-0.1,0.1-0.1,0.1
					c0,0-0.1-0.1-0.1-0.2c-0.1-0.1-0.1-0.3,0-0.5L397.5,9.9z"/>
				<path class="st14" d="M390.1,10.6c0-0.1-0.2-0.1-0.2,0c-0.1,0-0.3-0.1-0.3,0c0,0.1,0.1,0.2,0.1,0.2c0,0,0,0.1,0.1,0.1
					c0,0,0.1,0.1,0.1,0.1c0.2,0.2,0.3,0.2,0.4,0c0-0.1,0.1-0.2,0-0.3C390.2,10.6,390.2,10.5,390.1,10.6L390.1,10.6z"/>
				<path class="st14" d="M388.8,10.4C388.8,10.4,388.8,10.4,388.8,10.4c0.1-0.1,0.2,0.1,0.1,0.2c-0.1,0.1-0.1,0.1-0.2,0
					C388.7,10.5,388.7,10.5,388.8,10.4L388.8,10.4z"/>
				<path class="st14" d="M382.4,8.3C382.4,8.2,382.3,8.2,382.4,8.3c0-0.1,0.2,0,0.3,0c0.1,0,0.2,0.1,0.2,0.3c0,0.1-0.1,0.2-0.1,0.3
					c0,0.1-0.1,0.2-0.2,0.1C382.3,9,382,8.8,382,8.6C381.9,8.4,382.1,8.2,382.4,8.3L382.4,8.3z"/>
				<path class="st14" d="M382.5,7.4C382.5,7.4,382.5,7.4,382.5,7.4c-0.1-0.1-0.2,0-0.3,0.1c0,0.1,0.1,0.2,0.2,0.2
					c0.1,0,0.2,0.1,0.3,0C382.6,7.7,382.6,7.5,382.5,7.4C382.5,7.4,382.5,7.4,382.5,7.4C382.5,7.4,382.5,7.4,382.5,7.4L382.5,7.4z"
					/>
				<path class="st14" d="M404.3-3.6c-0.1,0-0.2,0.3-0.2,0.4c0,0.1,0.2,0.2,0.3,0.2C404.7-3,404.8-3.6,404.3-3.6L404.3-3.6z"/>
				<path class="st14" d="M403.5-1c0.2,0,0.1,0.4-0.1,0.3c0,0-0.1-0.1-0.1-0.2C403.2-0.9,403.3-1,403.5-1L403.5-1z"/>
				<path class="st14" d="M410.2-1.1c0-0.1-0.2-0.1-0.2,0c0,0.1,0,0.2,0,0.2c0,0.1,0,0.2,0.1,0.3c0.1,0.1,0.1,0,0.2,0
					c0.2,0,0.3-0.1,0.3-0.2C410.6-1,410.4-1.1,410.2-1.1L410.2-1.1z"/>
				<path class="st14" d="M410.5,16.8c-0.2,0-0.3,0.5-0.3,0.6c0,0.1,0,0.2,0,0.3c0,0.1,0.1,0.1,0.2,0.2c0.2,0.1,0.5,0.1,0.7,0.2
					c0.1,0,0.2,0.1,0.3,0c0,0,0.1-0.1,0.1-0.1c0,0,0.1-0.1,0.1-0.1c0.1-0.1,0.1-0.2,0.2-0.4c0-0.1,0.1-0.2,0.1-0.3
					c0-0.2-0.3-0.4-0.4-0.5c-0.2-0.1-0.3-0.2-0.5-0.2c-0.1,0-0.2-0.1-0.3,0C410.6,16.7,410.5,16.8,410.5,16.8
					C410.5,16.8,410.5,16.8,410.5,16.8L410.5,16.8z"/>
				<path class="st14" d="M407.6,17.6C407.6,17.6,407.6,17.6,407.6,17.6c0-0.2,0.1-0.1,0.2,0c0,0.1,0.1,0.3,0.1,0.3
					c0,0.1-0.2,0-0.3,0C407.5,17.8,407.5,17.7,407.6,17.6L407.6,17.6z"/>
				<path class="st14" d="M406,21.4c0.1,0,0.2-0.1,0.3-0.1c0,0.1,0.1,0.3,0,0.3c0,0.1-0.2,0.2-0.3,0.2c-0.1,0-0.3,0.1-0.4,0.1
					c-0.2,0-0.3-0.4-0.3-0.5c0-0.1,0-0.1,0-0.2c0-0.1,0-0.1,0-0.1c0-0.1,0-0.1,0-0.1c0-0.1,0.1-0.1,0.1-0.1c0.2,0,0.4,0.1,0.6,0.1
					c0.1,0,0.1,0,0.1,0c0,0,0.1,0.1,0.1,0.1c0.1,0.1,0.1,0.2,0,0.3L406,21.4z"/>
				<path class="st14" d="M404.7,20.8C404.7,20.7,404.7,20.7,404.7,20.8c-0.3,0.1,0.2,0.2,0.2,0.1c0-0.1,0-0.3-0.1-0.3
					C404.8,20.5,404.7,20.6,404.7,20.8L404.7,20.8z"/>
				<path class="st14" d="M396.9,8.9c0.2,0,0.4-0.2,0.5,0c0,0.1,0,0.1,0,0.2c0,0,0.1,0.1,0.1,0.1c0.1,0.1,0,0.2,0,0.3
					c-0.1,0-0.3,0.1-0.4,0.1c-0.1,0-0.1,0-0.2,0c-0.1,0-0.1,0-0.2-0.1c-0.1-0.1-0.1-0.3-0.1-0.4C396.6,9.1,396.7,8.9,396.9,8.9
					L396.9,8.9z"/>
				<path class="st14" d="M395,9.2C395,9.2,395,9.2,395,9.2c0.2-0.1,0.2,0,0.2,0.1c0,0.1,0,0.3-0.1,0.3C394.9,9.5,394.7,9.3,395,9.2
					L395,9.2z"/>
				<path class="st14" d="M390,9.1C390,9.1,390,9.1,390,9.1c0.2-0.1,0.2,0,0.2,0.1c0,0.1,0,0.3-0.1,0.3C389.9,9.5,389.7,9.2,390,9.1
					L390,9.1z"/>
				<path class="st14" d="M386.1,9.7c-0.1,0-0.2,0.1-0.2,0c0.1,0,0.2-0.1,0.3,0c0.1,0.1,0,0.2,0,0.3c0,0.1,0.1,0.1,0,0.2
					c-0.1,0.1-0.1,0.1-0.2,0c-0.1,0-0.4,0-0.4-0.2C385.7,10,385.9,9.7,386.1,9.7L386.1,9.7z"/>
				<path class="st14" d="M386.6,10.5c-0.1,0-0.2,0-0.3,0.1c0,0.1,0,0.2,0.1,0.2c0.1,0,0.2,0.1,0.3,0
					C386.7,10.7,386.6,10.5,386.6,10.5L386.6,10.5z"/>
			</g>
			<g>
				
					<linearGradient id="SVGID_7_" gradientUnits="userSpaceOnUse" x1="2290.064" y1="3195.522" x2="2335.6079" y2="3195.522" gradientTransform="matrix(-0.9997 2.491545e-02 -2.491545e-02 -0.9997 2765.1482 3163.0876)">
					<stop  offset="0" style="stop-color:#006C80"/>
					<stop  offset="6.791735e-02" style="stop-color:#006477"/>
					<stop  offset="0.7085" style="stop-color:#001C22"/>
					<stop  offset="1" style="stop-color:#000000"/>
				</linearGradient>
				<path class="st15" d="M350.7,31.1c0,0,3.9-2.2,13.5-0.2c9.6,2.1,11.5,7,24.5,4.4c12.9-2.6,6.2-9.6,2-11.8
					c-4.2-2.2-10.4-1.2-14.9-2.9c-4.5-1.6,0.4-2.4,0.9-3.1c0.5-0.7-1-1.7-1-1.7s1.5,1.2-0.2,1.8c-1.7,0.6-8.4,0.1-10.5,2.7
					c-2.1,2.6,1.5,4.2,21.5,7.4c20,3.3,0.9,9.4-6.8,7.1c-6.8-2-11.3-8.9-17.3-10C356.5,23.7,350.7,31.1,350.7,31.1z"/>
				
					<linearGradient id="SVGID_8_" gradientUnits="userSpaceOnUse" x1="2306.613" y1="3205.6506" x2="2317.3582" y2="3182.6079" gradientTransform="matrix(-0.9997 2.491545e-02 -2.491545e-02 -0.9997 2765.1482 3163.0876)">
					<stop  offset="0" style="stop-color:#006C80"/>
					<stop  offset="6.791735e-02" style="stop-color:#006477"/>
					<stop  offset="0.7085" style="stop-color:#001C22"/>
					<stop  offset="1" style="stop-color:#000000"/>
				</linearGradient>
				<path class="st16" d="M350.7,31.1c0,0,3.7-2.5,13.3-1.8c9.5,0.6,12.9,6.8,22,6.1s9.7-4.4,7.3-7.2c-2.3-2.7-19.6-2.9-22.3-5.5
					c-2.7-2.7,6.2-4.2,5.7-6.2c-0.5-2-3.6-3.4-3.6-3.4s3.2,2.5,2.3,4c-0.9,1.5-7.8,3-9.2,5.8c-1.5,2.8,21.2,3.6,25.6,7.1
					c4.4,3.5-2.2,9.3-11.4,7.6c-9.2-1.6-12-9.9-20.1-10.2C352.1,27.2,350.7,31.1,350.7,31.1z"/>
				
					<radialGradient id="SVGID_9_" cx="596.4226" cy="1287.2302" r="1.3656" gradientTransform="matrix(-14.9761 -2.8697 0.5355 -2.7944 8624.8037 5334.5352)" gradientUnits="userSpaceOnUse">
					<stop  offset="0" style="stop-color:#00FFF2"/>
					<stop  offset="2.062041e-02" style="stop-color:#00EFE3"/>
					<stop  offset="9.293759e-02" style="stop-color:#00BEB4"/>
					<stop  offset="0.1708" style="stop-color:#009189"/>
					<stop  offset="0.2524" style="stop-color:#006A64"/>
					<stop  offset="0.3387" style="stop-color:#004945"/>
					<stop  offset="0.431" style="stop-color:#002E2C"/>
					<stop  offset="0.5316" style="stop-color:#001A18"/>
					<stop  offset="0.6446" style="stop-color:#000B0B"/>
					<stop  offset="0.7804" style="stop-color:#000302"/>
					<stop  offset="1" style="stop-color:#000000"/>
				</radialGradient>
				<path class="st17" d="M361.6,22c0.4-2.1,9.9-2.1,21.2,0.1s20.1,5.6,19.7,7.7c-0.4,2.1-9.9,2.1-21.2-0.1
					C370,27.6,361.1,24.1,361.6,22z"/>
			</g>
		</g>
	</g>
	<g>
		<polygon class="st18" points="793.8,31.3 798,39.7 803.5,35.9 810.2,36.5 800.8,43.5 804.7,49 807.4,48.3 818.2,37.5 821.6,38.2 
			811.1,48.2 825.5,45.5 823.7,49.8 809.9,51.8 806.9,55.1 808.7,60.6 820.5,55.9 816.6,62.9 809.6,65 814.1,73.7 822.2,73.7 
			821.1,65.7 824.2,59.7 825.5,72.8 830.8,72.4 832.1,67.5 827.9,51.9 829.7,49.1 833.2,62.6 836.5,50.3 838.4,53.4 834.9,68.5 
			835.3,72.4 840.5,73.7 841.7,61.2 844.7,66.9 843.6,74.3 850.8,74.9 854.3,67.7 848.4,64.7 845.5,58.7 854.6,64 855.8,59 854,56 
			842.1,51.5 840.9,47.6 850.5,51.5 843.6,41.3 848.3,42.9 854.8,52.8 858.2,54.2 861.1,50.6 853.8,42.3 858.5,43.4 862.5,48.1 
			865.5,41.7 862.1,34.5 858.1,38 853.1,37.4 859.9,31.6 857.2,27.2 854,27.9 847.2,36.3 843.3,36.1 850,28.2 839.9,28.9 
			841.6,25.7 852.1,24.7 854.9,22.2 853.8,17.2 844.7,20 847.6,15.3 852.8,14.1 849.5,6.5 842.8,4.8 843.6,11.8 840.8,12.8 
			839.5,4.8 835.2,4.8 834.3,8.5 838.5,22.6 836.1,25.7 833.2,13 829.6,25.3 827.4,20.6 831,8.6 830.6,3.7 825.4,1.7 824.8,12.7 
			821.8,6.6 822.3,-0.2 815,-2.1 810.8,4.2 817.1,8.1 820.1,14.5 809.7,7.9 808,12.8 810.5,16.4 823.7,22.1 822.4,25.4 814.6,21.8 
			822,32.5 817.9,32.1 808.5,19.7 803.1,16.9 800.7,21.2 811.9,31.2 804.1,30.3 798.7,24.2 		"/>
		<g class="st3">
			<polygon class="st19" points="834.2,21.5 833.2,21.5 830.3,30.3 822.5,27.5 821.6,27.7 827.1,35.3 821.6,42.4 822.5,42.4 
				828.4,35.1 831.6,30.9 			"/>
			<linearGradient id="SVGID_10_" gradientUnits="userSpaceOnUse" x1="825.046" y1="31.8797" x2="845.7844" y2="42.8019">
				<stop  offset="0" style="stop-color:#8FDDF4"/>
				<stop  offset="0.1606" style="stop-color:#85CDEF"/>
				<stop  offset="0.4053" style="stop-color:#7ABCEA"/>
				<stop  offset="0.6721" style="stop-color:#74B2E7"/>
				<stop  offset="1" style="stop-color:#72AFE6"/>
			</linearGradient>
			<polygon class="st20" points="822.5,42.4 831.7,41.8 834.2,51.9 837.5,42.5 845.9,45.3 839.9,37.2 845.1,30.8 837.7,31.2 
				834.2,21.5 831.4,30.7 822.5,27.5 828.4,35.1 			"/>
			<polygon class="st21" points="830.9,41.9 833.6,51.9 834.2,51.9 831.7,41.8 			"/>
			<polygon class="st22" points="837.3,43 845.3,45.6 845.9,45.3 837.5,42.5 			"/>
			<polygon class="st21" points="831,42.1 822.6,42.4 821.6,42.4 830.9,41.9 			"/>
		</g>
		<g class="st3">
			<polygon class="st23" points="793.8,31.3 790.8,32.6 795.1,41.4 798,39.7 			"/>
			<polygon class="st24" points="806.1,30.5 798,22.6 800.7,21.2 811.9,31.2 			"/>
			<polygon class="st23" points="806.9,55.1 804.5,55.3 805.4,61.3 808.7,60.6 			"/>
			<polygon class="st23" points="809.6,65 806.9,65.7 811,73.8 814.1,73.7 			"/>
			<polygon class="st23" points="800.8,43.5 797.7,45.1 801.2,49.7 804.7,49 			"/>
			<polygon class="st23" points="816.8,57.4 814.3,62.7 806.9,65.7 809.6,65 816.6,62.9 820.5,55.9 			"/>
			<polygon class="st23" points="825.5,45.5 823.7,49.8 820.8,50.3 823.1,46 			"/>
			<polygon class="st23" points="833.2,13 829.9,14.5 827.8,21.5 829.6,25.3 			"/>
			<polygon class="st23" points="842.8,4.8 839.7,6 840.8,12.8 843.6,11.8 			"/>
			<polygon class="st23" points="822.5,8 823,3.4 825.4,1.7 824.8,12.7 			"/>
			<polygon class="st23" points="810.8,4.2 808.2,6.5 814.3,10.5 817.1,8.1 			"/>
			<polygon class="st23" points="808,12.8 810.5,16.4 807.6,18 805.3,14.2 			"/>
			<polygon class="st25" points="790.8,32.6 796.4,24.8 798.7,24.2 793.8,31.3 			"/>
			<polygon class="st25" points="798,22.6 801.3,17.6 803.1,16.9 800.7,21.2 			"/>
			<polygon class="st25" points="805.3,14.2 806.9,9.7 809.7,7.9 808,12.8 			"/>
			<polygon class="st25" points="808.2,6.5 810.8,4.2 815,-2.1 811.6,0.4 			"/>
			<polygon class="st25" points="804.5,55.3 807.9,52.2 809.9,51.8 806.9,55.1 			"/>
			<polygon class="st26" points="807.6,18 822.9,24.2 824,22.1 810.5,16.4 			"/>
			<polygon class="st26" points="814.6,21.8 811.4,23.4 817.9,32.1 822,32.5 			"/>
			<polygon class="st26" points="814.3,10.5 815.3,11.5 819.9,14.2 817.1,8.1 			"/>
			<polygon class="st27" points="834.3,8.5 838.5,22.6 836.1,25.7 833.2,13 832.4,13.3 831.8,9.9 			"/>
			<polygon class="st27" points="824.2,59.7 825.5,72.8 822.5,73.3 821.8,64.4 			"/>
			<polygon class="st27" points="833.2,62.6 831.1,63.4 827.9,51.9 829.7,49.1 			"/>
			<polygon class="st27" points="838.4,53.4 834.9,68.5 835.3,72.4 832.3,72.6 832.1,67.5 833.2,62.6 836.5,50.3 			"/>
			<polygon class="st27" points="844.7,66.9 841.2,66.9 840.5,74.2 843.6,74.3 			"/>
			<polygon class="st27" points="843.6,41.3 848.3,42.9 854.8,52.8 851.8,53.7 850.5,51.4 			"/>
			<polygon class="st25" points="835.2,4.8 832.8,5.4 831.8,9.9 834.3,8.5 			"/>
			<polygon class="st28" points="835.6,53.6 838.4,53.4 836.5,50.3 			"/>
			<polygon class="st28" points="850.5,51.5 844.2,52.3 842.1,51.5 840.9,47.6 			"/>
			<polygon class="st28" points="854.6,64 850.5,64.1 847.1,61.9 845.5,58.7 			"/>
			<polygon class="st28" points="844.7,66.9 841.1,67.5 841.7,61.2 			"/>
			<polygon class="st28" points="854.8,52.8 858.2,54.2 853.9,55.4 851.4,53.4 			"/>
			<polygon class="st29" points="844.6,36.1 851.1,28.6 854.2,27.8 847.2,36.3 			"/>
			<polygon class="st29" points="862.1,34.5 859.2,35 856,37.7 858.1,38 			"/>
			<polygon class="st29" points="858.5,43.4 862.5,48.1 859.4,48.6 853.8,42.3 			"/>
			<polygon class="st30" points="830,32.9 831.7,36.2 829.9,39.5 833.7,39.8 834.9,42.8 836.4,40 839.4,40.1 837.5,36.8 839.5,33.8 
				836.3,33.5 835,30.5 833.4,33.2 			"/>
			<polygon class="st31" points="831.3,35.4 834.3,36.1 832.8,38.4 834.3,39.9 833.9,41 834.9,42.8 836.4,40 839.5,40.1 837.5,36.7 
				839.5,33.8 836.3,33.5 835,30.5 833.4,33.2 830.1,32.9 			"/>
			<polygon class="st24" points="831.3,35.4 839.5,33.8 834.3,36.1 			"/>
			<polygon class="st24" points="832.8,38.4 837.5,36.7 839.5,40.1 834.3,39.9 			"/>
			<polyline class="st23" points="815.4,66.7 813.9,66.9 815.6,70.3 820.5,70.3 815.4,66.7 			"/>
			<linearGradient id="SVGID_11_" gradientUnits="userSpaceOnUse" x1="798.2356" y1="31.6281" x2="804.7198" y2="31.6281">
				<stop  offset="0" style="stop-color:#8FDDF4"/>
				<stop  offset="0.1606" style="stop-color:#85CDEF"/>
				<stop  offset="0.4053" style="stop-color:#7ABCEA"/>
				<stop  offset="0.6721" style="stop-color:#74B2E7"/>
				<stop  offset="1" style="stop-color:#72AFE6"/>
			</linearGradient>
			<polygon class="st32" points="800.5,27.7 804.7,32 799.7,35.6 798.2,31.2 			"/>
			<polygon class="st23" points="799.7,35.6 798.2,35.8 796.9,31.6 798.2,31.2 			"/>
			<polygon class="st25" points="800.5,27.7 799.7,27.9 796.9,31.6 798.2,31.2 			"/>
			<linearGradient id="SVGID_12_" gradientUnits="userSpaceOnUse" x1="816.0938" y1="2.7015" x2="820.7709" y2="2.7015">
				<stop  offset="0" style="stop-color:#8FDDF4"/>
				<stop  offset="0.1606" style="stop-color:#85CDEF"/>
				<stop  offset="0.4053" style="stop-color:#7ABCEA"/>
				<stop  offset="0.6721" style="stop-color:#74B2E7"/>
				<stop  offset="1" style="stop-color:#72AFE6"/>
			</linearGradient>
			<polygon class="st33" points="816.1,2.8 820.3,5.4 820.8,0.7 818.4,0 			"/>
			<polygon class="st23" points="820.3,5.4 818.4,6.1 814.3,3.7 816.1,2.8 			"/>
			<polygon class="st25" points="818.4,0 817.1,0.2 814.3,3.7 816.1,2.8 			"/>
			<polygon class="st23" points="845.3,7.8 846.2,12.7 850.9,11.3 849.7,7.3 			"/>
			<path class="st23" d="M846.2,12.7"/>
			<polygon class="st23" points="846.9,66.9 846.5,72 851.6,72 848.6,66.5 			"/>
			<linearGradient id="SVGID_13_" gradientUnits="userSpaceOnUse" x1="846.1896" y1="10.0162" x2="850.9331" y2="10.0162">
				<stop  offset="0" style="stop-color:#8FDDF4"/>
				<stop  offset="0.1606" style="stop-color:#85CDEF"/>
				<stop  offset="0.4053" style="stop-color:#7ABCEA"/>
				<stop  offset="0.6721" style="stop-color:#74B2E7"/>
				<stop  offset="1" style="stop-color:#72AFE6"/>
			</linearGradient>
			<polygon class="st34" points="846.2,12.7 847.5,11.4 846.6,7.7 849.7,7.3 850.9,11.3 			"/>
			<linearGradient id="SVGID_14_" gradientUnits="userSpaceOnUse" x1="848.6212" y1="69.2644" x2="852.501" y2="69.2644">
				<stop  offset="0" style="stop-color:#8FDDF4"/>
				<stop  offset="0.1606" style="stop-color:#85CDEF"/>
				<stop  offset="0.4053" style="stop-color:#7ABCEA"/>
				<stop  offset="0.6721" style="stop-color:#74B2E7"/>
				<stop  offset="1" style="stop-color:#72AFE6"/>
			</linearGradient>
			<polygon class="st35" points="848.6,66.5 852.5,69 851.6,72 848.6,71.7 			"/>
			<linearGradient id="SVGID_15_" gradientUnits="userSpaceOnUse" x1="860.2609" y1="40.6767" x2="864.9911" y2="40.6767">
				<stop  offset="0" style="stop-color:#8FDDF4"/>
				<stop  offset="0.1606" style="stop-color:#85CDEF"/>
				<stop  offset="0.4053" style="stop-color:#7ABCEA"/>
				<stop  offset="0.6721" style="stop-color:#74B2E7"/>
				<stop  offset="1" style="stop-color:#72AFE6"/>
			</linearGradient>
			<polygon class="st36" points="860.3,40.5 863.7,43.4 865,41.3 863.1,38 			"/>
			<polygon class="st23" points="860.3,40.5 858.6,40.7 861.6,44.1 863.7,44.1 863.7,43.4 			"/>
			<polygon class="st25" points="863.1,38 861.7,38 858.6,40.7 860.3,40.5 			"/>
			<polygon class="st25" points="813.9,66.9 815,66.1 820,65 815.4,66.7 			"/>
			<linearGradient id="SVGID_16_" gradientUnits="userSpaceOnUse" x1="846.5483" y1="71.8488" x2="851.5975" y2="71.8488">
				<stop  offset="0" style="stop-color:#8FDDF4"/>
				<stop  offset="0.1606" style="stop-color:#85CDEF"/>
				<stop  offset="0.4053" style="stop-color:#7ABCEA"/>
				<stop  offset="0.6721" style="stop-color:#74B2E7"/>
				<stop  offset="1" style="stop-color:#72AFE6"/>
			</linearGradient>
			<polygon class="st37" points="846.5,72 851.6,72 848.6,71.7 			"/>
			<polygon class="st27" points="847.5,11.4 850.9,11.3 846.2,12.7 			"/>
			<linearGradient id="SVGID_17_" gradientUnits="userSpaceOnUse" x1="815.3762" y1="67.6101" x2="820.452" y2="67.6101">
				<stop  offset="0" style="stop-color:#8FDDF4"/>
				<stop  offset="0.1606" style="stop-color:#85CDEF"/>
				<stop  offset="0.4053" style="stop-color:#7ABCEA"/>
				<stop  offset="0.6721" style="stop-color:#74B2E7"/>
				<stop  offset="1" style="stop-color:#72AFE6"/>
			</linearGradient>
			<polygon class="st38" points="815.4,66.7 817.3,70.3 820.5,70.3 820,65 			"/>
		</g>
	</g>
	<g>
		<g class="st3">
			<path class="st39" d="M212.2,0.3c0,0,11.6,2.1,12.1,8.3c0.5-7.4-12.1-9-12.1-9L212.2,0.3z"/>
			
				<linearGradient id="SVGID_18_" gradientUnits="userSpaceOnUse" x1="242.6233" y1="-242.0393" x2="272.7461" y2="-242.0393" gradientTransform="matrix(1 -2.945555e-03 2.945555e-03 1 -47.6585 294.5825)">
				<stop  offset="6.424590e-02" style="stop-color:#E00000"/>
				<stop  offset="0.7514" style="stop-color:#6D001B"/>
				<stop  offset="1" style="stop-color:#E2131D"/>
			</linearGradient>
			<path class="st40" d="M194.3,79.2l3.4-55.1l23.3-0.7l3.4,56C224.5,79.5,207.2,81,194.3,79.2z"/>
			
				<linearGradient id="SVGID_19_" gradientUnits="userSpaceOnUse" x1="243.9923" y1="-242.725" x2="274.8604" y2="-240.2046" gradientTransform="matrix(1 -2.945555e-03 2.945555e-03 1 -47.6585 294.5825)">
				<stop  offset="5.586590e-03" style="stop-color:#FFCE00"/>
				<stop  offset="7.594101e-03" style="stop-color:#FACA00"/>
				<stop  offset="2.923657e-02" style="stop-color:#CBA400"/>
				<stop  offset="5.289082e-02" style="stop-color:#A08200"/>
				<stop  offset="7.879820e-02" style="stop-color:#7A6200"/>
				<stop  offset="0.1068" style="stop-color:#594800"/>
				<stop  offset="0.1376" style="stop-color:#3D3100"/>
				<stop  offset="0.1722" style="stop-color:#261F00"/>
				<stop  offset="0.2122" style="stop-color:#151100"/>
				<stop  offset="0.261" style="stop-color:#090700"/>
				<stop  offset="0.3281" style="stop-color:#020200"/>
				<stop  offset="0.4991" style="stop-color:#000000"/>
			</linearGradient>
			<path class="st41" d="M194.3,79.2l3.4-55.1l20.4,0.4l6.3,54.9C224.5,79.5,207.2,81,194.3,79.2z"/>
			<path class="st42" d="M197.7,24.2c0,0,13.7-2.2,23.3-0.7C221,23.4,215.9,27.3,197.7,24.2z"/>
			
				<radialGradient id="SVGID_20_" cx="258.0601" cy="-276.7223" r="9.0509" gradientTransform="matrix(0.9527 -2.877658e-03 2.945555e-03 1 -35.9322 293.9474)" gradientUnits="userSpaceOnUse">
				<stop  offset="6.424590e-02" style="stop-color:#F24916"/>
				<stop  offset="0.4581" style="stop-color:#F14716"/>
				<stop  offset="0.6544" style="stop-color:#EF3F17"/>
				<stop  offset="0.8069" style="stop-color:#EB3219"/>
				<stop  offset="0.9362" style="stop-color:#E61F1B"/>
				<stop  offset="1" style="stop-color:#E2131D"/>
			</radialGradient>
			<path class="st43" d="M200.8,23.8c0,0,10.3,1.5,17.4-0.4l-0.3-7.4l-16.7,0L200.8,23.8z"/>
			
				<linearGradient id="SVGID_21_" gradientUnits="userSpaceOnUse" x1="249.2682" y1="-272.9811" x2="267.49" y2="-272.9811" gradientTransform="matrix(0.9527 -2.877658e-03 2.945555e-03 1 -35.9322 293.9474)">
				<stop  offset="6.424590e-02" style="stop-color:#E00000"/>
				<stop  offset="0.7514" style="stop-color:#6D001B"/>
				<stop  offset="1" style="stop-color:#E2131D"/>
			</linearGradient>
			<path class="st44" d="M200.8,23.8c0,0,10.3,1.5,17.4-0.4l-0.3-7.4l-16.7,0L200.8,23.8z"/>
			<path class="st42" d="M201.1,16.1c0,0,10.9-0.8,16.7,0C217.8,16.1,212.5,18.1,201.1,16.1z"/>
			
				<linearGradient id="SVGID_22_" gradientUnits="userSpaceOnUse" x1="255.1638" y1="-286.6143" x2="260.9055" y2="-286.6143" gradientTransform="matrix(1 -2.945555e-03 2.945555e-03 1 -47.6585 294.5825)">
				<stop  offset="6.424590e-02" style="stop-color:#FF0400"/>
				<stop  offset="0.7514" style="stop-color:#6D001B"/>
				<stop  offset="1" style="stop-color:#E2131D"/>
			</linearGradient>
			<polygon class="st45" points="206.7,16.3 208.7,-1.9 210.6,-1.9 212.4,16.3 			"/>
			
				<linearGradient id="SVGID_23_" gradientUnits="userSpaceOnUse" x1="255.1632" y1="-294.1726" x2="260.9633" y2="-294.1726" gradientTransform="matrix(1 -2.945555e-03 2.945555e-03 1 -47.6585 294.5825)">
				<stop  offset="6.424590e-02" style="stop-color:#E00000"/>
				<stop  offset="0.7514" style="stop-color:#6D001B"/>
				<stop  offset="1" style="stop-color:#E2131D"/>
			</linearGradient>
			<path class="st46" d="M206.6,3.6c0,0,3.4-0.7,5.8-0.4l-0.5-6.9c0,0-2-1.2-4.7,0L206.6,3.6z"/>
			<path class="st39" d="M206.6,3.6l1.4,0.3l0-0.3c0,0,1.4-0.6,3-0.2l0.1,0.5l1.3-0.7C212.4,3.1,209.9,2.6,206.6,3.6z"/>
			
				<linearGradient id="SVGID_24_" gradientUnits="userSpaceOnUse" x1="258.1553" y1="-289.2992" x2="258.1553" y2="-290.6066" gradientTransform="matrix(1 -2.945555e-03 2.945555e-03 1 -47.6585 294.5825)">
				<stop  offset="0" style="stop-color:#F5AEB8"/>
				<stop  offset="0.9944" style="stop-color:#8D3457"/>
			</linearGradient>
			<path class="st47" d="M208,4.3c0,0,1.9-0.3,3.2,0.3l-0.1-1.2c0,0-1.5-0.4-3,0.2L208,4.3z"/>
			
				<radialGradient id="SVGID_25_" cx="266.7694" cy="-294.0257" r="10.1827" gradientTransform="matrix(1 -2.384577e-03 4.944420e-03 2.0735 -47.0712 610.0668)" gradientUnits="userSpaceOnUse">
				<stop  offset="6.424590e-02" style="stop-color:#F24916"/>
				<stop  offset="1" style="stop-color:#E2131D"/>
			</radialGradient>
			<path class="st48" d="M217.9,19c0,0,5.9-4.2,6.4-10.4c0.5-6.2-12.1-9-12.1-9l-0.1-1c0,0,12.9,3.4,12.7,9.9
				c-0.1,6.5-6.8,12.6-6.8,12.6L217.9,19z"/>
			<polygon class="st14" points="200.8,23.8 200.8,24.6 197.7,24.2 			"/>
			<path class="st14" d="M218.1,23.1l0,1.5c0,0,1.6-0.3,2.9-1.1L218.1,23.1z"/>
			<g class="st49">
				<g>
					
						<rect x="198.8" y="20" transform="matrix(4.902612e-02 -0.9988 0.9988 4.902612e-02 172.5279 221.603)" class="st39" width="7.6" height="0.4"/>
				</g>
				<g>
					
						<rect x="197.8" y="20" transform="matrix(4.907657e-02 -0.9988 0.9988 4.907657e-02 171.5186 220.5584)" class="st39" width="7.6" height="0.4"/>
				</g>
				<g>
					
						<rect x="200.5" y="20.2" transform="matrix(6.648517e-02 -0.9978 0.9978 6.648517e-02 170.3271 222.8141)" class="st39" width="7.6" height="0.4"/>
				</g>
				<g>
					
						<rect x="205.7" y="16.7" transform="matrix(1 -2.499050e-03 2.499050e-03 1 -5.058803e-02 0.5147)" class="st39" width="0.4" height="7.6"/>
				</g>
				<g>
					
						<rect x="204" y="20.4" transform="matrix(5.166506e-02 -0.9987 0.9987 5.166506e-02 176.3673 226.9839)" class="st39" width="7.3" height="0.4"/>
				</g>
				<g>
					
						<rect x="209.3" y="17" transform="matrix(0.9996 -2.981473e-02 2.981473e-02 0.9996 -0.5232 6.2545)" class="st39" width="0.4" height="7.4"/>
				</g>
				<g>
					
						<rect x="210.8" y="17" transform="matrix(0.9965 -8.402755e-02 8.402755e-02 0.9965 -0.9863 17.8018)" class="st39" width="0.4" height="7.3"/>
				</g>
				<g>
					
						<rect x="212.6" y="17" transform="matrix(0.9961 -8.835201e-02 8.835201e-02 0.9961 -0.9876 18.8825)" class="st39" width="0.4" height="7.3"/>
				</g>
				<g>
					
						<rect x="214.1" y="16.8" transform="matrix(0.9982 -5.934128e-02 5.934128e-02 0.9982 -0.8349 12.7548)" class="st39" width="0.4" height="7.3"/>
				</g>
				<g>
					
						<rect x="215.6" y="16.5" transform="matrix(1 -2.499050e-03 2.499050e-03 1 -4.985969e-02 0.5395)" class="st39" width="0.4" height="7.4"/>
				</g>
				<g>
					
						<rect x="217" y="16.3" transform="matrix(0.9993 -3.840719e-02 3.840719e-02 0.9993 -0.6056 8.3579)" class="st39" width="0.4" height="7.4"/>
				</g>
			</g>
			<path class="st14" d="M205.4,25.2l9,0C214.3,25.2,209.4,26,205.4,25.2z"/>
			<path class="st14" d="M207.1,16.9l6,0C213.1,16.9,208.9,17.2,207.1,16.9z"/>
			<path class="st14" d="M209.4-4.3c0,0,1.3,1.1,2.1,0.3C211.5-4,210.5-4.3,209.4-4.3z"/>
			
				<linearGradient id="SVGID_26_" gradientUnits="userSpaceOnUse" x1="242.6233" y1="-214.1543" x2="272.7461" y2="-214.1543" gradientTransform="matrix(1 -2.945555e-03 2.945555e-03 1 -47.6585 294.5825)">
				<stop  offset="0" style="stop-color:#F5AEB8"/>
				<stop  offset="0.9944" style="stop-color:#8D3457"/>
			</linearGradient>
			<path class="st50" d="M194.3,79.2l30.1,0.2C224.5,79.5,208,81.1,194.3,79.2z"/>
		</g>
		<g class="st3">
			
				<image style="overflow:visible;opacity:0.3;" width="176" height="206" xlink:href="85E24940.png"  transform="matrix(0.24 0 0 0.24 188.2362 36.6853)">
			</image>
			<g>
				<path class="st51" d="M195.8,56l0.8-12.4l2.7,3.7l1.1,8.6l4.4,1.2l0.7-4.7l3.2,1.1l1.9,5.6l5-0.9l1.8-6.2h1.8l0.6,4.6l2.6-13.9
					l2.2,36.6c0,0-17.7,1.6-30.1-0.2L195.8,56z"/>
			</g>
		</g>
		<linearGradient id="SVGID_27_" gradientUnits="userSpaceOnUse" x1="198.2986" y1="44.774" x2="198.2986" y2="72.3181">
			<stop  offset="0" style="stop-color:#A41622"/>
			<stop  offset="0.5638" style="stop-color:#66190A"/>
			<stop  offset="0.8539" style="stop-color:#4B1A00"/>
		</linearGradient>
		<polyline class="st52" points="196.3,44.8 198.7,47.6 199.6,56.8 202,58.5 202,68.1 194.6,72.3 196.3,44.8 		"/>
		<linearGradient id="SVGID_28_" gradientUnits="userSpaceOnUse" x1="200.4462" y1="69.4575" x2="200.4462" y2="80.1216">
			<stop  offset="0" style="stop-color:#811622"/>
			<stop  offset="0.1092" style="stop-color:#6C1815"/>
			<stop  offset="0.243" style="stop-color:#5A1909"/>
			<stop  offset="0.3829" style="stop-color:#4F1A02"/>
			<stop  offset="0.5373" style="stop-color:#4B1A00"/>
			<stop  offset="1" style="stop-color:#381A00"/>
		</linearGradient>
		<polygon class="st53" points="194.6,73 194,79.2 197.7,79.7 203.9,80.1 206.9,77.8 201.7,74 202.3,69.5 		"/>
		<linearGradient id="SVGID_29_" gradientUnits="userSpaceOnUse" x1="215.1512" y1="65.3545" x2="215.1512" y2="80.2213">
			<stop  offset="0" style="stop-color:#811622"/>
			<stop  offset="0.1092" style="stop-color:#6C1815"/>
			<stop  offset="0.243" style="stop-color:#5A1909"/>
			<stop  offset="0.3829" style="stop-color:#4F1A02"/>
			<stop  offset="0.5373" style="stop-color:#4B1A00"/>
			<stop  offset="1" style="stop-color:#381A00"/>
		</linearGradient>
		<path class="st54" d="M205.7,80.1l2.6-2.3l5.7-2.6l1.9-9.4l3.1-0.4l2.5,3.1L224,70l0.7,9.5C224.6,79.5,213.2,80.6,205.7,80.1"/>
		<linearGradient id="SVGID_30_" gradientUnits="userSpaceOnUse" x1="202.9866" y1="57.1928" x2="202.9866" y2="59.281">
			<stop  offset="0" style="stop-color:#A41622"/>
			<stop  offset="0.5638" style="stop-color:#66190A"/>
			<stop  offset="0.8539" style="stop-color:#4B1A00"/>
		</linearGradient>
		<polygon class="st55" points="202.4,58.5 203.6,59.3 203.6,57.7 202.8,57.2 		"/>
		<linearGradient id="SVGID_31_" gradientUnits="userSpaceOnUse" x1="221.8527" y1="44.774" x2="221.8527" y2="68.9238">
			<stop  offset="0" style="stop-color:#A41622"/>
			<stop  offset="0.5638" style="stop-color:#66190A"/>
			<stop  offset="0.8539" style="stop-color:#4B1A00"/>
		</linearGradient>
		<polyline class="st56" points="222.3,44.8 219.9,57.9 223.8,68.9 222.3,44.8 		"/>
		<linearGradient id="SVGID_32_" gradientUnits="userSpaceOnUse" x1="207.5234" y1="53.8839" x2="207.5234" y2="65.3545">
			<stop  offset="0" style="stop-color:#A41622"/>
			<stop  offset="0.5638" style="stop-color:#66190A"/>
			<stop  offset="0.8539" style="stop-color:#4B1A00"/>
		</linearGradient>
		<polygon class="st57" points="205.8,53.9 205.3,57.5 203.9,58.7 207.8,65.4 211.1,63.9 207.9,53.9 		"/>
		<linearGradient id="SVGID_33_" gradientUnits="userSpaceOnUse" x1="209.0749" y1="65.0604" x2="209.0749" y2="77.4869">
			<stop  offset="0" style="stop-color:#811622"/>
			<stop  offset="0.1092" style="stop-color:#6C1815"/>
			<stop  offset="0.243" style="stop-color:#5A1909"/>
			<stop  offset="0.3829" style="stop-color:#4F1A02"/>
			<stop  offset="0.5373" style="stop-color:#4B1A00"/>
			<stop  offset="1" style="stop-color:#381A00"/>
		</linearGradient>
		<polygon class="st58" points="202.6,69.2 205.2,71 212.8,66.5 215.5,65.1 215.6,65.9 213.7,74.8 207.9,77.5 202.5,73.7 		"/>
		<linearGradient id="SVGID_34_" gradientUnits="userSpaceOnUse" x1="217.0013" y1="52.6634" x2="217.0013" y2="68.3692">
			<stop  offset="0" style="stop-color:#A41622"/>
			<stop  offset="0.5638" style="stop-color:#66190A"/>
			<stop  offset="0.8539" style="stop-color:#4B1A00"/>
		</linearGradient>
		<polygon class="st59" points="210.8,59.8 211.8,63.6 215.9,64.6 216.1,65.1 219,64.9 221.7,67.5 223.2,68.4 219.6,58.2 
			218.7,52.7 217.6,52.7 215.8,58.9 		"/>
		<linearGradient id="SVGID_35_" gradientUnits="userSpaceOnUse" x1="208.5602" y1="59.0751" x2="208.5602" y2="69.9869">
			<stop  offset="0" style="stop-color:#A41622"/>
			<stop  offset="0.5638" style="stop-color:#66190A"/>
			<stop  offset="0.8539" style="stop-color:#4B1A00"/>
		</linearGradient>
		<polygon class="st60" points="202.4,59.1 204.1,60.2 207.5,66 211.5,64.4 214.8,65.1 205.4,70 202.6,68.4 		"/>
		
			<radialGradient id="SVGID_36_" cx="-152.2451" cy="-380.9129" r="1.7589" gradientTransform="matrix(2.5662 -0.7112 -1.343 5.0674 95.3308 1878.8248)" gradientUnits="userSpaceOnUse">
			<stop  offset="0" style="stop-color:#FF5900"/>
			<stop  offset="4.506046e-02" style="stop-color:#E65000"/>
			<stop  offset="0.1503" style="stop-color:#B13E00"/>
			<stop  offset="0.2597" style="stop-color:#812D00"/>
			<stop  offset="0.371" style="stop-color:#5A1F00"/>
			<stop  offset="0.4847" style="stop-color:#391400"/>
			<stop  offset="0.6017" style="stop-color:#200B00"/>
			<stop  offset="0.723" style="stop-color:#0E0500"/>
			<stop  offset="0.8516" style="stop-color:#030100"/>
			<stop  offset="1" style="stop-color:#000000"/>
		</radialGradient>
		<path class="st61" d="M220.7,55.6c-1.3,4.9-4.4,9.5-6.9,10.2c-2.5,0.7-3.5-2.7-2.2-7.7c1.3-4.9,4.4-9.5,6.9-10.2
			C221.1,47.2,222,50.7,220.7,55.6z"/>
		
			<radialGradient id="SVGID_37_" cx="240.1008" cy="93.6268" r="1.7589" gradientTransform="matrix(2.1839 1.5238 -4.7605 2.1955 128.2273 -501.9807)" gradientUnits="userSpaceOnUse">
			<stop  offset="0" style="stop-color:#FF5900"/>
			<stop  offset="4.506046e-02" style="stop-color:#E65000"/>
			<stop  offset="0.1503" style="stop-color:#B13E00"/>
			<stop  offset="0.2597" style="stop-color:#812D00"/>
			<stop  offset="0.371" style="stop-color:#5A1F00"/>
			<stop  offset="0.4847" style="stop-color:#391400"/>
			<stop  offset="0.6017" style="stop-color:#200B00"/>
			<stop  offset="0.723" style="stop-color:#0E0500"/>
			<stop  offset="0.8516" style="stop-color:#030100"/>
			<stop  offset="1" style="stop-color:#000000"/>
		</radialGradient>
		<path class="st62" d="M210.7,72.1c-4.6,2.1-10.1,2.7-12.2,1.2c-2.1-1.5-0.1-4.4,4.5-6.5c4.6-2.1,10.1-2.7,12.2-1.2
			C217.4,67.1,215.3,70,210.7,72.1z"/>
		
			<radialGradient id="SVGID_38_" cx="93.7801" cy="-619.8708" r="1.1052" gradientTransform="matrix(1.5454 -2.1687 2.1483 4.782 1408.9464 3235.9585)" gradientUnits="userSpaceOnUse">
			<stop  offset="0" style="stop-color:#FF5900"/>
			<stop  offset="4.506046e-02" style="stop-color:#E65000"/>
			<stop  offset="0.1503" style="stop-color:#B13E00"/>
			<stop  offset="0.2597" style="stop-color:#812D00"/>
			<stop  offset="0.371" style="stop-color:#5A1F00"/>
			<stop  offset="0.4847" style="stop-color:#391400"/>
			<stop  offset="0.6017" style="stop-color:#200B00"/>
			<stop  offset="0.723" style="stop-color:#0E0500"/>
			<stop  offset="0.8516" style="stop-color:#030100"/>
			<stop  offset="1" style="stop-color:#000000"/>
		</radialGradient>
		<path class="st63" d="M223.9,66c1.3,2.9,1.6,6.4,0.7,7.7c-0.9,1.3-2.8,0-4.1-2.9c-1.3-2.9-1.6-6.4-0.7-7.7
			C220.7,61.8,222.6,63.1,223.9,66z"/>
		
			<radialGradient id="SVGID_39_" cx="1281.3425" cy="447.2556" r="1.472" gradientTransform="matrix(-0.1408 2.6592 -4.3783 -2.8832 2341.1831 -2059.936)" gradientUnits="userSpaceOnUse">
			<stop  offset="0" style="stop-color:#FF5900"/>
			<stop  offset="4.506046e-02" style="stop-color:#E65000"/>
			<stop  offset="0.1503" style="stop-color:#B13E00"/>
			<stop  offset="0.2597" style="stop-color:#812D00"/>
			<stop  offset="0.371" style="stop-color:#5A1F00"/>
			<stop  offset="0.4847" style="stop-color:#391400"/>
			<stop  offset="0.6017" style="stop-color:#200B00"/>
			<stop  offset="0.723" style="stop-color:#0E0500"/>
			<stop  offset="0.8516" style="stop-color:#030100"/>
			<stop  offset="1" style="stop-color:#000000"/>
		</radialGradient>
		<path class="st64" d="M202.3,61.8c-3.6-2.3-6.4-6-6.2-8.2c0.1-2.2,3.1-2,6.7,0.3c3.6,2.3,6.4,6,6.2,8.2
			C208.8,64.3,205.9,64.2,202.3,61.8z"/>
	</g>
</g>
<g id="Layer_14" class="st0">
</g>
<g id="Layer_13">
	<linearGradient id="SVGID_40_" gradientUnits="userSpaceOnUse" x1="29.585" y1="53.9305" x2="70.8848" y2="55.1744">
		<stop  offset="0" style="stop-color:#29ACE4"/>
		<stop  offset="0.2839" style="stop-color:#2874E2"/>
		<stop  offset="0.2899" style="stop-color:#2773E1"/>
		<stop  offset="0.5055" style="stop-color:#1752BD"/>
		<stop  offset="0.6812" style="stop-color:#0D3DA7"/>
		<stop  offset="0.794" style="stop-color:#09369F"/>
		<stop  offset="0.8849" style="stop-color:#0A38A0"/>
		<stop  offset="0.9176" style="stop-color:#0C3FA4"/>
		<stop  offset="0.941" style="stop-color:#0F4AAC"/>
		<stop  offset="0.9598" style="stop-color:#145BB6"/>
		<stop  offset="0.976" style="stop-color:#1A71C4"/>
		<stop  offset="0.99" style="stop-color:#228CD5"/>
		<stop  offset="1" style="stop-color:#29A4E4"/>
	</linearGradient>
	<path class="st65" d="M28.2,85.1c0,0,19.1,13.7,42.1,0.2l0-51c0,0-2.3-15.8-21.1-16.5c0,0-17.9,0.2-21.1,16.6V85.1z"/>
</g>
<g id="Layer_12">
	<g>
		<path class="st66" d="M34.9,68.6c0,0,0.1,0,0.1,0c0,0.1,0.1,0.1,0.2,0.1c0.4,0,0.7,0.1,1,0.2c1.4,0.5,2.6,1.3,3.6,2.3
			c1.4,1.4,2.4,3,3.3,4.7c0.9,2,1.5,4,1.7,6.1c0.1,1,0.1,2,0,3c0,0.2-0.1,0.5-0.1,0.7c0,0,0,0.1,0,0.1c-0.1,0-0.1,0.1-0.1,0.1
			c-0.1,0.7-0.3,1.4-0.6,2.1c-0.6,1.5-1.7,2.7-3.4,3.4c-1.5,0.6-3.1,1.1-4.6,1.5c-0.9,0.2-1.7,0.5-2.6,0.7c0-0.1,0.1-0.1,0.1-0.1
			c0.7-0.4,1.2-0.9,1.7-1.4c0.7-1,1.1-2,1.4-3.2c0.1-0.5,0.2-1,0.2-1.6c0-0.6,0.1-1.1,0-1.7c-0.1-1.7-0.4-3.3-0.9-4.9
			c-0.5-1.5-1.1-2.9-1.9-4.2c-0.5-0.8-1.1-1.6-1.7-2.3c-0.7-0.8-1.5-1.5-2.4-2c-0.9-0.6-1.9-0.9-3-1c-0.2,0-0.4,0-0.5,0
			c-0.6,0.1-1.2,0.2-1.8,0.5C24.3,71.8,24.2,72,24,72c0.1-0.1,0.3-0.2,0.4-0.3c0.8-0.6,1.7-1,2.7-1.4c2.2-0.8,4.5-1.3,6.8-1.5
			C34.2,68.6,34.6,68.6,34.9,68.6z"/>
		<path class="st67" d="M33.5,93.6c-0.6,0.2-1.2,0.4-1.8,0.4c-0.6,0-1.1-0.1-1.7-0.2c-1.5-0.4-2.7-1.3-3.8-2.3
			c-1.3-1.2-2.2-2.6-3-4.1c-1-2-1.7-4.1-2-6.3c-0.2-1.4-0.2-2.9,0.1-4.3c0.2-1.1,0.5-2.2,1.1-3.2c0.4-0.6,0.9-1.1,1.5-1.6
			c0.2,0,0.3-0.2,0.5-0.2c0.6-0.3,1.2-0.4,1.8-0.5c0.2,0,0.4,0,0.5,0c1.1,0.1,2.1,0.4,3,1c0.9,0.6,1.7,1.2,2.4,2
			c0.7,0.7,1.2,1.5,1.7,2.3c0.8,1.3,1.5,2.7,1.9,4.2c0.5,1.6,0.8,3.3,0.9,4.9c0,0.6,0,1.1,0,1.7c0,0.5-0.1,1.1-0.2,1.6
			C36.4,90,36,91.1,35.2,92c-0.4,0.6-1,1.1-1.7,1.4C33.5,93.5,33.5,93.5,33.5,93.6z"/>
	</g>
	<path class="st68" d="M22.1,80.7c0,0-0.3-9.6,5.7-8c0,0,6.3,1.4,8.2,12.2L22.1,80.7z"/>
	<path class="st69" d="M29.6,83l3.5-5.7c0,0,1.9,2.8,2.7,7.6L29.6,83z"/>
	<path class="st70" d="M23.9,81.3c0,0,0.4-4.5,4.1-4c0,0,3.6,0.6,4.1,6.4L23.9,81.3z"/>
	<polygon class="st71" points="27.2,82.3 24.4,74.1 25.2,73.8 29.5,82.9 	"/>
</g>
<g id="Layer_11">
	<ellipse class="st72" cx="49.3" cy="21.2" rx="6" ry="2.7"/>
</g>
<g id="Layer_10">
	<ellipse class="st73" cx="49.3" cy="20.7" rx="3.8" ry="1.7"/>
</g>
<g id="Layer_7">
	<path class="st74" d="M45.7,20.6c0,0-0.4,1.4,3.6,1.6c0,0,3.8,0,3.6-1.9v-3.8h-7.3L45.7,20.6z"/>
</g>
<g id="Layer_8">
	<path class="st75" d="M47.7,18.2v3.4v0.5c0,0-2.1-0.3-2-1.4l0-2.6l2-0.8"/>
</g>
<g id="Layer_9">
	<g>
		<path class="st76" d="M41.5,15c0,0,4.6,0.7,3.6,4.2c0,0,3.4-2.5,9-0.5c0,0-3.2-2.9,1-5.1c0,0-6-0.2-7.8-2.7
			C47.3,10.9,46.2,14.2,41.5,15z"/>
		<path class="st77" d="M41.9,12.2c0,0,4.6,0.7,3.6,4.2c0,0,3.4-2.5,9-0.5c0,0-3.2-2.9,1-5.1c0,0-6-0.2-7.8-2.7
			C47.6,8.1,46.5,11.4,41.9,12.2z"/>
		<path class="st78" d="M41.9,12.2c0,0,0.1,2-0.2,2.8c0,0,4.5,0.7,3.5,4.3l0.3-2.8C45.5,16.4,47,13.2,41.9,12.2z"/>
		<path class="st79" d="M45.5,16.4c0,0,3.3-2.5,9-0.5c0,0-0.4,1.4-0.3,2.8c0,0-3.5-1.6-9,0.5L45.5,16.4z"/>
		<path class="st78" d="M55.4,10.8c0,0-0.3,0.7-0.3,2.8c0,0-1.1,0.5-1.5,1.2C53.6,14.7,52.1,12.3,55.4,10.8z"/>
		<ellipse class="st79" cx="48.9" cy="12.3" rx="2.6" ry="1.3"/>
	</g>
</g>
<g id="Layer_6" class="st0">
	
		<rect x="13.1" y="46.8" transform="matrix(0.7598 -0.6501 0.6501 0.7598 -18.7107 44.6759)" class="st80" width="76.1" height="1.8"/>
	<polygon class="st81" points="22.3,72.5 39.4,57.2 78.6,23.6 79.8,23.4 79.3,24.5 41.1,57.1 23,73.1 22.8,73 	"/>
</g>
<g id="Layer_5" class="st0">
	
		<linearGradient id="SVGID_41_" gradientUnits="userSpaceOnUse" x1="5292.8716" y1="-577.2191" x2="5292.8716" y2="-559.5154" gradientTransform="matrix(-0.6501 -0.7598 0.7598 -0.6501 3956.1985 3672.2456)">
		<stop  offset="0" style="stop-color:#FFFFFF"/>
		<stop  offset="2.748271e-02" style="stop-color:#FCD2D7"/>
		<stop  offset="6.071796e-02" style="stop-color:#F8A2AD"/>
		<stop  offset="9.502352e-02" style="stop-color:#F67989"/>
		<stop  offset="0.1299" style="stop-color:#F3586C"/>
		<stop  offset="0.1654" style="stop-color:#F13E55"/>
		<stop  offset="0.2019" style="stop-color:#F02C45"/>
		<stop  offset="0.2399" style="stop-color:#EF213B"/>
		<stop  offset="0.2821" style="stop-color:#EF1D38"/>
		<stop  offset="0.4058" style="stop-color:#DE1D35"/>
		<stop  offset="0.6016" style="stop-color:#CB1D31"/>
		<stop  offset="0.7992" style="stop-color:#BF1D2F"/>
		<stop  offset="1" style="stop-color:#BB1D2E"/>
	</linearGradient>
	<path class="st82" d="M72.3,16.6c-0.7,2.6-1,7.3,6.9,7.1c-1.4,7.7,3.2,8.2,5.9,7.9c1.3-0.2,2.6-0.8,3.4-1.9
		c3.9-5,1.5-15.2,1.5-15.2s-9.7-4-15.3-0.9C73.5,14.2,72.7,15.3,72.3,16.6z"/>
</g>
<g id="Layer_4" class="st0">
	
		<linearGradient id="SVGID_42_" gradientUnits="userSpaceOnUse" x1="5305.731" y1="-640.6094" x2="5287.9404" y2="-640.288" gradientTransform="matrix(-0.6501 -0.7598 0.7598 -0.6501 3956.1985 3672.2456)">
		<stop  offset="0.1785" style="stop-color:#FFFFFF"/>
		<stop  offset="0.4547" style="stop-color:#EF1D38"/>
		<stop  offset="0.4662" style="stop-color:#EB1D38"/>
		<stop  offset="0.5712" style="stop-color:#C71D34"/>
		<stop  offset="0.6773" style="stop-color:#AC1D31"/>
		<stop  offset="0.7839" style="stop-color:#981D30"/>
		<stop  offset="0.8911" style="stop-color:#8C1D2E"/>
		<stop  offset="1" style="stop-color:#881D2E"/>
	</linearGradient>
	<path class="st83" d="M21.6,71.8l-10.3-0.3l17.4-13.9c0,0,7.2-3,11.4-1.4L21.6,71.8z"/>
</g>
<g id="Layer_3" class="st0">
	
		<linearGradient id="SVGID_43_" gradientUnits="userSpaceOnUse" x1="-1843.7593" y1="-640.551" x2="-1861.5498" y2="-640.2296" gradientTransform="matrix(0.6501 0.7598 0.7598 -0.6501 1722.1433 1061.3624)">
		<stop  offset="0.1785" style="stop-color:#FFFFFF"/>
		<stop  offset="0.4547" style="stop-color:#EF1D38"/>
		<stop  offset="0.4662" style="stop-color:#EB1D38"/>
		<stop  offset="0.5712" style="stop-color:#C71D34"/>
		<stop  offset="0.6773" style="stop-color:#AC1D31"/>
		<stop  offset="0.7839" style="stop-color:#981D30"/>
		<stop  offset="0.8911" style="stop-color:#8C1D2E"/>
		<stop  offset="1" style="stop-color:#881D2E"/>
	</linearGradient>
	<path class="st84" d="M22.8,73.1l-1.3,10.3l16.5-15.1c0,0,4.1-6.7,3.1-11L22.8,73.1z"/>
</g>
<g id="Layer_2" class="st0">
	
		<linearGradient id="SVGID_44_" gradientUnits="userSpaceOnUse" x1="5298.8643" y1="-642.8036" x2="5289.8306" y2="-642.6405" gradientTransform="matrix(-0.6501 -0.7598 0.7598 -0.6501 3956.1985 3672.2456)">
		<stop  offset="0.1785" style="stop-color:#FFFFFF"/>
		<stop  offset="0.4547" style="stop-color:#EF1D38"/>
		<stop  offset="0.4662" style="stop-color:#EB1D38"/>
		<stop  offset="0.5712" style="stop-color:#C71D34"/>
		<stop  offset="0.6773" style="stop-color:#AC1D31"/>
		<stop  offset="0.7839" style="stop-color:#981D30"/>
		<stop  offset="0.8911" style="stop-color:#8C1D2E"/>
		<stop  offset="1" style="stop-color:#881D2E"/>
	</linearGradient>
	<polygon class="st85" points="40.5,56.7 22.2,72.4 10.8,77.9 30.5,62.1 38.4,57.2 	"/>
</g>
</svg>
