<?xml version="1.0" encoding="utf-8"?>
<!-- Generator: Adobe Illustrator 24.0.1, SVG Export Plug-In . SVG Version: 6.00 Build 0)  -->
<svg version="1.1" id="Layer_1" xmlns="http://www.w3.org/2000/svg" xmlns:xlink="http://www.w3.org/1999/xlink" x="0px" y="0px"
	 viewBox="0 0 100 100" style="enable-background:new 0 0 100 100;" xml:space="preserve">
<style type="text/css">
	.st0{fill:#FFFFFF;}
</style>
<g>
	<path class="st0" d="M94.5,32.2c-0.7,1.5-2,2-3.6,1.9c-1.2-0.1-2.5,0-3.7-0.1c-0.7,0-0.7,0.2-0.6,0.8c1,3.4,1.4,6.9,1.3,10.4
		c-0.1,4.2-0.9,8.3-2.4,12.2c-0.7,1.7-2.3,2.3-3.9,1.4c-1.4-0.8-2.8-1.6-4.2-2.4c-1.4-0.8-1.8-1.8-1.3-3.4c1-3.2,1.5-6.4,1.4-9.8
		c-0.1-3.1-0.7-6.1-1.8-8.9c-0.1-0.2-0.1-0.6-0.4-0.5c-0.3,0.1-0.1,0.4,0,0.7c0.4,3.5-1.8,7.3-5.8,8.3c-3.5,0.9-7.2-0.8-8.8-4
		c-1.7-3.2-0.9-7.2,1.9-9.5c2.8-2.3,6.7-2.5,9.7-0.3c0.2,0.1,0.4,0.3,0.8,0.5c-0.3-0.7-0.6-1-0.9-1.4c-3.3-3.9-7.6-6.5-12.4-8.2
		c-1.1-0.4-2.3-0.7-3.4-1c-1.3-0.4-2-1.3-2-2.7c0-1.7,0-3.3,0-5c0-1.7,1.3-2.9,3-2.6c7.8,1.2,14.5,4.6,20.1,10.3
		c0.2,0.2,0.4,0.5,0.7,0.7c1.2-1.6,2.4-3.2,3.6-4.8c1.6-2.2,3.7-2,5,0.4c2.6,4.9,5.1,9.8,7.5,14.7c0.2,0.3,0.3,0.6,0.5,0.9
		C94.5,31.3,94.5,31.8,94.5,32.2z"/>
	<path class="st0" d="M22.3,19.6c2.5-2.6,5.3-4.9,8.4-6.7c3.8-2.1,7.8-3.6,12.1-4.2c2-0.3,3.3,0.8,3.3,2.8c0,1.4,0,2.9,0,4.3
		c0,2-0.6,2.8-2.5,3.2c-4.1,1.1-7.9,2.8-11.3,5.3c-1.7,1.3-3.2,2.8-4.6,4.5c-0.1,0.1-0.3,0.3-0.2,0.6c2-1.6,4.2-2.3,6.7-1.9
		c1.6,0.3,3,1,4.2,2.2c2.4,2.4,2.9,6.1,1.3,9.1c-1.6,3-5,4.6-8.2,4c-1.4-0.3-2.6-0.8-3.6-1.7c-1.1-0.9-1.9-2-2.3-3.4
		c-0.5-1.3-0.5-2.6-0.5-4c-0.6,0.9-0.9,1.9-1.2,2.9C22.3,42,22.3,47.3,24,52.6c0.7,2.2,0.3,3-1.6,4.1c-1.2,0.7-2.4,1.4-3.7,2.1
		c-1.7,0.9-3.3,0.4-4-1.4c-2.8-7.4-3.1-14.9-1.1-22.5c0.2-0.7,0.1-0.9-0.6-0.9c-1.4,0.1-2.9,0.1-4.3,0.1c-2.3,0-3.5-1.9-2.5-4
		c2.5-5.1,5-10.2,7.7-15.2c1.1-2,3.2-2.1,4.6-0.4c1.3,1.6,2.5,3.3,3.7,4.9C22.1,19.5,22.2,19.5,22.3,19.6z"/>
	<path class="st0" d="M48.3,73c-4.8-2.2-6.7-5.2-5.9-9.3c0.7-3.5,3.8-6,7.4-6.2c3.6-0.1,6.8,2.2,7.8,5.8c0.6,2.1,0.3,4.1-0.8,6
		c-1.1,1.8-2.7,3-4.7,3.6c3.1-0.1,6-0.9,8.8-2.1c3.4-1.5,6.3-3.8,8.8-6.5c1.3-1.5,2.3-1.6,4-0.6c1.3,0.7,2.6,1.5,3.9,2.2
		c1.7,1,1.9,2.7,0.7,4.2c-5,6.1-11.4,10.2-19.1,12.2c-0.7,0.2-0.7,0.4-0.5,1c0.5,1.5,1,2.9,1.5,4.4c0.6,2-0.5,3.6-2.6,3.6
		c-5,0-10,0-15,0c-2.1,0-3.2-1.6-2.5-3.6c0.5-1.5,1-3,1.5-4.4c0.2-0.5,0.2-0.7-0.5-0.9c-7.7-2-14-6-19.1-12.1
		c-1.3-1.6-1-3.3,0.8-4.3c1.3-0.7,2.5-1.5,3.8-2.2c1.7-0.9,2.7-0.8,4,0.6c3.7,4,8.1,6.8,13.4,8.1C45.3,72.7,46.7,72.9,48.3,73z"/>
</g>
</svg>
