<?xml version="1.0" encoding="utf-8"?>
<!-- Generator: Adobe Illustrator 24.0.1, SVG Export Plug-In . SVG Version: 6.00 Build 0)  -->
<svg version="1.1" id="Layer_1" xmlns="http://www.w3.org/2000/svg" xmlns:xlink="http://www.w3.org/1999/xlink" x="0px" y="0px"
	 viewBox="0 0 100 100" style="enable-background:new 0 0 100 100;" xml:space="preserve">
<style type="text/css">
	.st0{fill:none;stroke:#FFFFFF;stroke-width:4.7919;stroke-miterlimit:10;}
	.st1{fill:#FFFFFF;}
</style>
<g>
	<circle class="st0" cx="49.2" cy="48.1" r="28.5"/>
	<g>
		<path class="st1" d="M45.3,69.3C33.5,67.1,25.8,55.8,28,44.1c2.2-11.7,13.5-19.5,25.2-17.3C64.9,29,72.7,40.3,70.5,52
			S57,71.5,45.3,69.3z M52.8,29.1c-10.5-2-20.6,5-22.5,15.4c-2,10.5,5,20.6,15.4,22.5c10.5,2,20.6-5,22.5-15.4
			C70.2,41.1,63.3,31,52.8,29.1z"/>
	</g>
	<circle class="st1" cx="49.2" cy="48.1" r="11.4"/>
	<g>
		<path class="st1" d="M86.8,64.5L52.7,49.1c-0.1,0-0.2,0-0.3,0.1l-0.3,0.8c0,0.1,0,0.2,0.1,0.3l34.1,15.4c0.1,0,0.2,0,0.3-0.1
			l0.3-0.8C86.9,64.6,86.9,64.5,86.8,64.5z"/>
		<g>
			<path class="st1" d="M81.4,63.8l-2.9-1.3c-0.1,0-0.1,0-0.1,0.1L78,63.4c0,0,0,0.1,0,0.1l2.9,2.9c0.1,0.1,0.2,0,0.2-0.1l0.4-2.4
				C81.5,63.9,81.5,63.8,81.4,63.8z"/>
			<path class="st1" d="M83.9,64.9l-2-0.9c-0.1,0-0.1,0-0.1,0.1l-0.3,2.6c0,0,0,0.1,0,0.1l1.7,1.6c0.1,0.1,0.2,0,0.2-0.1l0.6-3.3
				C84,65,84,65,83.9,64.9z"/>
			<path class="st1" d="M83.7,68.9l1.6,1.5c0.1,0.1,0.2,0,0.2-0.1l0.8-4.3c0,0,0-0.1-0.1-0.1l-1.7-0.8c-0.1,0-0.1,0-0.1,0.1
				L83.7,68.9C83.7,68.9,83.7,68.9,83.7,68.9z"/>
		</g>
		<g>
			<path class="st1" d="M82.2,62l-2.9-1.3c-0.1,0-0.1-0.1-0.1-0.1l0.4-0.8c0,0,0.1-0.1,0.1-0.1l4.1,0.3c0.1,0,0.1,0.1,0.1,0.2
				L82.3,62C82.3,62.1,82.2,62.1,82.2,62z"/>
			<path class="st1" d="M84.7,63.2l-2-0.9c-0.1,0-0.1-0.1,0-0.2l1.7-2c0,0,0.1,0,0.1,0l2.4,0.2c0.1,0,0.1,0.1,0.1,0.2l-2.1,2.6
				C84.8,63.2,84.7,63.2,84.7,63.2z"/>
			<path class="st1" d="M87.5,60.4l2.2,0.1c0.1,0,0.1,0.1,0.1,0.2l-2.7,3.5c0,0-0.1,0-0.1,0l-1.8-0.8c-0.1,0-0.1-0.1,0-0.2
				L87.5,60.4C87.4,60.4,87.5,60.4,87.5,60.4z"/>
		</g>
	</g>
</g>
</svg>
