<?xml version="1.0" encoding="utf-8"?>
<!-- Generator: Adobe Illustrator 24.0.1, SVG Export Plug-In . SVG Version: 6.00 Build 0)  -->
<svg version="1.1" id="Layer_1" xmlns="http://www.w3.org/2000/svg" xmlns:xlink="http://www.w3.org/1999/xlink" x="0px" y="0px"
	 viewBox="0 0 100 100" style="enable-background:new 0 0 100 100;" xml:space="preserve">
<style type="text/css">
	.st0{fill:url(#SVGID_1_);}
	.st1{fill:url(#SVGID_2_);}
	.st2{fill:url(#SVGID_3_);}
	.st3{fill:url(#SVGID_4_);}
	.st4{fill:url(#SVGID_5_);}
	.st5{fill:url(#SVGID_6_);}
	.st6{fill:url(#SVGID_7_);}
	.st7{fill:url(#SVGID_8_);}
	.st8{fill:url(#SVGID_9_);}
</style>
<g>
	<g>
		<linearGradient id="SVGID_1_" gradientUnits="userSpaceOnUse" x1="23.7291" y1="45.0371" x2="76.845" y2="45.0371">
			<stop  offset="0" style="stop-color:#A11CF9"/>
			<stop  offset="1" style="stop-color:#7201C8"/>
		</linearGradient>
		<path class="st0" d="M55.2,18.9c-14.4-2.7-28.3,6.8-31,21.2c-2.7,14.4,6.8,28.3,21.2,31c14.4,2.7,28.3-6.8,31-21.2
			C79.1,35.5,69.6,21.6,55.2,18.9z M70,48.7c-2,10.9-12.6,18.1-23.4,16.1c-10.9-2-18.1-12.6-16.1-23.4c2-10.9,12.6-18.1,23.4-16.1
			C64.9,27.3,72.1,37.8,70,48.7z"/>
		<linearGradient id="SVGID_2_" gradientUnits="userSpaceOnUse" x1="32.3147" y1="45.037" x2="68.2594" y2="45.037">
			<stop  offset="0" style="stop-color:#A11CF9"/>
			<stop  offset="1" style="stop-color:#7201C8"/>
		</linearGradient>
		<path class="st1" d="M53.6,27.4c-9.7-1.8-19.1,4.6-21,14.4c-1.8,9.7,4.6,19.1,14.4,21c9.7,1.8,19.1-4.6,21-14.4
			S63.3,29.2,53.6,27.4z M60.7,47c-1.1,5.8-6.6,9.6-12.4,8.5c-5.8-1.1-9.6-6.6-8.5-12.4s6.6-9.6,12.4-8.5C58,35.7,61.8,41.2,60.7,47
			z"/>
	</g>
	<g>
		<linearGradient id="SVGID_3_" gradientUnits="userSpaceOnUse" x1="52.9204" y1="53.6624" x2="85.3272" y2="53.6624">
			<stop  offset="0" style="stop-color:#A11CF9"/>
			<stop  offset="1" style="stop-color:#7201C8"/>
		</linearGradient>
		<path class="st2" d="M85.2,60.3L53.5,46c-0.1,0-0.2,0-0.2,0.1l-0.3,0.7c0,0.1,0,0.2,0.1,0.2l31.7,14.3c0.1,0,0.2,0,0.2-0.1
			l0.3-0.7C85.4,60.5,85.3,60.4,85.2,60.3z"/>
		<g>
			<linearGradient id="SVGID_4_" gradientUnits="userSpaceOnUse" x1="77.0402" y1="60.2771" x2="80.2898" y2="60.2771">
				<stop  offset="0" style="stop-color:#A11CF9"/>
				<stop  offset="1" style="stop-color:#7201C8"/>
			</linearGradient>
			<path class="st3" d="M80.2,59.7l-2.7-1.2c0,0-0.1,0-0.1,0L77,59.3c0,0,0,0.1,0,0.1l2.7,2.7c0.1,0.1,0.1,0,0.2-0.1L80.2,59.7
				C80.3,59.7,80.3,59.7,80.2,59.7z"/>
			<linearGradient id="SVGID_5_" gradientUnits="userSpaceOnUse" x1="80.2457" y1="61.9445" x2="82.6127" y2="61.9445">
				<stop  offset="0" style="stop-color:#A11CF9"/>
				<stop  offset="1" style="stop-color:#7201C8"/>
			</linearGradient>
			<path class="st4" d="M82.6,60.7l-1.9-0.8c-0.1,0-0.1,0-0.1,0.1l-0.3,2.4c0,0,0,0.1,0,0.1l1.6,1.5c0.1,0.1,0.1,0,0.2-0.1l0.6-3.1
				C82.6,60.8,82.6,60.8,82.6,60.7z"/>
			<linearGradient id="SVGID_6_" gradientUnits="userSpaceOnUse" x1="82.3148" y1="63.4275" x2="84.7099" y2="63.4275">
				<stop  offset="0" style="stop-color:#A11CF9"/>
				<stop  offset="1" style="stop-color:#7201C8"/>
			</linearGradient>
			<path class="st5" d="M82.3,64.4l1.4,1.4c0.1,0.1,0.1,0,0.2,0l0.8-4c0,0,0-0.1-0.1-0.1L83,61c-0.1,0-0.1,0-0.1,0.1L82.3,64.4
				C82.3,64.4,82.3,64.4,82.3,64.4z"/>
		</g>
		<g>
			<linearGradient id="SVGID_7_" gradientUnits="userSpaceOnUse" x1="78.1589" y1="56.9567" x2="82.5047" y2="56.9567">
				<stop  offset="0" style="stop-color:#A11CF9"/>
				<stop  offset="1" style="stop-color:#7201C8"/>
			</linearGradient>
			<path class="st6" d="M80.9,58l-2.7-1.2c0,0-0.1-0.1,0-0.1l0.4-0.8c0,0,0.1-0.1,0.1-0.1l3.8,0.3c0.1,0,0.1,0.1,0.1,0.2L81,58
				C81,58.1,81,58.1,80.9,58z"/>
			<linearGradient id="SVGID_8_" gradientUnits="userSpaceOnUse" x1="81.3226" y1="57.6714" x2="85.3199" y2="57.6714">
				<stop  offset="0" style="stop-color:#A11CF9"/>
				<stop  offset="1" style="stop-color:#7201C8"/>
			</linearGradient>
			<path class="st7" d="M83.2,59.1l-1.9-0.8c-0.1,0-0.1-0.1,0-0.1l1.6-1.8c0,0,0,0,0.1,0l2.2,0.2c0.1,0,0.1,0.1,0.1,0.2l-1.9,2.5
				C83.3,59.1,83.3,59.1,83.2,59.1z"/>
			<linearGradient id="SVGID_9_" gradientUnits="userSpaceOnUse" x1="83.6629" y1="58.2559" x2="88" y2="58.2559">
				<stop  offset="0" style="stop-color:#A11CF9"/>
				<stop  offset="1" style="stop-color:#7201C8"/>
			</linearGradient>
			<path class="st8" d="M85.9,56.5l2,0.1c0.1,0,0.1,0.1,0.1,0.2L85.5,60c0,0-0.1,0-0.1,0l-1.7-0.7c-0.1,0-0.1-0.1,0-0.1L85.9,56.5
				C85.8,56.5,85.8,56.5,85.9,56.5z"/>
		</g>
	</g>
</g>
</svg>
