<?xml version="1.0" encoding="utf-8"?>
<!-- Generator: Adobe Illustrator 24.0.1, SVG Export Plug-In . SVG Version: 6.00 Build 0)  -->
<svg version="1.1" xmlns="http://www.w3.org/2000/svg" xmlns:xlink="http://www.w3.org/1999/xlink" x="0px" y="0px"
	 viewBox="0 0 841.9 595.3" style="enable-background:new 0 0 841.9 595.3;" xml:space="preserve">
<style type="text/css">
	.st0{display:none;}
	.st1{display:inline;fill:#D2D49E;}
	.st2{display:inline;fill:#B2906B;}
	.st3{display:inline;fill:url(#SVGID_1_);}
	.st4{display:inline;fill:url(#SVGID_2_);}
	.st5{display:inline;fill:url(#SVGID_3_);}
	.st6{fill:url(#SVGID_4_);}
</style>
<g id="Layer_1" class="st0">
</g>
<g id="Layer_2" class="st0">
	
		<rect x="189.9" y="273.3" transform="matrix(0.7598 -0.6501 0.6501 0.7598 -79.4865 342.1126)" class="st1" width="466.7" height="10.8"/>
	<polygon class="st2" points="246.7,431.1 351.7,337 592,131.1 599.5,129.7 596,136.7 362.1,336.7 251,434.6 249.3,434.3 	"/>
</g>
<g id="Layer_3" class="st0">
	
		<linearGradient id="SVGID_1_" gradientUnits="userSpaceOnUse" x1="5754.9453" y1="-534.685" x2="5645.8018" y2="-532.7133" gradientTransform="matrix(-0.6501 -0.7598 0.7598 -0.6501 4379.9702 4363.3711)">
		<stop  offset="0.1785" style="stop-color:#FFFFFF"/>
		<stop  offset="0.4547" style="stop-color:#EF1D38"/>
		<stop  offset="0.4662" style="stop-color:#EB1D38"/>
		<stop  offset="0.5712" style="stop-color:#C71D34"/>
		<stop  offset="0.6773" style="stop-color:#AC1D31"/>
		<stop  offset="0.7839" style="stop-color:#981D30"/>
		<stop  offset="0.8911" style="stop-color:#8C1D2E"/>
		<stop  offset="1" style="stop-color:#881D2E"/>
	</linearGradient>
	<path class="st3" d="M242.2,426.6l-63.4-1.8l107-85.5c0,0,44.3-18.6,69.9-8.3L242.2,426.6z"/>
</g>
<g id="Layer_4" class="st0">
	
		<linearGradient id="SVGID_2_" gradientUnits="userSpaceOnUse" x1="-1418.8197" y1="-534.3265" x2="-1527.9633" y2="-532.3547" gradientTransform="matrix(0.6501 0.7598 0.7598 -0.6501 1663.5065 1188.7095)">
		<stop  offset="0.1785" style="stop-color:#FFFFFF"/>
		<stop  offset="0.4547" style="stop-color:#EF1D38"/>
		<stop  offset="0.4662" style="stop-color:#EB1D38"/>
		<stop  offset="0.5712" style="stop-color:#C71D34"/>
		<stop  offset="0.6773" style="stop-color:#AC1D31"/>
		<stop  offset="0.7839" style="stop-color:#981D30"/>
		<stop  offset="0.8911" style="stop-color:#8C1D2E"/>
		<stop  offset="1" style="stop-color:#881D2E"/>
	</linearGradient>
	<path class="st4" d="M249.5,434.5l-8,63L342.5,405c0,0,25.3-40.9,19-67.8L249.5,434.5z"/>
</g>
<g id="Layer_5" class="st0">
	
		<linearGradient id="SVGID_3_" gradientUnits="userSpaceOnUse" x1="5712.8184" y1="-548.1467" x2="5657.3979" y2="-547.1454" gradientTransform="matrix(-0.6501 -0.7598 0.7598 -0.6501 4379.9702 4363.3711)">
		<stop  offset="0.1785" style="stop-color:#FFFFFF"/>
		<stop  offset="0.4547" style="stop-color:#EF1D38"/>
		<stop  offset="0.4662" style="stop-color:#EB1D38"/>
		<stop  offset="0.5712" style="stop-color:#C71D34"/>
		<stop  offset="0.6773" style="stop-color:#AC1D31"/>
		<stop  offset="0.7839" style="stop-color:#981D30"/>
		<stop  offset="0.8911" style="stop-color:#8C1D2E"/>
		<stop  offset="1" style="stop-color:#881D2E"/>
	</linearGradient>
	<polygon class="st5" points="358.4,334.1 246,430.4 175.8,464.1 297,367 345.6,337.3 	"/>
</g>
<g id="Layer_6">
	
		<linearGradient id="SVGID_4_" gradientUnits="userSpaceOnUse" x1="5489.1436" y1="-48.5606" x2="5489.1436" y2="239.5257" gradientTransform="matrix(1 -3.819986e-03 3.819986e-03 1 -5055.4683 223.2946)">
		<stop  offset="0" style="stop-color:#E30613"/>
		<stop  offset="2.460774e-02" style="stop-color:#E40917"/>
		<stop  offset="0.1606" style="stop-color:#EA1429"/>
		<stop  offset="0.303" style="stop-color:#EE1B34"/>
		<stop  offset="0.4609" style="stop-color:#EF1D38"/>
		<stop  offset="0.5538" style="stop-color:#DE1D35"/>
		<stop  offset="0.7008" style="stop-color:#CB1D31"/>
		<stop  offset="0.8492" style="stop-color:#BF1D2F"/>
		<stop  offset="1" style="stop-color:#BB1D2E"/>
	</linearGradient>
	<path class="st6" d="M593.4,200c-24.5-36.5-79.8-88.4-159.7,10.8c-80.7-98.6-135.6-46.2-159.8-9.6c-12.1,18.4-17.1,40.7-12.6,62.3
		c20.9,101.2,173.3,178.3,173.3,178.3s151.8-78.3,171.9-179.7C610.8,240.6,605.7,218.3,593.4,200z"/>
</g>
</svg>
