<?xml version="1.0" encoding="utf-8"?>
<!-- Generator: Adobe Illustrator 24.0.1, SVG Export Plug-In . SVG Version: 6.00 Build 0)  -->
<svg version="1.1" id="Layer_1" xmlns="http://www.w3.org/2000/svg" xmlns:xlink="http://www.w3.org/1999/xlink" x="0px" y="0px"
	 viewBox="0 0 100 100" style="enable-background:new 0 0 100 100;" xml:space="preserve">
<style type="text/css">
	.st0{fill:#FFFFFF;}
</style>
<path class="st0" d="M75.3,41.3h-4.1c-1.2,0-2.2,1-2.2,2.2v24.3c0,1.4-1.1,2.5-2.5,2.5h-8.3c-1.4,0-2.5-1.1-2.5-2.5V55.1
	c0-1.4-1.1-2.5-2.5-2.5h-7.8c-1.4,0-2.5,1.1-2.5,2.5v12.7c0,1.4-1.1,2.5-2.5,2.5H32c-1.4,0-2.5-1.1-2.5-2.5V43.5
	c0-1.2-1-2.2-2.2-2.2h-4.1c-0.9,0-1.2-1.1-0.5-1.6l25.4-17.2c0.7-0.5,1.6-0.5,2.3,0l25.4,17.2C76.5,40.2,76.1,41.3,75.3,41.3z"/>
</svg>
