<?xml version="1.0" encoding="utf-8"?>
<!-- Generator: Adobe Illustrator 24.0.1, SVG Export Plug-In . SVG Version: 6.00 Build 0)  -->
<svg version="1.1" id="Layer_1" xmlns="http://www.w3.org/2000/svg" xmlns:xlink="http://www.w3.org/1999/xlink" x="0px" y="0px"
	 viewBox="0 0 100 100" style="enable-background:new 0 0 100 100;" xml:space="preserve">
<style type="text/css">
	.st0{fill:url(#SVGID_1_);}
</style>
<linearGradient id="SVGID_1_" gradientUnits="userSpaceOnUse" x1="17.6044" y1="44.6665" x2="77.5882" y2="44.6665">
	<stop  offset="0" style="stop-color:#A11CF9"/>
	<stop  offset="1" style="stop-color:#7201C8"/>
</linearGradient>
<path class="st0" d="M76.6,39.2h-4.5c-1.4,0-2.5,1.1-2.5,2.5v27c0,1.6-1.3,2.8-2.8,2.8h-9.3c-1.5,0-2.8-1.2-2.8-2.8V54.6
	c0-1.5-1.2-2.8-2.8-2.8h-8.7c-1.5,0-2.8,1.2-2.8,2.8v14.1c0,1.5-1.2,2.8-2.8,2.8h-9.3c-1.6,0-2.8-1.3-2.8-2.8v-27
	c0-1.4-1.1-2.5-2.5-2.5h-4.5c-1,0-1.4-1.3-0.5-1.8l28.3-19.1c0.8-0.5,1.7-0.5,2.5,0l28.3,19.1C78,37.9,77.6,39.2,76.6,39.2z"/>
</svg>
