<?xml version="1.0" encoding="utf-8"?>
<!-- Generator: Adobe Illustrator 24.0.1, SVG Export Plug-In . SVG Version: 6.00 Build 0)  -->
<svg version="1.1" xmlns="http://www.w3.org/2000/svg" xmlns:xlink="http://www.w3.org/1999/xlink" x="0px" y="0px"
	 viewBox="0 0 841.9 595.3" style="enable-background:new 0 0 841.9 595.3;" xml:space="preserve">
<style type="text/css">
	.st0{fill:#BD0C1D;}
	.st1{fill:url(#SVGID_1_);}
	.st2{opacity:0.44;fill:url(#SVGID_2_);}
	.st3{fill:#FF6543;}
	.st4{fill:url(#SVGID_3_);}
	.st5{fill:url(#SVGID_4_);}
	.st6{fill:url(#SVGID_5_);}
	.st7{fill:url(#SVGID_6_);}
	.st8{opacity:0.8;fill:url(#SVGID_7_);}
	.st9{fill:url(#SVGID_8_);}
	.st10{fill:#FFFFFF;}
	.st11{opacity:0.3;}
	.st12{opacity:0.8;fill:url(#SVGID_9_);}
	.st13{fill:#FFDA00;}
	.st14{fill:url(#SVGID_10_);}
	.st15{fill:url(#SVGID_11_);}
	.st16{fill:url(#SVGID_12_);}
	.st17{fill:url(#SVGID_13_);}
	.st18{fill:url(#SVGID_14_);}
	.st19{fill:url(#SVGID_15_);}
	.st20{fill:url(#SVGID_16_);}
	.st21{fill:url(#SVGID_17_);}
	.st22{fill:url(#SVGID_18_);}
</style>
<g id="Layer_3">
	<g>
		<path class="st0" d="M422.3,85c0,0,61.8,11.2,64.3,44.2c2.8-39.5-64.6-47.8-64.6-47.8L422.3,85z"/>
		
			<linearGradient id="SVGID_1_" gradientUnits="userSpaceOnUse" x1="374.4733" y1="65.3775" x2="535.2155" y2="65.3775" gradientTransform="matrix(1 -2.945555e-03 2.945555e-03 1 -48.3849 295.6781)">
			<stop  offset="6.424590e-02" style="stop-color:#E00000"/>
			<stop  offset="0.7514" style="stop-color:#6D001B"/>
			<stop  offset="1" style="stop-color:#E2131D"/>
		</linearGradient>
		<path class="st1" d="M326.7,506.2l18.2-293.9l124.2-3.9l18.3,299C487.5,507.4,395.2,515.8,326.7,506.2z"/>
		
			<linearGradient id="SVGID_2_" gradientUnits="userSpaceOnUse" x1="381.7783" y1="61.7183" x2="546.4984" y2="75.1681" gradientTransform="matrix(1 -2.945555e-03 2.945555e-03 1 -48.3849 295.6781)">
			<stop  offset="5.586590e-03" style="stop-color:#FFCE00"/>
			<stop  offset="7.594101e-03" style="stop-color:#FACA00"/>
			<stop  offset="2.923657e-02" style="stop-color:#CBA400"/>
			<stop  offset="5.289082e-02" style="stop-color:#A08200"/>
			<stop  offset="7.879820e-02" style="stop-color:#7A6200"/>
			<stop  offset="0.1068" style="stop-color:#594800"/>
			<stop  offset="0.1376" style="stop-color:#3D3100"/>
			<stop  offset="0.1722" style="stop-color:#261F00"/>
			<stop  offset="0.2122" style="stop-color:#151100"/>
			<stop  offset="0.261" style="stop-color:#090700"/>
			<stop  offset="0.3281" style="stop-color:#020200"/>
			<stop  offset="0.4991" style="stop-color:#000000"/>
		</linearGradient>
		<path class="st2" d="M326.7,506.2l18.2-293.9l108.7,2.2l33.8,292.9C487.5,507.4,395.2,515.8,326.7,506.2z"/>
		<path class="st3" d="M344.9,212.3c0,0,73.3-11.9,124.2-3.9C469.1,208.4,441.7,228.9,344.9,212.3z"/>
		
			<radialGradient id="SVGID_3_" cx="446.1257" cy="-122.3967" r="48.2979" gradientTransform="matrix(0.9527 -2.877658e-03 2.945555e-03 1 -19.1114 295.0177)" gradientUnits="userSpaceOnUse">
			<stop  offset="6.424590e-02" style="stop-color:#F24916"/>
			<stop  offset="0.4581" style="stop-color:#F14716"/>
			<stop  offset="0.6544" style="stop-color:#EF3F17"/>
			<stop  offset="0.8069" style="stop-color:#EB3219"/>
			<stop  offset="0.9362" style="stop-color:#E61F1B"/>
			<stop  offset="1" style="stop-color:#E2131D"/>
		</radialGradient>
		<path class="st4" d="M361,210.4c0,0,54.8,7.8,92.6-2l-1.8-39.4l-89,0.3L361,210.4z"/>
		
			<linearGradient id="SVGID_4_" gradientUnits="userSpaceOnUse" x1="399.2102" y1="-102.4327" x2="496.4462" y2="-102.4327" gradientTransform="matrix(0.9527 -2.877658e-03 2.945555e-03 1 -19.1114 295.0177)">
			<stop  offset="6.424590e-02" style="stop-color:#E00000"/>
			<stop  offset="0.7514" style="stop-color:#6D001B"/>
			<stop  offset="1" style="stop-color:#E2131D"/>
		</linearGradient>
		<path class="st5" d="M361,210.4c0,0,54.8,7.8,92.6-2l-1.8-39.4l-89,0.3L361,210.4z"/>
		<path class="st3" d="M362.8,169.3c0,0,58.3-4.1,89-0.3C451.8,169,423.4,179.9,362.8,169.3z"/>
		
			<linearGradient id="SVGID_5_" gradientUnits="userSpaceOnUse" x1="441.3924" y1="-172.4857" x2="472.0316" y2="-172.4857" gradientTransform="matrix(1 -2.945555e-03 2.945555e-03 1 -48.3849 295.6781)">
			<stop  offset="6.424590e-02" style="stop-color:#FF0400"/>
			<stop  offset="0.7514" style="stop-color:#6D001B"/>
			<stop  offset="1" style="stop-color:#E2131D"/>
		</linearGradient>
		<polygon class="st6" points="392.6,170.3 403.6,73.5 413.5,73.4 423.3,170.2 		"/>
		
			<linearGradient id="SVGID_6_" gradientUnits="userSpaceOnUse" x1="441.3891" y1="-212.8187" x2="472.3399" y2="-212.8187" gradientTransform="matrix(1 -2.945555e-03 2.945555e-03 1 -48.3849 295.6781)">
			<stop  offset="6.424590e-02" style="stop-color:#E00000"/>
			<stop  offset="0.7514" style="stop-color:#6D001B"/>
			<stop  offset="1" style="stop-color:#E2131D"/>
		</linearGradient>
		<path class="st7" d="M392.4,102.5c0,0,18.3-3.7,30.9-2.4l-2.7-36.6c0,0-10.5-6.4-25.3,0.1L392.4,102.5z"/>
		<path class="st0" d="M392.4,102.5l7.7,1.6l0.2-1.6c0,0,7.3-3.3,16-1.3l0.3,2.8l6.8-3.9C423.4,100.1,409.6,97.2,392.4,102.5z"/>
		
			<linearGradient id="SVGID_7_" gradientUnits="userSpaceOnUse" x1="457.3556" y1="-186.8127" x2="457.3556" y2="-193.7897" gradientTransform="matrix(1 -2.945555e-03 2.945555e-03 1 -48.3849 295.6781)">
			<stop  offset="0" style="stop-color:#F5AEB8"/>
			<stop  offset="0.9944" style="stop-color:#8D3457"/>
		</linearGradient>
		<path class="st8" d="M399.9,106.1c0,0,10.3-1.8,17,1.4l-0.6-6.3c0,0-8.1-2-16,1.3L399.9,106.1z"/>
		
			<radialGradient id="SVGID_8_" cx="503.3226" cy="-212.0345" r="54.3373" gradientTransform="matrix(1 -2.384577e-03 4.944420e-03 2.0735 -47.9618 523.0128)" gradientUnits="userSpaceOnUse">
			<stop  offset="6.424590e-02" style="stop-color:#F24916"/>
			<stop  offset="1" style="stop-color:#E2131D"/>
		</radialGradient>
		<path class="st9" d="M452.5,184.6c0,0,31.6-22.3,34.1-55.3c2.5-33.1-64.6-47.8-64.6-47.8l-0.4-5.1c0,0,68.6,18,67.8,52.9
			c-0.8,34.8-36.4,67.3-36.4,67.3L452.5,184.6z"/>
		<polygon class="st10" points="361,210.4 361,214.8 344.9,212.3 		"/>
		<path class="st10" d="M453.6,206.6l0,7.9c0,0,8.4-1.8,15.5-6.1L453.6,206.6z"/>
		<g class="st11">
			<g>
				
					<rect x="350.7" y="190" transform="matrix(4.902612e-02 -0.9988 0.9988 4.902612e-02 161.9218 552.3782)" class="st0" width="40.8" height="2.3"/>
			</g>
			<g>
				
					<rect x="345.1" y="190" transform="matrix(4.907657e-02 -0.9988 0.9988 4.907657e-02 156.5718 546.8016)" class="st0" width="40.8" height="2.3"/>
			</g>
			<g>
				
					<rect x="359.4" y="191" transform="matrix(6.648517e-02 -0.9978 0.9978 6.648517e-02 162.6629 558.1025)" class="st0" width="40.4" height="2.3"/>
			</g>
			<g>
				
					<rect x="387.4" y="172.6" transform="matrix(1 -2.499050e-03 2.499050e-03 1 -0.4805 0.9716)" class="st0" width="2.3" height="40.4"/>
			</g>
			<g>
				
					<rect x="378.6" y="192.3" transform="matrix(5.166506e-02 -0.9987 0.9987 5.166506e-02 184.2952 580.9662)" class="st0" width="39" height="2.3"/>
			</g>
			<g>
				
					<rect x="406.4" y="173.9" transform="matrix(0.9996 -2.981473e-02 2.981473e-02 0.9996 -5.5935 12.2355)" class="st0" width="2.3" height="39.5"/>
			</g>
			<g>
				
					<rect x="414.5" y="173.9" transform="matrix(0.9965 -8.402755e-02 8.402755e-02 0.9965 -14.7803 35.6062)" class="st0" width="2.3" height="39.1"/>
			</g>
			<g>
				
					<rect x="424.2" y="173.8" transform="matrix(0.9961 -8.835201e-02 8.835201e-02 0.9961 -15.4136 38.3327)" class="st0" width="2.3" height="38.9"/>
			</g>
			<g>
				
					<rect x="432.3" y="172.9" transform="matrix(0.9982 -5.934128e-02 5.934128e-02 0.9982 -10.6542 26.0604)" class="st0" width="2.3" height="39.1"/>
			</g>
			<g>
				
					<rect x="440.4" y="171.6" transform="matrix(1 -2.499050e-03 2.499050e-03 1 -0.4766 1.104)" class="st0" width="2.3" height="39.4"/>
			</g>
			<g>
				
					<rect x="447.8" y="170.1" transform="matrix(0.9993 -3.840719e-02 3.840719e-02 0.9993 -6.9576 17.3812)" class="st0" width="2.3" height="39.3"/>
			</g>
		</g>
		<path class="st10" d="M385.8,217.6l47.8,0.2C433.5,217.8,407.1,222,385.8,217.6z"/>
		<path class="st10" d="M394.9,173.3l32,0.1C426.9,173.4,404.2,174.9,394.9,173.3z"/>
		<path class="st10" d="M407.1,60.5c0,0,6.7,5.9,11,1.8C418.1,62.3,413.2,60.3,407.1,60.5z"/>
		
			<linearGradient id="SVGID_9_" gradientUnits="userSpaceOnUse" x1="374.4733" y1="214.1784" x2="535.2155" y2="214.1784" gradientTransform="matrix(1 -2.945555e-03 2.945555e-03 1 -48.3849 295.6781)">
			<stop  offset="0" style="stop-color:#F5AEB8"/>
			<stop  offset="0.9944" style="stop-color:#8D3457"/>
		</linearGradient>
		<path class="st12" d="M326.7,506.2l160.7,1.2C487.5,507.4,399.5,516.3,326.7,506.2z"/>
	</g>
</g>
<g id="Layer_4">
	<g>
		<path class="st13" d="M334.4,381.9l4.1-65.9l14.5,19.8l5.9,46.1l23.2,6.6l3.7-25l16.9,6.1l10.2,29.7l26.5-4.7l9.4-33.1h9.4
			l3.2,24.7l14.1-73.9l12,195.2c0,0-94.3,8.6-160.7-1.2L334.4,381.9z"/>
	</g>
</g>
<g id="Layer_5">
	<linearGradient id="SVGID_10_" gradientUnits="userSpaceOnUse" x1="347.8854" y1="322.2929" x2="347.8854" y2="469.2746">
		<stop  offset="0" style="stop-color:#A41622"/>
		<stop  offset="0.5638" style="stop-color:#66190A"/>
		<stop  offset="0.8539" style="stop-color:#4B1A00"/>
	</linearGradient>
	<polyline class="st14" points="337.4,322.3 350.1,337.6 354.7,386.6 367.5,395.8 367.5,446.6 328.3,469.3 337.4,322.3 	"/>
</g>
<g id="Layer_6">
	<linearGradient id="SVGID_11_" gradientUnits="userSpaceOnUse" x1="359.3457" y1="454.0097" x2="359.3457" y2="510.916">
		<stop  offset="0" style="stop-color:#811622"/>
		<stop  offset="0.1092" style="stop-color:#6C1815"/>
		<stop  offset="0.243" style="stop-color:#5A1909"/>
		<stop  offset="0.3829" style="stop-color:#4F1A02"/>
		<stop  offset="0.5373" style="stop-color:#4B1A00"/>
		<stop  offset="1" style="stop-color:#381A00"/>
	</linearGradient>
	<polygon class="st15" points="328.3,472.7 325.1,506.2 344.8,508.6 377.7,510.9 393.6,498.7 366.3,478.3 369.4,454 	"/>
</g>
<g id="Layer_7">
	<linearGradient id="SVGID_12_" gradientUnits="userSpaceOnUse" x1="437.8154" y1="432.1154" x2="437.8154" y2="511.4481">
		<stop  offset="0" style="stop-color:#811622"/>
		<stop  offset="0.1092" style="stop-color:#6C1815"/>
		<stop  offset="0.243" style="stop-color:#5A1909"/>
		<stop  offset="0.3829" style="stop-color:#4F1A02"/>
		<stop  offset="0.5373" style="stop-color:#4B1A00"/>
		<stop  offset="1" style="stop-color:#381A00"/>
	</linearGradient>
	<path class="st16" d="M387.2,510.8l14.1-12.4l30.4-14.1l10.4-49.9l16.3-2.3l13.5,16.4l13.1,8.6l3.5,50.6
		C488.5,507.7,427.3,513.3,387.2,510.8"/>
</g>
<g id="Layer_8">
	<linearGradient id="SVGID_13_" gradientUnits="userSpaceOnUse" x1="372.9021" y1="388.5622" x2="372.9021" y2="399.7055">
		<stop  offset="0" style="stop-color:#A41622"/>
		<stop  offset="0.5638" style="stop-color:#66190A"/>
		<stop  offset="0.8539" style="stop-color:#4B1A00"/>
	</linearGradient>
	<polygon class="st17" points="369.5,395.8 376.3,399.7 376.3,391.1 372,388.6 	"/>
</g>
<g id="Layer_9">
	<linearGradient id="SVGID_14_" gradientUnits="userSpaceOnUse" x1="473.576" y1="322.2929" x2="473.576" y2="451.1616">
		<stop  offset="0" style="stop-color:#A41622"/>
		<stop  offset="0.5638" style="stop-color:#66190A"/>
		<stop  offset="0.8539" style="stop-color:#4B1A00"/>
	</linearGradient>
	<polyline class="st18" points="476.1,322.3 463.1,392.6 484,451.2 476.1,322.3 	"/>
</g>
<g id="Layer_10">
	<linearGradient id="SVGID_15_" gradientUnits="userSpaceOnUse" x1="397.1114" y1="370.9055" x2="397.1114" y2="432.1154">
		<stop  offset="0" style="stop-color:#A41622"/>
		<stop  offset="0.5638" style="stop-color:#66190A"/>
		<stop  offset="0.8539" style="stop-color:#4B1A00"/>
	</linearGradient>
	<polygon class="st19" points="388,370.9 385,390.4 377.9,396.8 398.6,432.1 416.3,424.1 399.3,370.9 	"/>
</g>
<g id="Layer_11">
	<linearGradient id="SVGID_16_" gradientUnits="userSpaceOnUse" x1="405.3904" y1="430.5459" x2="405.3904" y2="496.8565">
		<stop  offset="0" style="stop-color:#811622"/>
		<stop  offset="0.1092" style="stop-color:#6C1815"/>
		<stop  offset="0.243" style="stop-color:#5A1909"/>
		<stop  offset="0.3829" style="stop-color:#4F1A02"/>
		<stop  offset="0.5373" style="stop-color:#4B1A00"/>
		<stop  offset="1" style="stop-color:#381A00"/>
	</linearGradient>
	<polygon class="st20" points="371.1,452.4 384.8,462 425.4,438.2 439.5,430.5 440.5,435.2 430,482.5 399.2,496.9 370.3,476.5 	"/>
</g>
<g id="Layer_12">
	<linearGradient id="SVGID_17_" gradientUnits="userSpaceOnUse" x1="447.688" y1="364.3922" x2="447.688" y2="448.2026">
		<stop  offset="0" style="stop-color:#A41622"/>
		<stop  offset="0.5638" style="stop-color:#66190A"/>
		<stop  offset="0.8539" style="stop-color:#4B1A00"/>
	</linearGradient>
	<polygon class="st21" points="414.4,402.7 419.9,422.6 442,428.3 442.8,430.5 458.4,429.8 472.6,443.8 481,448.2 461.3,394.1 
		456.6,364.4 450.8,364.4 441.3,397.8 	"/>
</g>
<g id="Layer_13">
	<linearGradient id="SVGID_18_" gradientUnits="userSpaceOnUse" x1="402.6438" y1="398.6069" x2="402.6438" y2="456.8347">
		<stop  offset="0" style="stop-color:#A41622"/>
		<stop  offset="0.5638" style="stop-color:#66190A"/>
		<stop  offset="0.8539" style="stop-color:#4B1A00"/>
	</linearGradient>
	<polygon class="st22" points="369.5,398.6 378.9,404.4 397.1,435.6 418.5,426.9 435.8,430.5 385.7,456.8 371.1,448.2 	"/>
</g>
<g id="Layer_14">
</g>
</svg>
