<?xml version="1.0" encoding="utf-8"?>
<!-- Generator: Adobe Illustrator 24.0.1, SVG Export Plug-In . SVG Version: 6.00 Build 0)  -->
<svg version="1.1" xmlns="http://www.w3.org/2000/svg" xmlns:xlink="http://www.w3.org/1999/xlink" x="0px" y="0px"
	 viewBox="0 0 1160 772" style="enable-background:new 0 0 1160 772;" xml:space="preserve">
<style type="text/css">
	.st0{fill:#8E1CF2;}
	.st1{fill:#252525;}
	.st2{fill:#797979;}
	.st3{fill:#FEFEFE;}
	.st4{fill:#5D7A7F;}
	.st5{opacity:0.18;}
	.st6{fill:#153E49;}
	.st7{fill:#F7D77F;}
</style>
<g id="Background">
</g>
<g id="object">
	<g>
		<g>
			<path class="st0" d="M540.5,493.5c-1.3,0-2.5,0-3.8,0c-9.6-0.9-19.1-1.8-28.5-4c-30.1-6.8-57-19.9-80.7-39.1
				c-16.7-13.5-30.7-29.5-42.4-47.3c-15.4-23.5-25-49.2-27.2-77.1c-2.6-32.9,0.1-65.2,13.7-96c9.5-21.5,22.2-40.7,38.7-57.7
				c15.2-15.6,32.4-28.5,51.9-38.4c21.3-10.8,44-18.1,68.1-20c22.4-1.8,44.8-1.6,66.9,3.5c30.1,6.9,57,19.9,80.7,39.2
				c20.2,16.4,36.6,36,48.8,58.7c10.4,19.5,17.1,40.2,20.1,61.9c0.5,3.8,0.1,7.6,0.9,11.4c0,1,0,2,0,3c-0.5,0.5-0.5,1,0,1.5
				c0,1.2,0,2.5,0,3.7c-0.6,1.5-0.6,3,0,4.5c0,5.7,0,11.4,0,17.1c-0.9,10.4-2.1,20.8-4.8,31c-4.9,18.9-12.5,36.6-22.8,53.2
				c-8.1,13.1-17.7,25.1-28.8,35.8c-12.7,12.4-26.9,23-42.6,31.6c-21.2,11.7-44,19.1-68.1,22.5c-4.5,0.6-9.1,0.2-13.5,1
				c-0.8,0-1.5,0-2.3,0c-0.5-0.5-1-0.5-1.5,0c-1.5,0-3,0-4.6,0c-1.3-0.6-2.5-0.6-3.8,0c-1.5,0-3,0-4.6,0c-1.5-0.6-3-0.6-4.6,0
				c-1.3,0-2.5,0-3.8,0C541.5,493,541,493,540.5,493.5z"/>
			<path class="st1" d="M596.3,277.9c-1.1-1.5-1.2-3,0-4.5C596.3,274.9,596.3,276.4,596.3,277.9z"/>
			<path class="st2" d="M596.3,269.7c-0.9-0.5-1.1-1,0-1.5C596.3,268.7,596.3,269.2,596.3,269.7z"/>
			<path class="st3" d="M627.7,453.3c38-26.4,61.9-61.6,69.1-106.7c6.5-40.8-2.5-78.8-27.4-112.4c-23.6-31.9-55.6-52-95.5-58.9
				c-38.8-6.7-74.9,0.7-107.5,22.6c-29.1,19.5-48.1,46.2-56.2,79.6c-12,50,5.3,101,48.9,132.6c26.3,19.1,56.2,26.9,88.9,22.6
				c42.6-5.6,73.4-27.7,92-65.3c9.1-18.4,11.7-38.2,8.9-58.5c-4.1-29.3-18.5-52.7-42.9-70.2c-14.3-10.3-30.6-15.7-48.1-17.6
				c-21.1-2.2-40.9,2-59,12.8c-20.9,12.5-35,30.2-40.7,53.6c-6.9,28.5-0.8,54.1,20.1,75.7c14.4,15,32.4,22.7,53.4,23.1
				c30.1,0.5,58.4-17.1,66.7-45.9c5.8-20,4-39.5-11-56c-18-19.8-49.2-21.3-68.8-3.5c-23.7,21.6-15.6,60.4,14.6,69.5
				c3.9,1.2,7.9,2,12,1.4c6-0.8,10-5.5,9.9-11.2c-0.1-5.5-4.3-10.4-10.2-10.6c-14.9-0.4-22.2-17.5-13.5-29.5
				c7.9-10.9,24.2-13,35.4-4.5c9.2,7,11.5,16.6,11.5,27.3c0,21.4-18.7,37.9-38.9,40.3c-21.6,2.6-42.2-7.8-53.2-26.7
				c-14.3-24.5-8.5-55.9,13-75.5c14.2-12.9,31.1-19.1,50.2-18.6c25.1,0.7,45.7,11.1,61,30.8c12.5,16.2,17.6,34.6,16.4,54.9
				c-2.3,38.1-31,70.9-70.4,80.1c-36.1,8.4-67.8-0.6-94.5-25.6c-22.4-21-32.8-47.2-32.3-77.3c0.7-48.4,33.9-90.2,80.7-104.5
				c42.5-13,81.7-5.4,116.7,21.4c22.3,17,36.8,39.3,44.3,65.8c4.6,16.2,5.7,32.8,3.8,49.6c-6.9,58.7-53,106.8-113.5,118.4
				c-38.1,7.3-74,0.9-107-18.7c-34.2-20.3-56.1-50.2-67-87.6c-14.6-49.9-5.4-95.8,26.1-137.4c23.2-30.6,54.3-50.2,91.7-59.8
				c36.8-9.4,73.2-6.7,108.4,7.3c42.3,16.8,73.2,45.9,93.1,85.8c10.4,20.8,16.7,43,17.4,66.2c0.4,12.5-2.4,24.8-6.1,36.8
				c-14,46-42.9,80.3-86.2,103.1C630.6,453,629.3,454,627.7,453.3z"/>
		</g>
		<g>
			<polygon class="st4" points="647.3,583.6 624.8,591.3 594.1,498.1 616.6,490.5 			"/>
			<path class="st5" d="M594.6,499.5l36,33.1l-13.4-40.7C617.1,491.9,604.9,497.4,594.6,499.5z"/>
		</g>
		<path class="st6" d="M668.5,675l-9.7,3.3c-6.4,2.2-13.3-1.3-15.4-7.7l-31.5-95.5c-0.3-1.1,0.2-2.2,1.3-2.6l29.1-9.9
			c1.1-0.4,2.2,0.2,2.5,1.3l31.5,95.5C678.4,665.8,674.9,672.8,668.5,675z"/>
		<polygon class="st7" points="651,580.2 618,591.3 616.7,587.4 649.7,576.2 		"/>
		<polygon class="st7" points="653.9,589.7 620.9,600.9 619.6,596.9 652.6,585.8 		"/>
		<g>
			<path class="st6" d="M609,499.8C504,535.3,390.4,478.9,355.9,374c-34.6-104.9,22.8-219.1,127.8-254.7
				c105-35.5,218.6,20.9,253.2,125.8C771.4,350,714.1,464.3,609,499.8z M489.4,136.7C393.9,169,341.8,272.8,373.2,368.1
				c31.4,95.3,134.6,146.6,230.1,114.3S750.9,346.3,719.5,251C688.1,155.7,584.8,104.4,489.4,136.7z"/>
		</g>
	</g>
	<path class="st1" d="M737,864.6c1-0.8,2-0.7,3,0C739,864.6,738,864.6,737,864.6z"/>
	<path class="st1" d="M743.1,864.6c0.8-0.7,1.7-0.8,2.5,0C744.8,864.6,743.9,864.6,743.1,864.6z"/>
	<path class="st2" d="M733.5,864.6c0.3-0.8,0.7-0.6,1,0C734.1,864.6,733.8,864.6,733.5,864.6z"/>
	<path class="st2" d="M748.7,864.6c0.3-0.6,0.7-0.8,1,0C749.3,864.6,749,864.6,748.7,864.6z"/>
</g>
</svg>
