<?xml version="1.0" encoding="utf-8"?>
<!-- Generator: Adobe Illustrator 24.0.1, SVG Export Plug-In . SVG Version: 6.00 Build 0)  -->
<svg version="1.1" xmlns="http://www.w3.org/2000/svg" xmlns:xlink="http://www.w3.org/1999/xlink" x="0px" y="0px"
	 viewBox="0 0 1160 772" style="enable-background:new 0 0 1160 772;" xml:space="preserve">
<style type="text/css">
	.st0{fill:url(#SVGID_1_);stroke:#FFFFFF;stroke-width:4.9935;stroke-miterlimit:10;}
</style>
<g id="Background">
</g>
<g id="object">
	<linearGradient id="SVGID_1_" gradientUnits="userSpaceOnUse" x1="390.0475" y1="198.745" x2="710.2169" y2="518.9145">
		<stop  offset="8.616709e-02" style="stop-color:#1CA3F9"/>
		<stop  offset="0.125" style="stop-color:#1CA7F9"/>
		<stop  offset="0.5361" style="stop-color:#18C9FD"/>
		<stop  offset="0.7585" style="stop-color:#16D6FF"/>
	</linearGradient>
	<path class="st0" d="M752.3,241c4.2,5.8,2.5,14.6-4.3,18.5l-21.3,12.3l16.2,2.3c7.1,1,12.1,7.6,11.1,14.7c-0.1,0.7-0.3,1.5-0.5,2.2
		c-0.3,0.9-0.6,1.5-0.9,2.1c-0.5,0.9-0.8,1.4-1.3,1.9c-0.6,0.8-1.1,1.2-1.6,1.7c-0.8,0.7-1.3,1-1.9,1.4c-0.8,0.3-1.5,0.8-2.1,1
		c-0.8,0.2-1.6,0.5-2.3,0.7c-0.6,0-1.6,0.1-2.2,0.2c-0.6-0.1-1.1,0-1.6-0.1l-49.6-6.9l-14.8,8.5l59.3,8.3c7.6,1.2,11,6.7,11,12.4
		c0.1,3.7-1.2,7.3-3.7,9.9c-1.3,1.3-2.8,2.3-4.7,3c-0.5,0.2-1.1,0.3-1.7,0.4c-1,0.1-1.5,0.2-2,0.2c-1,0-1.6,0-2.2-0.1l-92.7-13
		l-9.9,5.7l11.8,1.7c7.2,1,12.1,7.6,11.1,14.7c-0.6,4.3-3.4,8.3-7.7,10.1c-2.6,0.5-3.1,0.6-3.5,0.6c-0.9,0-1.5,0.1-2.1,0.1
		c-0.7,0-1.5-0.1-2.3,0c-1.1-0.1-2-0.1-2.8-0.1c-1.2-0.1-2.1-0.2-3-0.2c-1-0.1-2-0.2-3-0.3c-1.4-0.2-2.4-0.3-3.3-0.4
		c-1.3-0.2-2.3-0.3-3.3-0.4c-6.7-0.9-13.5-2-18.9-2.9c-1.3-0.2-2.4-0.4-3.4-0.6c-2.5-0.4-3-0.5-3.5-0.6c-0.8-0.1-1.3-0.2-2.7-0.4
		l-16.2,9.4l16.2,9.4l44.7-6.3c0.7-0.1,1.4-0.1,2-0.1c1.4,0.1,1.8,0.2,2.1,0.2c1.4,0.3,1.7,0.5,2.1,0.6c1.3,0.6,1.7,0.7,2,0.9
		c1.2,0.8,1.5,1,1.8,1.3c1,0.9,1.3,1.3,1.6,1.6c0.9,1.1,1.1,1.5,1.4,2c0.8,1.4,1,2.2,1.3,2.9c0.6,2,0.2,4.7,0.1,6.4
		c-2,8.4-7.6,9.4-22.6,11.6l9.9,5.7L731,382c3.1-0.1,3.8,0,4.4,0.1c1,0.2,1.7,0.4,2.3,0.6c0.9,0.4,1.5,0.6,2,1
		c0.8,0.5,1.3,0.9,1.7,1.3c0.6,0.6,1.1,1.1,1.4,1.6c0.4,0.7,0.9,1.3,1.2,1.8c0.2,0.7,0.7,1.4,0.9,2c0.1,0.7,0.4,1.5,0.6,2.1
		c1.2,6.7-2.1,14.1-10.8,15.3l-59.3,8.3l14.8,8.6l49.2-6.9c0.9-0.1,1.6-0.1,2.2-0.1c1.5,0.1,1.9,0.2,2.2,0.3
		c1.4,0.4,1.8,0.5,2.1,0.6c1.3,0.6,1.6,0.8,2,1c1.2,0.8,1.5,1,1.8,1.3c1,0.9,1.3,1.3,1.6,1.6c0.8,1.1,1.1,1.5,1.3,1.9
		c0.7,1.4,1,2.1,1.2,2.8c1.7,6.3-1.5,12.8-7.3,15.3c-2.4,1.1-8.7,1.7-19.7,3.2L748,458c6.2,3.7,8.3,11.5,4.8,17.7
		c-0.3,0.4-0.6,0.9-0.9,1.3c-0.5,0.7-0.8,1-1.1,1.2c-0.7,0.7-1.1,1-1.4,1.3c-0.5,0.3-0.9,0.6-1.3,0.8c-2.4,1.1-2.8,1.3-3.2,1.4
		c-0.6,0.2-1.1,0.2-1.5,0.3c-2.6,0.1-3.1,0.1-3.5,0.1c-0.6-0.2-1.1-0.2-1.5-0.3c-2.6-0.9-3-1.1-3.4-1.4l-21.3-12.3
		c5.3,13.1,8,18,6.8,23c-0.9,3.9-3.6,7.2-7.4,8.9c-0.7,0.3-1.1,0.4-1.5,0.6c-4.5,0.5-5,0.5-5.3,0.4c-0.8-0.2-1.4-0.3-1.9-0.4
		c-0.6-0.2-1.1-0.4-1.7-0.6c-0.7-0.5-1.4-0.7-1.8-0.9c-0.5-0.3-0.9-0.6-1.4-1c-0.6-0.7-1.1-1-1.5-1.4c-0.4-0.4-0.7-0.9-1-1.4
		c-0.4-0.9-0.8-1.4-1.1-1.9l-18.7-46.3l-14.8-8.6l22.5,55.5c2.6,6.4-0.3,13.6-6.4,16.6c-0.4,0.1-0.9,0.4-1.3,0.5
		c-5.3,0.7-5.7,0.7-5.9,0.6c-0.9-0.1-1.4-0.2-1.9-0.4c-0.8-0.3-1.2-0.4-1.6-0.6c-0.9-0.4-1.4-0.7-1.8-1c-0.6-0.4-1-0.7-1.4-1
		c-0.8-0.7-1.2-1.1-1.5-1.5c-0.4-0.5-0.7-1-1-1.4c-0.4-0.9-0.8-1.4-1.1-2l-35.1-86.6l-9.9-5.7c4.8,11.7,6.1,14.4,5.1,18.8
		c-0.9,3.7-3.4,7-7,8.7c-0.4,0.1-0.9,0.4-1.3,0.5c-5.3,0.7-5.7,0.7-5.9,0.6c-0.9-0.1-1.5-0.3-2-0.4c-0.8-0.3-1.2-0.4-1.6-0.6
		c-0.9-0.4-1.4-0.7-1.8-1c-0.6-0.4-1-0.7-1.4-1c-0.6-0.7-1.1-1.1-1.5-1.4c-0.4-0.5-0.7-0.9-1-1.4c-0.4-0.8-0.8-1.4-1-1.9l-17.1-42.1
		l-16.2-9.4V400l27.8,35.6c4.4,5.8,3.4,13.8-2.2,18.2c-0.5,0.4-1.1,0.8-1.7,1.1c-0.9,0.5-1.5,0.8-2,1c-0.8,0.3-1.3,0.4-1.8,0.5
		c-0.8,0.2-1.4,0.2-2,0.2c-4-0.7-4.4-0.8-4.7-1c-0.5-0.3-1.1-0.5-1.5-0.8c-0.9-0.6-1.3-0.8-1.6-1.1c-1-0.7-1.3-1.1-1.7-1.4
		c-1-0.9-1.4-1.3-1.7-1.7c-1.1-1.2-1.7-1.9-6.9-8.6v11.4l57.3,73.5c4.4,5.7,3.4,13.8-2.2,18.2c-0.5,0.3-1.2,0.8-1.8,1.2
		c-1.1,0.5-1.6,0.7-1.9,0.8c-1.2,0.3-1.7,0.5-2,0.5c-1.3,0.1-1.7,0.2-2,0.2c-2.4-0.2-2.7-0.3-3-0.3c-1.2-0.3-1.6-0.4-2-0.6
		c-1.3-0.5-1.8-0.8-2.3-1.2c-1.2-0.8-2.2-2.1-3.1-2.9l-36.9-47.2v17.1l30.6,39.2c4.4,5.7,3.4,13.8-2.3,18.2
		c-0.5,0.3-1.2,0.8-1.8,1.2c-1.2,0.5-1.6,0.7-1.9,0.8c-1.3,0.3-1.7,0.5-2,0.5c-4.6,0-4.9-0.1-5.1-0.1c-1.2-0.3-1.6-0.4-2-0.6
		c-1.2-0.5-1.8-0.8-2.3-1.1c-1.2-0.8-2.3-2.1-3.2-2.9l-10.1-12.9v24.6c0,5.3-3.2,9.9-7.8,11.9c-0.5,0.2-1,0.4-1.5,0.5
		c-4.3,0.6-4.7,0.5-5,0.5c-0.5,0-1-0.1-1.4-0.2c-3.8-1.4-4.1-1.7-4.4-1.8c-0.4-0.3-0.8-0.6-1.2-0.9c-2.7-3-2.9-3.4-3.1-3.6
		c-0.3-0.5-0.5-0.9-0.7-1.4c-1-4.2-1-4.7-1-5v-24.6l-10.1,12.9c-2.2,2.8-5.4,4.5-8.8,4.9c-0.5,0.1-1,0.1-1.6,0.1
		c-0.6-0.1-1.1-0.1-1.5-0.1c-2.6-0.6-3-0.7-3.4-0.9c-1.4-0.6-2.9-1.9-4-2.6c-4.9-4.7-5.4-12.2-1.3-17.4l30.6-39.2v-17.1l-36.9,47.2
		c-2.3,3-5.7,4.7-9.3,5c-1.8,0-2.5,0-3.1-0.1c-0.9-0.3-1.8-0.4-2.4-0.6c-1.6-0.6-3.3-2-4.5-2.8c-4.9-4.7-5.4-12.1-1.3-17.4
		l57.3-73.5v-11.4c-7.4,9.5-8.8,11.8-12.3,13.3c-0.5,0.2-1.1,0.4-1.7,0.6c-1,0.2-1.5,0.3-2,0.4c-0.7,0.1-1.3,0.1-1.9,0.1
		c-0.8-0.1-1.5-0.1-1.9-0.2c-0.7-0.1-1.2-0.3-1.8-0.4c-0.8-0.4-1.4-0.5-1.8-0.7c-0.6-0.3-1-0.6-1.5-0.9c-0.6-0.6-1.2-0.9-1.6-1.3
		c-4.7-4.4-5.5-12-1.3-17.4l27.8-35.6v-18.7l-16.2,9.4L504,432.5c-0.2,0.5-0.5,1.1-0.8,1.6c-0.5,0.9-0.8,1.3-1.1,1.6
		c-0.5,0.7-0.9,1-1.3,1.4c-0.7,0.6-1.1,0.9-1.4,1.1c-0.8,0.5-1.3,0.8-1.8,1c-0.7,0.3-1.2,0.5-1.6,0.6c-1,0.3-1.6,0.4-2.1,0.5
		c-0.7,0.1-1.2,0.1-1.7,0.1c-5.6-1.1-6-1.3-6.2-1.4c-6-3.1-8.6-10.2-6.1-16.4l4.5-11l-9.9,5.7l-34.9,86.4c-0.2,0.6-0.5,1.1-0.8,1.6
		c-0.5,0.8-0.8,1.2-1,1.5c-0.7,0.8-1.1,1.3-1.5,1.6c-0.5,0.3-1,0.8-1.4,1c-0.8,0.5-1.2,0.7-1.6,0.9c-0.9,0.4-1.4,0.6-1.9,0.8
		c-0.8,0.2-1.2,0.3-1.7,0.4c-1,0.1-1.5,0.2-1.9,0.2c-0.9,0-1.4,0-1.9-0.1c-0.7-0.2-1.2-0.2-1.6-0.3c-0.9-0.3-1.3-0.4-1.7-0.6
		c-1-0.5-1.6-0.7-2-1.1c-5.2-3.4-7.3-9.9-5-15.8l22.5-55.5l-14.8,8.6l-18.6,46c-0.3,0.6-0.6,1.3-0.9,1.9c-0.6,0.9-0.9,1.4-1.1,1.7
		c-0.6,0.7-0.9,1.1-1.3,1.5c-0.6,0.6-1,0.8-1.3,1c-0.8,0.5-1.2,0.8-1.7,1c-0.6,0.3-1.1,0.4-1.5,0.5c-0.9,0.3-1.4,0.4-1.9,0.4
		c-0.5,0.1-1,0.1-1.5,0.1c-2.5-0.2-2.9-0.3-3.3-0.3c-0.4-0.2-1-0.3-1.4-0.4c-2.3-1-2.6-1.1-2.8-1.3c-0.7-0.4-1.1-0.7-1.4-1
		c-3.1-3.2-3.6-4-3.9-4.7c-1.1-3.9-1.1-4.3-1.1-4.6c0-0.8,0-1.2,0.1-1.6c0.1-0.9,0.2-1.3,0.3-1.7c0.3-1.1,0.5-1.7,0.7-2.3l6.1-15.2
		l-21.3,12.3c-0.6,0.4-1.3,0.6-2,0.9c-1.1,0.4-1.7,0.5-2.1,0.6c-1.2,0.2-1.9,0.2-2.6,0.2c-0.9,0-1.5-0.1-2.1-0.2
		c-1.1-0.2-1.7-0.4-2.3-0.6c-1-0.4-1.5-0.7-2-1c-0.8-0.5-1.4-0.9-1.9-1.4c-0.7-0.9-1.4-1.4-1.8-1.9c-3.7-5-3.3-12.3,1-16.8
		c3.3-2.8,12.9-8,24.2-14.6l-16.2-2.3c-8.5-1.2-13.5-10.1-10.1-18c0.3-0.7,0.6-1.3,1-1.9c0.7-1,1-1.4,1.3-1.6
		c0.9-0.8,1.2-1.2,1.5-1.4c1-0.7,1.4-0.9,1.7-1.1c3.1-1.3,3.5-1.4,3.7-1.4c1.2-0.2,1.6-0.3,2-0.3c1.4-0.1,2,0,2.5,0.1l49.2,6.9
		l14.8-8.6l-59.3-8.3c-8.6-1.2-13.5-10.2-10.1-18c0.3-0.4,0.6-1.2,1-1.8c0.7-0.9,0.9-1.3,1.2-1.6c0.9-0.9,1.2-1.2,1.4-1.4
		c4.9-2.6,5.2-2.6,5.3-2.7c1.2-0.2,1.6-0.3,2-0.3c1.5-0.1,2.1,0,2.7,0.1l92.3,12.9l9.9-5.7c-16.9-2.5-23.2-5.4-23-14.8
		c0.1-3.3,1.4-6.3,3.5-8.5c1.1-1.2,2.4-2.1,3.8-2.8c0.5-0.2,1-0.4,1.6-0.6c0.9-0.3,1.3-0.4,1.7-0.4c1-0.2,1.5-0.2,1.9-0.2
		c1,0,1.7,0,2.3,0.1l44.7,6.3l16.2-9.4l-16.2-9.4l-44.7,6.3c-0.5,0.1-1,0.1-1.6,0.1c-2.4-0.2-2.9-0.2-3.2-0.3
		c-4.4-1-7.9-4.3-9.3-8.5c-1.9-5.5,0.1-11.6,5.1-14.9c3-2,5.5-2.1,17.2-3.7l-9.9-5.7l-92.3,12.9c-0.5,0.1-1.1,0.1-1.6,0.1
		c-1,0-1.7-0.1-2.3-0.2c-0.8-0.3-1.6-0.3-2.1-0.5c-0.6-0.3-1.3-0.5-1.9-0.8c-0.7-0.4-1.2-0.7-1.7-1.1c-0.7-0.6-1.2-1-1.6-1.4
		c-0.6-0.7-1-1.2-1.4-1.7c-0.4-0.8-0.8-1.4-1.1-2c-0.2-0.8-0.6-1.5-0.8-2.2c-1.9-7.5,3.3-15,10.8-16l59.3-8.3l-14.8-8.6l-49.2,6.9
		c-0.7,0.1-1.4,0.1-2.2,0.1c-1.2-0.1-1.7-0.1-2.1-0.2c-1.2-0.3-1.6-0.4-2-0.6c-1.2-0.5-1.8-0.8-2.3-1.1c-1.5-0.9-2.7-2.1-3.7-3.5
		c-1.6-2.2-2.5-4.8-2.5-7.6c0-1.7,0.3-3.5,1.1-5.2c3.2-7.5,9.5-7.6,26.3-10c-8.3-4.8-21.4-12.3-22.6-13.2c-2.3-2.1-3.8-4.3-4.6-6.5
		c-1.5-4-0.7-8,2.1-11.7c0.4-0.5,0.9-1,1.5-1.6c0.9-0.7,1.5-1.3,2-1.6c0.6-0.4,1.2-0.7,1.7-1c1-0.4,1.6-0.6,2.2-0.8
		c0.8-0.2,1.3-0.2,1.9-0.3c1.1,0,1.8,0,2.4,0.1c0.9,0.2,1.5,0.3,2.1,0.5c1.2,0.5,2.1,0.7,2.7,1.1l21.6,12.4l-6.1-15.2
		c-2.3-5.8-0.2-12.3,4.7-15.6c0.5-0.3,1-0.6,1.5-0.9c0.9-0.4,1.3-0.5,1.7-0.7c1.1-0.3,1.6-0.5,2.1-0.5c0.6-0.1,1.1-0.1,1.7-0.1
		c0.9,0,1.4,0.1,1.7,0.1c1.6,0.2,2.7,0.6,3.7,1c0.8,0.4,1.2,0.6,1.5,0.8c1.4,0.9,2.2,1.6,3,2.5c0.6,0.8,0.9,1.1,1.1,1.5
		c0.6,1,0.9,1.6,1.1,2.1l18.7,46.1L438,279l-22.5-55.5c-2.4-5.8-0.2-12.3,4.8-15.6c0.5-0.3,1-0.6,1.5-0.9c0.9-0.4,1.3-0.5,1.7-0.7
		c1.1-0.3,1.6-0.4,2.1-0.5c0.5,0,1.2-0.1,1.7-0.1c0.9,0,1.4,0,1.8,0.1c1.1,0.2,1.6,0.3,2.1,0.4c0.6,0.2,1.1,0.4,1.6,0.6
		c0.8,0.4,1.2,0.6,1.5,0.8c1.4,0.9,2.3,1.7,3,2.5c0.6,0.7,0.9,1.1,1.1,1.5c0.6,1,0.9,1.6,1.1,2.1l35,86.5l9.9,5.7
		c-6.2-15.3-6.6-22,0.3-26.6c0.5-0.3,1-0.6,1.6-0.9c0.9-0.4,1.3-0.5,1.7-0.7c1.1-0.3,1.6-0.4,2.1-0.5c0.6-0.1,1.2-0.1,1.7-0.1
		c0.9,0,1.3,0.1,1.7,0.1c1.1,0.2,1.6,0.3,2.1,0.4c0.6,0.2,1.1,0.4,1.6,0.6c0.8,0.4,1.2,0.6,1.5,0.8c0.9,0.6,1.3,0.9,1.7,1.2
		c0.5,0.4,0.9,0.8,1.3,1.3c0.6,0.7,0.9,1.1,1.1,1.5c0.6,1,0.9,1.6,1.1,2.1l17,42l16.2,9.4v-18.7L509.4,282
		c-4.3-5.8-3.3-13.5,1.8-17.9c0.4-0.3,0.9-0.7,1.3-1c2.2-1.3,2.5-1.4,2.9-1.6c4.7-0.7,5.1-0.6,5.3-0.6c0.5,0.2,1.1,0.2,1.5,0.4
		c0.9,0.3,1.2,0.5,1.6,0.6c0.9,0.5,1.3,0.7,1.7,0.9c0.9,0.6,1.4,0.9,1.9,1.3c0.7,0.7,1.2,1,1.6,1.3c0.9,0.9,1.2,1.2,1.6,1.6
		c1,1.1,1.5,1.7,6.6,8.2V264c-1.4-1.8-15.7-20-29.9-38.2c-14.2-18.2-28.3-36.4-28.7-37.2c-3.2-6-1.1-13.7,4.8-17.2
		c2-1.2,4.4-1.9,6.8-1.9c0.3,0,0.7,0.1,1.2,0.1c3.5,0.8,3.9,1,4.2,1.1c1.3,0.6,1.9,1,2.4,1.5c0.8,0.7,1.6,1.7,2.3,2.4l36.9,47.2
		v-17.1l-30.6-39.2c-0.6-0.8-0.9-1.4-1.3-1.9c-0.5-0.8-0.7-1.4-0.9-1.9c-0.3-0.9-0.5-1.4-0.6-1.9c0-0.7-0.2-1.3-0.2-1.8
		c0-0.6,0-1.2,0.1-1.7c0.1-0.8,0.2-1.3,0.3-1.7c0.3-0.7,0.4-1.3,0.6-1.7c0.3-0.5,0.5-1.1,0.8-1.5c0.4-0.7,0.7-1.1,1-1.5
		c0.5-0.7,0.9-1.1,1.2-1.4c0.6-0.5,1-0.9,1.4-1.2c0.5-0.3,1-0.7,1.4-0.9c0.7-0.4,1.1-0.6,1.6-0.8c0.8-0.3,1.3-0.5,1.7-0.6
		c1.1-0.1,2.3-0.5,3.3-0.5c0.9,0,1.6,0.1,2.2,0.2c0.6,0.3,1.5,0.4,2.2,0.6c1.9,0.8,3.8,2.2,5.6,4.4l10.1,12.9l0-24.6
		c0.1-5.4,2.4-8.8,5.4-10.7c0.5-0.3,1.1-0.7,1.7-0.9c1.2-0.4,1.5-0.6,1.9-0.7c3.5-0.5,3.9-0.5,4.1-0.5c6.5,0.1,12.8,4.3,12.9,12.9
		v24.6c7.7-9.9,11.1-15,14.8-16.7c1.1-0.3,2.5-0.9,3.6-1.1c0.6-0.1,1.2-0.1,1.8-0.1c0.9,0,1.5,0,1.9,0.1c0.8,0.1,1.2,0.2,1.7,0.4
		c0.8,0.2,1.2,0.4,1.7,0.6c0.7,0.4,1.3,0.7,1.7,0.9c1.7,1.1,3.1,2.6,4.1,4.3c2.6,4.2,2.9,9.8-0.9,14.7l-30.6,39.2v17.1l36.9-47.2
		c1.9-2.4,4.1-3.9,6.3-4.6c0.5-0.2,1.1-0.3,1.6-0.4c0.7-0.1,1.3-0.2,1.8-0.2c0.8,0,1.3,0,1.8,0.1c0.7,0.2,1.3,0.2,1.8,0.4
		c0.6,0.3,1.2,0.4,1.7,0.6c0.5,0.2,1,0.5,1.5,0.8c0.7,0.4,1.1,0.7,1.5,1c0.7,0.5,1.1,0.9,1.4,1.2c0.4,0.6,1,1,1.3,1.4
		c0.2,0.5,0.7,0.9,1,1.4c0.4,0.6,0.6,1.1,0.8,1.5c0.3,0.8,0.5,1.2,0.6,1.7c0.1,0.7,0.3,1.3,0.3,1.7c0,0.6,0.1,1.2,0.1,1.8
		c0,0.6-0.1,1.2-0.2,1.7c-0.2,0.8-0.3,1.4-0.5,1.9c-0.4,0.7-0.6,1.4-0.9,2c-0.5,0.7-1.1,1.5-1.4,2L563.1,264v11.4
		c5.1-6.5,5.5-7.1,5.9-7.6c0.7-0.8,1.1-1.4,1.5-1.8c0.7-0.7,1.1-1.2,1.5-1.6c0.4-0.3,0.8-0.7,1.3-1.1c0.7-0.5,1.1-0.8,1.5-1
		c0.6-0.2,1.2-0.6,1.6-0.7c0.5-0.2,1-0.3,1.5-0.4c0.8-0.1,1.4-0.2,1.9-0.2c2.8,0.2,3.3,0.3,3.9,0.4c2.2,0.5,4.6,1.8,6.4,3.7
		c4.2,4.5,4.9,11.7,0.8,16.9l-27.8,35.6v18.7l16.2-9.4l17-41.9c0.4-0.8,0.7-1.4,1-2c0.6-0.9,0.8-1.2,1.1-1.6
		c0.7-0.8,1.1-1.2,1.5-1.5c0.6-0.5,1-0.8,1.4-1c0.8-0.5,1.3-0.7,1.7-0.9c0.7-0.3,1.2-0.5,1.7-0.6c0.8-0.2,1.2-0.3,1.6-0.3
		c1-0.1,1.5-0.2,2-0.2c5.4,1.1,5.7,1.2,5.9,1.3c6.1,3.1,8.8,10.2,6.2,16.5l-4.5,11l9.9-5.7l34.9-86.4c0.4-0.8,0.7-1.4,1-2
		c0.6-0.8,0.9-1.4,1.2-1.8c0.4-0.5,0.8-0.9,1.1-1.2c0.6-0.6,1-0.9,1.4-1.1c0.6-0.4,0.9-0.6,1.3-0.7c0.7-0.3,1.2-0.5,1.6-0.6
		c0.7-0.1,1.2-0.3,1.6-0.3c0.8-0.1,1.3-0.1,1.9-0.1c1,0.1,1.8,0.1,2.5,0.1c1,0.2,2,0.4,2.8,0.5c5.9,1.3,10.7,9.5,7.6,17.1L662.3,279
		l14.8-8.6l18.6-46c0.4-0.9,0.8-1.6,1.2-2.2c0.7-0.9,1-1.4,1.3-1.7c0.9-0.9,1.2-1.2,1.5-1.4c1-0.7,1.4-1,1.7-1.2
		c1.1-0.6,1.5-0.7,1.9-0.9c1.2-0.4,1.9-0.5,2.5-0.6c0.8,0,1.5-0.1,2-0.1c0.9,0.2,1.7,0.1,2.3,0.3c1.1,0.2,2.4,0.9,3.4,1.2
		c6,3,8.8,10.2,6.2,16.5l-6.1,15.2l21.3-12.3c0.4-0.3,0.9-0.5,1.4-0.7c2.5-0.8,3-0.9,3.3-0.9c0.7-0.1,1.1-0.1,1.5-0.1
		c2.5,0.2,2.9,0.3,3.2,0.4c3.7,1.5,4.1,1.8,4.3,1.9c0.5,0.3,0.8,0.6,1.2,0.9C751.7,240.3,752,240.7,752.3,241z"/>
</g>
</svg>
