<?xml version="1.0" encoding="utf-8"?>
<!-- Generator: Adobe Illustrator 24.2.3, SVG Export Plug-In . SVG Version: 6.00 Build 0)  -->
<svg version="1.1" id="Layer_1" xmlns="http://www.w3.org/2000/svg" xmlns:xlink="http://www.w3.org/1999/xlink" x="0px" y="0px"
	 viewBox="0 0 806.7 158.5" style="enable-background:new 0 0 806.7 158.5;" xml:space="preserve">
<style type="text/css">
	.st0{fill:url(#SVGID_1_);}
	.st1{fill:url(#SVGID_2_);}
	.st2{fill:#7610D8;}
	.st3{fill:url(#SVGID_3_);}
	.st4{font-family:'Montserrat-ExtraBoldItalic';}
	.st5{font-size:60.7265px;}
	.st6{clip-path:url(#SVGID_5_);}
	.st7{fill:url(#SVGID_6_);}
	.st8{fill:url(#SVGID_7_);}
</style>
<g>
	<g>
		
			<linearGradient id="SVGID_1_" gradientUnits="userSpaceOnUse" x1="47.6651" y1="134.7561" x2="189.1369" y2="134.7561" gradientTransform="matrix(1 0 0 -1 0 214.1547)">
			<stop  offset="0.2874" style="stop-color:#6601BC"/>
			<stop  offset="0.8302" style="stop-color:#A11CF9"/>
		</linearGradient>
		<path class="st0" d="M95.3,98h30.8c0,0,14.8,0.2,21.1-16.2c0,0,6.2-14.3-9.3-26.6l19.1-19.6c0,0,24.1,14.5,19,46.7
			c0,0-4.3,34.8-41.9,40.7l-98.8,0.2L95.3,98"/>
		
			<linearGradient id="SVGID_2_" gradientUnits="userSpaceOnUse" x1="92.7664" y1="185.5603" x2="87.7799" y2="146.0814" gradientTransform="matrix(1 0 0 -1 0 214.1547)">
			<stop  offset="6.270000e-02" style="stop-color:#A11CF9"/>
			<stop  offset="0.5132" style="stop-color:#880EDF"/>
			<stop  offset="0.8673" style="stop-color:#7201C8"/>
		</linearGradient>
		<rect x="58.6" y="35.6" class="st1" width="63.4" height="25.2"/>
		<path class="st2" d="M122.4,35.3"/>
		
			<linearGradient id="SVGID_3_" gradientUnits="userSpaceOnUse" x1="95.7444" y1="178.5502" x2="95.7444" y2="90.9774" gradientTransform="matrix(1 0 0 -1 0 214.1547)">
			<stop  offset="8.620000e-02" style="stop-color:#A11CF9"/>
			<stop  offset="0.1042" style="stop-color:#9F1BF7"/>
			<stop  offset="0.5288" style="stop-color:#7F08D5"/>
			<stop  offset="0.7585" style="stop-color:#7201C8"/>
		</linearGradient>
		<polyline class="st3" points="34.6,123.2 34.6,123.1 122.1,35.6 156.9,35.6 70.5,123.2 		"/>
	</g>
	<g id="Layer_4_copy_1_">
		<g>
			<defs>
				<text id="SVGID_4_" transform="matrix(1 0 0 1 190.9384 123.1154)" class="st4 st5">ZILLION  DREAMZ</text>
			</defs>
			<clipPath id="SVGID_5_">
				<use xlink:href="#SVGID_4_"  style="overflow:visible;"/>
			</clipPath>
			<g id="Layer_5_copy_1_" class="st6">
				
					<linearGradient id="SVGID_6_" gradientUnits="userSpaceOnUse" x1="164.7475" y1="120.8153" x2="465.9921" y2="120.8153" gradientTransform="matrix(1 0 0 -1 0 214.1547)">
					<stop  offset="0" style="stop-color:#A11CF9"/>
					<stop  offset="1" style="stop-color:#7201C8"/>
				</linearGradient>
				<rect x="164.7" y="49.3" class="st7" width="301.2" height="88.1"/>
				
					<linearGradient id="SVGID_7_" gradientUnits="userSpaceOnUse" x1="481.4733" y1="120.8153" x2="782.7178" y2="120.8153" gradientTransform="matrix(1 0 0 -1 0 214.1547)">
					<stop  offset="0" style="stop-color:#A11CF9"/>
					<stop  offset="1" style="stop-color:#7201C8"/>
				</linearGradient>
				<rect x="481.5" y="49.3" class="st8" width="301.2" height="88.1"/>
			</g>
		</g>
	</g>
</g>
</svg>
