<?xml version="1.0" encoding="utf-8"?>
<!-- Generator: Adobe Illustrator 24.0.1, SVG Export Plug-In . SVG Version: 6.00 Build 0)  -->
<svg version="1.1" id="Layer_1" xmlns="http://www.w3.org/2000/svg" xmlns:xlink="http://www.w3.org/1999/xlink" x="0px" y="0px"
	 viewBox="0 0 100 100" style="enable-background:new 0 0 100 100;" xml:space="preserve">
<style type="text/css">
	.st0{fill:#FFFFFF;}
</style>
<path class="st0" d="M50,16.7c-17.3,0-31.3,14-31.3,31.3s14,31.3,31.3,31.3s31.3-14,31.3-31.3S67.3,16.7,50,16.7z M49.7,33
	c3.1,0,5.6,2.5,5.6,5.6c0,3.1-2.5,5.6-5.6,5.6c-3.1,0-5.6-2.5-5.6-5.6C44.1,35.6,46.6,33,49.7,33z M60.5,58.9c0,0.7-0.6,1.3-1.3,1.3
	h-19c-0.7,0-1.3-0.6-1.3-1.3v-2.1c0-6,4.9-11.2,11-11.1c5.9,0.1,10.6,4.9,10.6,10.8V58.9z"/>
</svg>
