<?xml version="1.0" encoding="utf-8"?>
<!-- Generator: Adobe Illustrator 24.0.1, SVG Export Plug-In . SVG Version: 6.00 Build 0)  -->
<svg version="1.1" id="Layer_1" xmlns="http://www.w3.org/2000/svg" xmlns:xlink="http://www.w3.org/1999/xlink" x="0px" y="0px"
	 viewBox="0 0 100 100" style="enable-background:new 0 0 100 100;" xml:space="preserve">
<style type="text/css">
	.st0{fill:url(#SVGID_1_);}
</style>
<linearGradient id="SVGID_1_" gradientUnits="userSpaceOnUse" x1="17.794" y1="48.8211" x2="81.6564" y2="48.8211">
	<stop  offset="0" style="stop-color:#A11CF9"/>
	<stop  offset="1" style="stop-color:#7201C8"/>
</linearGradient>
<path class="st0" d="M49.7,16.9c-17.6,0-31.9,14.3-31.9,31.9s14.3,31.9,31.9,31.9s31.9-14.3,31.9-31.9S67.4,16.9,49.7,16.9z
	 M49.5,33.5c3.2,0,5.7,2.6,5.7,5.7c0,3.2-2.6,5.7-5.7,5.7s-5.7-2.6-5.7-5.7C43.7,36.1,46.3,33.5,49.5,33.5z M60.5,59.9
	c0,0.7-0.6,1.3-1.3,1.3H39.7c-0.7,0-1.3-0.6-1.3-1.3v-2.1c0-6.2,5-11.4,11.2-11.3c6,0.1,10.8,5,10.8,11V59.9z"/>
</svg>
