<?xml version="1.0" encoding="utf-8"?>
<!-- Generator: Adobe Illustrator 24.0.1, SVG Export Plug-In . SVG Version: 6.00 Build 0)  -->
<svg version="1.1" id="Layer_1" xmlns="http://www.w3.org/2000/svg" xmlns:xlink="http://www.w3.org/1999/xlink" x="0px" y="0px"
	 viewBox="0 0 100 100" style="enable-background:new 0 0 100 100;" xml:space="preserve">
<style type="text/css">
	.st0{fill:url(#SVGID_1_);}
</style>
<linearGradient id="SVGID_1_" gradientUnits="userSpaceOnUse" x1="22.6396" y1="45.9558" x2="75.6471" y2="45.9558">
	<stop  offset="0" style="stop-color:#A11CF9"/>
	<stop  offset="1" style="stop-color:#7201C8"/>
</linearGradient>
<path class="st0" d="M73.7,39.1L69,38.7c-0.2-0.6-0.4-1.1-0.7-1.6l3-3.6c0.7-0.9,0.7-2.1-0.1-2.9l-6.7-6.7c-0.8-0.8-2.1-0.8-2.9-0.1
	l-3.6,3c-0.5-0.2-1.1-0.5-1.6-0.7L56,21.4c-0.1-1.1-1-2-2.1-2h-9.5c-1.1,0-2,0.9-2.1,2l-0.4,4.7c-0.6,0.2-1.1,0.4-1.6,0.7l-3.6-3
	c-0.9-0.7-2.1-0.7-2.9,0.1l-6.7,6.7c-0.8,0.8-0.8,2.1-0.1,2.9l3,3.6c-0.2,0.5-0.5,1.1-0.7,1.6l-4.7,0.4c-1.1,0.1-2,1-2,2.1v9.5
	c0,1.1,0.9,2,2,2.1l4.7,0.4c0.2,0.6,0.4,1.1,0.7,1.6l-3,3.6c-0.7,0.9-0.7,2.1,0.1,2.9l6.7,6.7c0.8,0.8,2.1,0.8,2.9,0.1l3.6-3
	c0.5,0.2,1.1,0.5,1.6,0.7l0.4,4.7c0.1,1.1,1,2,2.1,2h9.5c1.1,0,2-0.9,2.1-2l0.4-4.7c0.6-0.2,1.1-0.4,1.6-0.7l3.6,3
	c0.9,0.7,2.1,0.7,2.9-0.1l6.7-6.7c0.8-0.8,0.8-2.1,0.1-2.9l-3-3.6c0.2-0.5,0.5-1.1,0.7-1.6l4.7-0.4c1.1-0.1,2-1,2-2.1v-9.5
	C75.6,40.1,74.8,39.2,73.7,39.1z M49.1,58.7c-7,0-12.7-5.7-12.7-12.7c0-7,5.7-12.7,12.7-12.7c7,0,12.7,5.7,12.7,12.7
	C61.9,53,56.2,58.7,49.1,58.7z"/>
</svg>
