<?xml version="1.0" encoding="utf-8"?>
<!-- Generator: Adobe Illustrator 24.0.1, SVG Export Plug-In . SVG Version: 6.00 Build 0)  -->
<svg version="1.1" id="Layer_1" xmlns="http://www.w3.org/2000/svg" xmlns:xlink="http://www.w3.org/1999/xlink" x="0px" y="0px"
	 viewBox="0 0 100 100" style="enable-background:new 0 0 100 100;" xml:space="preserve">
<style type="text/css">
	.st0{fill:#FFFFFF;}
</style>
<path class="st0" d="M78.2,40.7l-5.6-0.5c-0.2-0.7-0.5-1.3-0.8-1.9l3.6-4.3c0.9-1,0.8-2.5-0.1-3.5l-7.9-7.9c-0.9-0.9-2.4-1-3.5-0.1
	l-4.3,3.6c-0.6-0.3-1.3-0.6-1.9-0.8l-0.5-5.6c-0.1-1.3-1.2-2.3-2.5-2.3H43.5c-1.3,0-2.4,1-2.5,2.3l-0.5,5.6
	c-0.7,0.2-1.3,0.5-1.9,0.8l-4.3-3.6c-1-0.9-2.5-0.8-3.5,0.1l-7.9,7.9c-0.9,0.9-1,2.4-0.1,3.5l3.6,4.3c-0.3,0.6-0.6,1.3-0.8,1.9
	l-5.6,0.5c-1.3,0.1-2.3,1.2-2.3,2.5v11.2c0,1.3,1,2.4,2.3,2.5l5.6,0.5c0.2,0.7,0.5,1.3,0.8,1.9l-3.6,4.3c-0.9,1-0.8,2.5,0.1,3.5
	l7.9,7.9c0.9,0.9,2.4,1,3.5,0.1l4.3-3.6c0.6,0.3,1.3,0.6,1.9,0.8l0.5,5.6c0.1,1.3,1.2,2.3,2.5,2.3h11.2c1.3,0,2.4-1,2.5-2.3l0.5-5.6
	c0.7-0.2,1.3-0.5,1.9-0.8l4.3,3.6c1,0.9,2.5,0.8,3.5-0.1l7.9-7.9c0.9-0.9,1-2.4,0.1-3.5l-3.6-4.3c0.3-0.6,0.6-1.3,0.8-1.9l5.6-0.5
	c1.3-0.1,2.3-1.2,2.3-2.5V43.2C80.6,41.9,79.6,40.8,78.2,40.7z M49.1,64C40.8,64,34,57.2,34,48.8c0-8.3,6.8-15.1,15.1-15.1
	c8.3,0,15.1,6.8,15.1,15.1C64.2,57.2,57.4,64,49.1,64z"/>
</svg>
