<?xml version="1.0" encoding="utf-8"?>
<!-- Generator: Adobe Illustrator 24.0.1, SVG Export Plug-In . SVG Version: 6.00 Build 0)  -->
<svg version="1.1" id="Layer_1" xmlns="http://www.w3.org/2000/svg" xmlns:xlink="http://www.w3.org/1999/xlink" x="0px" y="0px"
	 viewBox="0 0 100 100" style="enable-background:new 0 0 100 100;" xml:space="preserve">
<style type="text/css">
	.st0{fill:url(#SVGID_1_);}
	.st1{fill:url(#SVGID_2_);}
	.st2{fill:url(#SVGID_3_);}
</style>
<g>
	
		<linearGradient id="SVGID_1_" gradientUnits="userSpaceOnUse" x1="34.0276" y1="46.5439" x2="54.2039" y2="71.8313" gradientTransform="matrix(1 0 0 -1 0 100)">
		<stop  offset="0.3924" style="stop-color:#9E1CF6"/>
		<stop  offset="1" style="stop-color:#7201C5"/>
	</linearGradient>
	<path class="st0" d="M53.3,67.7l-0.4,0.2c-3,1.7-6.8,0.6-8.5-2.3L24.9,32c-1.7-3-0.5-6.8,2.5-8.5l0.4-0.2c3-1.7,6.8-0.6,8.5,2.3
		l19.3,33.6C57.3,62.2,56.3,65.8,53.3,67.7z"/>
	
		<linearGradient id="SVGID_2_" gradientUnits="userSpaceOnUse" x1="21.3362" y1="48.457" x2="36.3256" y2="60.8112" gradientTransform="matrix(-1 0 0 -1 88.4934 100)">
		<stop  offset="5.209963e-02" style="stop-color:#9E1CF6"/>
		<stop  offset="1" style="stop-color:#7201C5"/>
	</linearGradient>
	<path class="st1" d="M46.7,67.5l0.4,0.2c3,1.7,6.8,0.6,8.5-2.3L75,31.8c1.7-3,0.6-6.8-2.3-8.5l-0.4-0.2c-3-1.7-6.8-0.6-8.5,2.3
		L44.4,59C42.7,62,43.7,65.8,46.7,67.5z"/>
	
		<linearGradient id="SVGID_3_" gradientUnits="userSpaceOnUse" x1="44.7134" y1="39.659" x2="70.8218" y2="39.659" gradientTransform="matrix(0.7093 -0.7049 -0.7049 -0.7093 27.7561 98.6868)">
		<stop  offset="0.3924" style="stop-color:#9E1CF6"/>
		<stop  offset="1" style="stop-color:#7201C5"/>
	</linearGradient>
	<path class="st2" d="M51.8,38.9l-22.9-3.7c-3.4-0.9-5.3-4.3-4.5-7.7l0.2-0.6c1.3-3.3,4-5.2,7.6-4.3l0.6,0.2c0.2,0,0.3,0.1,0.5,0.1
		c0.6,0.2,1.5,0.7,1.9,0.9l16.4,9.5l6.9-4.1"/>
</g>
</svg>
