<?xml version="1.0" encoding="utf-8"?>
<!-- Generator: Adobe Illustrator 24.0.1, SVG Export Plug-In . SVG Version: 6.00 Build 0)  -->
<svg version="1.1" xmlns="http://www.w3.org/2000/svg" xmlns:xlink="http://www.w3.org/1999/xlink" x="0px" y="0px"
	 viewBox="0 0 100 100" style="enable-background:new 0 0 100 100;" xml:space="preserve">
<style type="text/css">
	.st0{fill:#FFFFFF;}
	.st1{fill:url(#SVGID_1_);}
	.st2{fill:#F8F8F8;}
	.st3{fill:#CBE5FE;}
	.st4{fill:url(#SVGID_2_);}
	.st5{opacity:0.35;fill:#CBE5FE;}
	.st6{fill:url(#SVGID_3_);}
</style>
<g id="Layer_2">
	<rect x="15" y="22.6" class="st0" width="74.1" height="44.7"/>
</g>
<g id="Layer_1">
	<g>
		<linearGradient id="SVGID_1_" gradientUnits="userSpaceOnUse" x1="12.2941" y1="45.3435" x2="92.2521" y2="45.3435">
			<stop  offset="0" style="stop-color:#9E1CF6"/>
			<stop  offset="1" style="stop-color:#7201C5"/>
		</linearGradient>
		<path class="st1" d="M52.3,70.6c-11.8,0-23.7,0-35.5,0c-3,0-4.5-1.5-4.5-4.5c0-13.9,0-27.7,0-41.6c0-2.9,1.5-4.4,4.3-4.4
			c23.8,0,47.5,0,71.3,0c2.8,0,4.3,1.5,4.3,4.4c0,13.9,0,27.8,0,41.7c0,2.9-1.5,4.4-4.4,4.4C76,70.6,64.1,70.6,52.3,70.6z
			 M52.2,65.4c11.3,0,22.7,0,34,0c0.7,0,0.9-0.2,0.9-0.9c0-12.8,0-25.6,0-38.5c0-0.7-0.1-0.8-0.8-0.8c-22.7,0-45.4,0-68.1,0
			c-0.7,0-0.8,0.2-0.8,0.8c0,12.8,0,25.6,0,38.5c0,0.7,0.1,0.9,0.9,0.9C29.6,65.4,40.9,65.4,52.2,65.4z"/>
		<path class="st2" d="M25.2,62.8c0,0.5,0,0.9,0,1.4c0,0.2,0.1,0.3,0.3,0.3c0.7,0,1.3,0,2,0c0.2,0,0.3-0.1,0.3-0.3
			c0-0.5,0-0.9,0-1.4c7.9,0,15.7,0,23.6,0c0.1,0,0.3,0,0.4,0c0.3-0.1,0.4-0.2,0.5-0.5c0.1-0.3-0.1-0.4-0.3-0.6
			c-0.1-0.1-0.3-0.1-0.5-0.1c-7.9,0-15.8,0-23.7,0c0-0.5,0-0.9,0-1.4c0-0.2-0.1-0.3-0.3-0.3c-0.7,0-1.3,0-2,0
			c-0.2,0-0.3,0.1-0.3,0.3c0,0.5,0,0.9,0,1.4c-1,0-2,0-3,0c-0.1,0-0.3,0-0.4,0.1c-0.2,0.2-0.4,0.3-0.3,0.6c0.1,0.3,0.3,0.4,0.6,0.4
			C23.2,62.8,24.2,62.8,25.2,62.8z"/>
		<path class="st3" d="M27.8,61.7c17.8,0,35.6,0,53.3,0c0.4,0,0.7-0.1,1.1,0.1c0.4,0.1,0.8,0.3,0.7,0.6c-0.1,0.3-0.5,0.5-1.1,0.5
			c-0.3,0-0.6,0-0.9,0c-17.7,0-35.4,0-53.1,0C27.8,62.4,27.8,62,27.8,61.7z"/>
		<linearGradient id="SVGID_2_" gradientUnits="userSpaceOnUse" x1="25.2244" y1="62.2346" x2="27.8209" y2="62.2346">
			<stop  offset="0" style="stop-color:#9E1CF6"/>
			<stop  offset="1" style="stop-color:#7201C5"/>
		</linearGradient>
		<path class="st4" d="M27.8,61.7c0,0.4,0,0.8,0,1.1c0,0.5,0,0.9,0,1.4c0,0.2-0.1,0.3-0.3,0.3c-0.7,0-1.3,0-2,0
			c-0.2,0-0.3-0.1-0.3-0.3c0-0.5,0-0.9,0-1.4c0-0.4,0-0.8,0-1.1c0-0.5,0-0.9,0-1.4c0-0.2,0.1-0.3,0.3-0.3c0.7,0,1.3,0,2,0
			c0.2,0,0.3,0.1,0.3,0.3C27.8,60.7,27.8,61.2,27.8,61.7z"/>
		<path class="st3" d="M25.2,61.7c0,0.4,0,0.8,0,1.1c-1,0-2.1,0-3.1,0c-0.3,0-0.5-0.1-0.6-0.4c-0.1-0.3,0.1-0.4,0.3-0.6
			c0.1-0.1,0.3-0.1,0.4-0.1C23.2,61.7,24.2,61.7,25.2,61.7z"/>
		<path class="st5" d="M21.5,54c0.5-1,1.3-1.3,2.3-1.3c1.3,0.1,1.3,0,1.3-1.3c0-0.9,0-1.8,0-2.7c0-0.4,0.1-0.6,0.4-0.9
			c4.4-4.4,8.8-8.8,13.2-13.2c0.3-0.3,0.5-0.3,0.8,0c5.9,5.9,11.8,11.8,17.6,17.7c0.3,0.3,0.6,0.4,1,0.4c1.4,0,2.8,0,4.2,0
			c0-0.2-0.2-0.3-0.3-0.4c-2.1-2.1-4.1-4.1-6.2-6.2c-0.3-0.3-0.3-0.4,0-0.7c2.4-2.4,4.9-4.9,7.3-7.3c0.3-0.3,0.4-0.3,0.7,0
			c4.4,4.4,8.9,8.9,13.3,13.3c0.2,0.2,0.4,0.4,0.3,0.8c-0.1,0.5,0.1,0.6,0.6,0.6c0.4,0,0.9,0,1.3,0c1,0,1.7,0.8,1.7,1.7
			c0,0.9-0.7,1.7-1.7,1.7c-0.2,0-0.4,0-0.6,0c-18.3,0-36.5,0-54.8,0c-1.1,0-1.9-0.3-2.3-1.3C21.5,54.6,21.5,54.3,21.5,54z"/>
		<path class="st3" d="M69.5,39.8c0.1,0.4,0.1,0.7,0,1.1c-0.1,0.5-0.4,0.9-0.9,1.1c-1.4,0.9-2.9,1-4.5,0.4c0,0,0,0-0.1,0
			c0.2-0.2,0.3-0.3,0.5-0.5c0.4-0.5,0.6-1.1,0.9-1.7c0.2-0.6,0.6-1,1.1-1.4c0.7-0.5,1.6-0.5,2.3,0.1c0,0,0.1,0,0.1,0.1
			c0-0.3,0-0.6,0.1-0.8c0.1-0.2,0.3-0.4,0.4-0.5c3.1-2.1,6.2-4.2,9.3-6.3c0.4-0.3,0.9-0.2,1.2,0.2c0.3,0.4,0.2,0.9-0.2,1.2
			c-2.9,2.3-5.8,4.7-8.7,7c-0.5,0.4-1,0.4-1.5,0.1C69.6,39.8,69.6,39.8,69.5,39.8z"/>
		<linearGradient id="SVGID_3_" gradientUnits="userSpaceOnUse" x1="50.0919" y1="44.2935" x2="59.6539" y2="44.2935">
			<stop  offset="0" style="stop-color:#9E1CF6"/>
			<stop  offset="1" style="stop-color:#7201C5"/>
		</linearGradient>
		<path class="st6" d="M59.7,44.3c-3.3,1.6-6.4,3.2-9.6,4.8c0-3.2,0-6.3,0-9.5C53.3,41.1,56.4,42.7,59.7,44.3z"/>
	</g>
</g>
</svg>
