<?xml version="1.0" encoding="utf-8"?>
<!-- Generator: Adobe Illustrator 24.0.1, SVG Export Plug-In . SVG Version: 6.00 Build 0)  -->
<svg version="1.1" xmlns="http://www.w3.org/2000/svg" xmlns:xlink="http://www.w3.org/1999/xlink" x="0px" y="0px"
	 viewBox="0 0 100 100" style="enable-background:new 0 0 100 100;" xml:space="preserve">
<style type="text/css">
	.st0{fill:#EBECED;}
	.st1{fill:#631ED1;}
	.st2{fill:url(#SVGID_1_);}
	.st3{fill:url(#SVGID_2_);}
	.st4{fill:url(#SVGID_3_);}
	.st5{fill:#CBE5FE;}
</style>
<g id="Layer_2">
	<g>
		<rect x="21.8" y="45.2" class="st0" width="54.7" height="12.3"/>
		<rect x="20.4" y="66.3" class="st0" width="60.7" height="12.3"/>
		<path class="st1" d="M84.4,31.9c1.6,0.7,2.5,1.9,2.3,3.7c-0.1,0.8-0.4,1.5-0.9,2.1c-0.2,0.2-0.4,0.3-0.2,0.6
			c1,2.3,1.8,4.7,2.9,6.9c0,0.4,0,0.8,0,1.2c-0.6,1.2-1.6,1.6-2.9,1.6c-1.6-0.1-3.3,0-4.9,0c-1.5,0-2.2-0.5-2.5-2
			c0-0.4,0.1-0.8,0.3-1.2c0.5-1.1,0.9-2.2,1.3-3.3c0.4-1,0.8-2,1.2-2.9c0.1-0.3,0.1-0.5-0.1-0.7c-1.8-2.1-1.2-4.6,1.3-5.8
			C82.9,31.8,83.7,31.8,84.4,31.9z"/>
		<linearGradient id="SVGID_1_" gradientUnits="userSpaceOnUse" x1="14.8465" y1="22.5332" x2="84.4081" y2="22.5332">
			<stop  offset="0" style="stop-color:#9E1CF6"/>
			<stop  offset="1" style="stop-color:#7201C5"/>
		</linearGradient>
		<path class="st2" d="M84.4,31.9c-0.7-0.1-1.5-0.1-2.2,0c0-2.3,0-4.6,0-7c0-0.6-0.1-0.8-0.7-0.6c-3.3,1.2-6.6,2.3-9.9,3.4
			c-0.5,0.2-0.7,0.4-0.7,0.9c0,2.1,0,4.2,0,6.3c-0.6,0-1.2,0-1.7,0c-6.5,0-13.1,0-19.6,0c-7.1,0-14.1,0-21.2,0c0-2.1-0.1-4.1,0-6.2
			c0-0.7-0.2-0.9-0.8-1.1c-3.8-1.3-7.7-2.6-11.5-4c-0.5-0.2-0.9-0.4-1.1-0.9c-0.3-0.7,0.1-1.4,1-1.7c4.2-1.4,8.3-2.9,12.5-4.3
			c6.5-2.2,12.9-4.5,19.4-6.7c1.3-0.4,2.6-0.4,3.8,0.1c8.5,3,17,5.9,25.5,8.8c2,0.7,4.1,1.4,6.1,2.1c1,0.3,1.1,0.6,1.1,1.6
			C84.4,25.9,84.4,28.9,84.4,31.9z"/>
		<linearGradient id="SVGID_2_" gradientUnits="userSpaceOnUse" x1="14.0928" y1="72.9083" x2="85.0072" y2="72.9083">
			<stop  offset="0" style="stop-color:#9E1CF6"/>
			<stop  offset="1" style="stop-color:#7201C5"/>
		</linearGradient>
		<path class="st3" d="M79.2,62.3c1.1,0,2.2,0,3.3,0c1.5,0,2.5,0.9,2.5,2.3c0,1.4-1,2.4-2.4,2.5c-0.3,0-0.5,0-0.8,0
			c-4.5,0-9,0-13.5,0c-0.2-0.2-0.5-0.1-0.7-0.1c-2.1,0-4.1,0-6.1,0.1c-0.3,0-0.6-0.1-0.9-0.1c-11.8,0-23.6,0-35.4,0
			c-0.3,0-0.6,0-0.9,0c-3.4,0.2-5.9,3.5-5.3,6.8c0.6,2.9,2.9,4.8,6,4.8c18.7,0,37.5,0,56.2,0c0.2,0,0.5,0,0.7-0.1
			c0.2,0,0.4,0,0.6,0.1c1.5,0.1,2.4,1,2.4,2.4c0,1.4-1,2.3-2.5,2.3c-4.5,0-9,0-13.6,0c-14.6,0-29.3,0-43.9,0c-5,0-8.9-2.8-10.4-7.3
			c-2.2-6.7,2.7-13.7,9.8-13.9c1.1,0,2.1,0,3.2,0c0.2,0,0.5,0,0.7,0c16.5,0,32.9,0,49.4,0C78.2,62.4,78.7,62.3,79.2,62.3z"/>
		<linearGradient id="SVGID_3_" gradientUnits="userSpaceOnUse" x1="18.0536" y1="51.7659" x2="81.0565" y2="51.7659">
			<stop  offset="0" style="stop-color:#9E1CF6"/>
			<stop  offset="1" style="stop-color:#7201C5"/>
		</linearGradient>
		<path class="st4" d="M79.2,62.3c-0.5,0-1,0-1.4,0c-16.5,0-32.9,0-49.4,0c-0.2,0-0.5,0-0.7,0c-5-0.8-8.4-3.9-9.4-8.8
			c-1.1-5.7,3.2-11.6,9-12.2c0.6-0.1,1.2-0.1,1.7-0.1c12.9,0,25.8,0,38.7,0c0.9,0,1.8,0,2.7,0c2.6,0,5.1,0,7.7,0
			c0.6,0,1.2,0,1.7,0.2c-0.4,1.1-0.9,2.2-1.3,3.3c-0.2,0.4-0.3,0.8-0.3,1.2c-0.1,0-0.3,0-0.4,0c-0.3,0-0.6,0-0.9,0
			c-11.6,0-23.1,0-34.7,0c-0.4,0-0.8,0-1.2,0c-2.3,0-4.6,0-6.9,0c-1.8,0-3.6,0-5.4,0c-3.1,0-5.7,2.6-5.7,5.7c0,3.3,2.6,5.9,6,5.9
			c16.1,0,32.2,0,48.3,0c0.2,0,0.5,0,0.7,0c0.2,0,0.4,0,0.6,0c1.3,0,2.2,0.7,2.5,1.9c0.2,1.1-0.3,2.2-1.5,2.7
			C79.4,62.3,79.3,62.3,79.2,62.3z"/>
		<path class="st1" d="M81.9,78.7c-0.2,0-0.5,0.1-0.7,0.1c-18.7,0-37.5,0-56.2,0c-3.1,0-5.5-1.9-6-4.8c-0.7-3.3,1.9-6.6,5.3-6.8
			c0.3,0,0.6,0,0.9,0c11.8,0,23.6,0,35.4,0c0.3,0,0.6,0,0.9,0.1c0,0.8,0,1.5,0,2.3c-12.1,0-24.3,0-36.4,0c-1.5,0-2.7,0.6-3.3,2
			c-1,2.4,0.4,4.5,2.9,4.8c0.2,0,0.4,0,0.7,0c18.4,0,36.7,0,55.1,0c0.7,0,1,0.2,1.2,0.9C81.5,77.7,81.7,78.2,81.9,78.7z"/>
		<path class="st1" d="M70.3,41.2c-0.9,0-1.8,0-2.7,0c-12.9,0-25.8,0-38.7,0c-0.5-0.4-0.6-0.8-0.6-1.4c0-1.5,0-3.1,0-4.6
			c7.1,0,14.1,0,21.2,0c6.5,0,13.1,0,19.6,0c0.6,0,1.2,0,1.7,0c0,1.4,0,2.8,0,4.2C70.9,40,71.1,40.7,70.3,41.2z"/>
		<path class="st1" d="M77.9,57.5c-0.2,0-0.5,0-0.7,0c-16.1,0-32.2,0-48.3,0c-3.4,0-6-2.6-6-5.9c0-3.1,2.6-5.7,5.7-5.7
			c1.8,0,3.6,0,5.4,0c0,0.8,0,1.6,0,2.5c-1.8,0-3.7,0-5.5,0c-1.4,0-2.3,0.8-2.8,2c-0.5,1.2-0.4,2.4,0.4,3.4c0.7,0.9,1.7,1.3,2.8,1.3
			c15.8,0,31.5,0,47.3,0c0.7,0,1.1,0.1,1.2,0.9C77.4,56.5,77.7,57,77.9,57.5z"/>
		<path class="st1" d="M40.8,46c0.4,0,0.8,0,1.2,0c11.6,0,23.1,0,34.7,0c0.3,0,0.6,0,0.9,0c-0.2,0.7-0.4,1.3-0.6,2
			c-0.1,0.3-0.3,0.4-0.6,0.4c-0.2,0-0.4,0-0.6,0c-11.7,0-23.4,0-35.1,0C40.8,47.6,40.8,46.8,40.8,46z"/>
		<path class="st5" d="M40.8,46c0,0.8,0,1.6,0,2.5c0,1.4,0,2.8,0,4.1c0,0.6-0.2,0.8-0.7,0.5c-1.8-1.1-3.6-1.1-5.4,0
			c-0.6,0.4-0.8,0.2-0.8-0.5c0-1.4,0-2.7,0-4.1c0-0.8,0-1.6,0-2.5C36.2,46,38.5,46,40.8,46z"/>
		<path class="st5" d="M61.4,69.5c0-0.8,0-1.5,0-2.3c2-0.2,4.1-0.1,6.1-0.1c0.2,0,0.5-0.1,0.7,0.1c0,0.8,0,1.6,0,2.4
			c0,1.4,0,2.8,0,4.2c0,0.8-0.1,0.9-0.8,0.6c-1.8-1-3.5-1-5.3,0c-0.6,0.4-0.8,0.2-0.8-0.5C61.4,72.3,61.4,70.9,61.4,69.5z"/>
		<path class="st1" d="M68.3,69.5c0-0.8,0-1.6,0-2.4c4.5,0,9,0,13.5,0c0,0.8-0.5,1.4-0.6,2.1c-0.1,0.3-0.5,0.2-0.7,0.2
			C76.4,69.5,72.3,69.5,68.3,69.5z"/>
		<path class="st1" d="M28.3,28.2c0,0,6.9-2.8,18.6-3.2c7.1-0.2,18.1,0.2,24.1,3.2l-0.1,6.9l-42.5,0L28.3,28.2z"/>
	</g>
</g>
<g id="Layer_1">
</g>
</svg>
