<?xml version="1.0" encoding="utf-8"?>
<!-- Generator: Adobe Illustrator 24.0.1, SVG Export Plug-In . SVG Version: 6.00 Build 0)  -->
<svg version="1.1" xmlns="http://www.w3.org/2000/svg" xmlns:xlink="http://www.w3.org/1999/xlink" x="0px" y="0px"
	 viewBox="0 0 100 100" style="enable-background:new 0 0 100 100;" xml:space="preserve">
<style type="text/css">
	.st0{fill:url(#SVGID_1_);}
	.st1{fill:#631ED1;}
	.st2{fill:url(#SVGID_2_);}
	.st3{fill:url(#SVGID_3_);}
	.st4{fill:url(#SVGID_4_);}
	.st5{fill:url(#SVGID_5_);}
	.st6{fill:url(#SVGID_6_);}
	.st7{fill:url(#SVGID_7_);}
	.st8{fill:#FFFFFF;}
</style>
<g id="Layer_2">
	<g>
		<linearGradient id="SVGID_1_" gradientUnits="userSpaceOnUse" x1="21.9331" y1="43.8391" x2="76.313" y2="43.8391">
			<stop  offset="0" style="stop-color:#9E1CF6"/>
			<stop  offset="1" style="stop-color:#7201C5"/>
		</linearGradient>
		<path class="st0" d="M49.1,69.3c-2.3,0-4.7,0-7,0c-0.6,0-0.8-0.1-0.8-0.8c0.1-0.9,0-1.8,0-2.7c0.1-0.9-0.3-1.3-1.1-1.6
			c-6.2-2.2-11-6.1-14.3-11.7c-2.3-3.8-3.6-8-3.8-12.5c0-0.6,0.1-0.7,0.7-0.7c1.7,0,3.3,0,5,0c1.1,0,1.3-0.3,1.3-1.3
			c0.3-9.4,6.7-17.2,15.9-19.3c11.3-2.6,22.8,5.4,24.3,17c0.1,0.8,0.2,1.7,0.2,2.5c0,0.8,0.4,1.2,1.2,1.2c1.6,0,3.3,0,4.9,0
			c0.7,0,1,0.1,0.9,0.9C75.1,52,69.1,60,58.1,64.3C57.3,64.6,57,65,57,65.8c0,0.9,0,1.9,0,2.9c0,0.5-0.2,0.6-0.7,0.6
			C53.9,69.3,51.5,69.3,49.1,69.3z M64.6,38.6c0-8.5-6.9-15.5-15.4-15.5c-8.5,0-15.5,6.9-15.5,15.4c0,8.5,6.9,15.5,15.4,15.5
			C57.6,54.1,64.6,47.1,64.6,38.6z"/>
		<path class="st1" d="M47.9,11.3c15,0,26.7,10.5,28.3,24.3c0.2,2.1,0.2,2.1-1.9,2.1c-0.9,0-1.7,0-2.6,0c-0.5,0-0.7-0.1-0.7-0.7
			c-0.6-7.1-3.8-12.7-9.7-16.7c-13.1-8.9-31.2-1-33.8,14.6c0,0.2-0.1,0.5-0.1,0.7c-0.1,0.7,0.1,1.6-0.3,2c-0.4,0.4-1.4,0.1-2.1,0.1
			c-0.8,0-1.5,0-2.3,0c-0.6,0-0.8-0.1-0.8-0.8c0.3-4.7,1.6-9,4.2-12.9C31.5,15.8,39.3,11.7,47.9,11.3z"/>
		<path class="st1" d="M49.2,71.1c3,0,5.9,0,8.9,0c0.5,0,0.7,0.1,0.7,0.7c0,1.3,0,2.6,0,3.9c0,0.5-0.1,0.7-0.7,0.7c-6,0-12,0-18,0
			c-0.5,0-0.7-0.1-0.7-0.6c0-1.3,0-2.7,0-4c0-0.6,0.2-0.7,0.7-0.7C43.2,71.1,46.2,71.1,49.2,71.1z"/>
		<path class="st1" d="M49.1,78.1c3,0,5.9,0,8.9,0c0.5,0,0.8,0.1,0.8,0.7c-0.1,0.9,0,1.8,0,2.8c0,1.1-0.7,1.8-1.8,1.8
			c-5.2,0-10.5,0-15.7,0c-1.1,0-1.8-0.7-1.8-1.8c0-0.9,0-1.9,0-2.9c0-0.5,0.2-0.6,0.7-0.6C43.1,78.1,46.1,78.1,49.1,78.1z"/>
		<linearGradient id="SVGID_2_" gradientUnits="userSpaceOnUse" x1="78.1224" y1="67.5704" x2="85.1436" y2="67.5704">
			<stop  offset="0" style="stop-color:#9E1CF6"/>
			<stop  offset="1" style="stop-color:#7201C5"/>
		</linearGradient>
		<path class="st2" d="M81.6,64.1c2,0,3.5,1.5,3.5,3.5c0,1.9-1.6,3.5-3.5,3.5c-2,0-3.5-1.5-3.5-3.5C78.1,65.6,79.6,64.1,81.6,64.1z"
			/>
		<linearGradient id="SVGID_3_" gradientUnits="userSpaceOnUse" x1="14.8564" y1="15.7412" x2="20.1366" y2="15.7412">
			<stop  offset="0" style="stop-color:#9E1CF6"/>
			<stop  offset="1" style="stop-color:#7201C5"/>
		</linearGradient>
		<path class="st3" d="M14.9,15.7c0-1.4,1.2-2.6,2.6-2.6c1.4,0,2.7,1.2,2.7,2.7c0,1.4-1.2,2.6-2.6,2.6
			C16.1,18.4,14.8,17.2,14.9,15.7z"/>
		<linearGradient id="SVGID_4_" gradientUnits="userSpaceOnUse" x1="35.5318" y1="38.58" x2="62.7143" y2="38.58">
			<stop  offset="0" style="stop-color:#9E1CF6"/>
			<stop  offset="1" style="stop-color:#7201C5"/>
		</linearGradient>
		<path class="st4" d="M35.5,38.5c0-7.4,6.2-13.7,13.4-13.9c7.4-0.1,13.8,6.4,13.8,14c0,7.4-6.2,13.7-13.4,13.9
			C41.9,52.6,35.5,46.1,35.5,38.5z"/>
		<linearGradient id="SVGID_5_" gradientUnits="userSpaceOnUse" x1="76.3561" y1="26.2823" x2="81.5967" y2="26.2823">
			<stop  offset="0" style="stop-color:#9E1CF6"/>
			<stop  offset="1" style="stop-color:#7201C5"/>
		</linearGradient>
		<path class="st5" d="M78.9,28.9c-1.5,0-2.6-1.3-2.6-2.7c0-1.4,1.3-2.6,2.7-2.6c1.5,0,2.6,1.3,2.6,2.7
			C81.6,27.8,80.3,28.9,78.9,28.9z"/>
		<linearGradient id="SVGID_6_" gradientUnits="userSpaceOnUse" x1="19.2859" y1="59.6616" x2="24.5187" y2="59.6616">
			<stop  offset="0" style="stop-color:#9E1CF6"/>
			<stop  offset="1" style="stop-color:#7201C5"/>
		</linearGradient>
		<path class="st6" d="M24.5,59.7c0,1.5-1.2,2.7-2.7,2.6c-1.4,0-2.6-1.2-2.6-2.6c0-1.5,1.2-2.7,2.7-2.6
			C23.4,57.1,24.5,58.2,24.5,59.7z"/>
		<linearGradient id="SVGID_7_" gradientUnits="userSpaceOnUse" x1="18.3912" y1="77.2295" x2="23.6251" y2="77.2295">
			<stop  offset="0" style="stop-color:#9E1CF6"/>
			<stop  offset="1" style="stop-color:#7201C5"/>
		</linearGradient>
		<path class="st7" d="M23.6,77.3c0,1.4-1.2,2.6-2.6,2.6c-1.5,0-2.6-1.2-2.6-2.7c0-1.4,1.2-2.6,2.6-2.6
			C22.5,74.6,23.6,75.8,23.6,77.3z"/>
		<path class="st1" d="M49.2,85.1c0.6,0,1.3,0,1.9,0c0.7-0.1,0.8,0.2,0.8,0.8c0,2.7,0,2.7-2.7,2.7c-2.5,0-2.5-0.1-2.6-2.6
			c0-0.7,0.2-1,0.9-0.9C48,85.2,48.6,85.1,49.2,85.1z"/>
		<path class="st8" d="M49.9,46c-0.1-0.1-0.2-0.2-0.2-0.2c-1.6-2-3.3-3.9-5.1-5.8c-0.1-0.1-0.2-0.2-0.2-0.4c0-0.4,0-0.8,0-1.2
			c0-0.3,0.1-0.4,0.4-0.4c0.6,0,1.2,0,1.8,0c0.7-0.1,1.3-0.2,1.9-0.6c0.3-0.2,0.6-0.6,0.7-1c0-0.1,0-0.1-0.1-0.1c-1.3,0-2.7,0-4,0
			c-0.1,0-0.2,0-0.3,0c-0.3,0-0.4-0.1-0.4-0.4c0-0.3,0-0.6,0-1c0-0.3,0.1-0.4,0.4-0.4c0.5,0,1.1,0,1.6,0c0.9,0,1.8,0,2.7,0
			c-0.1-0.2-0.2-0.3-0.3-0.4c-0.3-0.3-0.8-0.5-1.2-0.6c-0.4-0.1-0.9-0.1-1.3-0.1c-0.4,0-0.9,0-1.3,0c-0.3,0-0.5-0.1-0.5-0.4
			c0-0.4,0-0.8,0-1.2c0-0.3,0.1-0.4,0.4-0.4c2.9,0,5.7,0,8.6,0c0.3,0,0.4,0.1,0.4,0.4c0,0.3,0,0.6,0,0.9c0,0.3-0.1,0.4-0.4,0.4
			c-0.8,0-1.5,0-2.3,0c0,0.1,0,0.1,0,0.1c0.3,0.4,0.5,0.8,0.6,1.3c0,0.1,0.1,0.2,0.2,0.1c0.5,0,1,0,1.6,0c0.3,0,0.4,0.1,0.4,0.4
			c0,0.3,0,0.6,0,0.9c0,0.3-0.1,0.4-0.4,0.4c-0.5,0-1.1,0-1.6,0c-0.1,0-0.1,0-0.1,0.1c-0.3,1.8-1.5,2.8-3.2,3.3
			c-0.3,0.1-0.7,0.2-1.1,0.2c0.1,0.1,0.3,0.3,0.4,0.4c1.5,1.7,3,3.4,4.4,5.2c0.2,0.2,0.1,0.4-0.1,0.6C51.4,46,50.6,46,49.9,46z"/>
	</g>
</g>
<g id="Layer_1">
</g>
</svg>
