<?xml version="1.0" encoding="utf-8"?>
<!-- Generator: Adobe Illustrator 24.0.1, SVG Export Plug-In . SVG Version: 6.00 Build 0)  -->
<svg version="1.1" xmlns="http://www.w3.org/2000/svg" xmlns:xlink="http://www.w3.org/1999/xlink" x="0px" y="0px"
	 viewBox="0 0 100 100" style="enable-background:new 0 0 100 100;" xml:space="preserve">
<style type="text/css">
	.st0{fill:url(#SVGID_1_);}
	.st1{fill:#631ED1;}
	.st2{fill:#FEFEFD;}
</style>
<g id="Layer_2">
	<g>
		<linearGradient id="SVGID_1_" gradientUnits="userSpaceOnUse" x1="13.0969" y1="50.5688" x2="88.2334" y2="50.5688">
			<stop  offset="0" style="stop-color:#9E1CF6"/>
			<stop  offset="1" style="stop-color:#7201C5"/>
		</linearGradient>
		<path class="st0" d="M13.1,53.3c0-1.9,0-3.7,0-5.6c0.2-0.1,0.1-0.3,0.1-0.5c0.1-1.7,0.4-3.3,0.8-4.9c3.5-15.3,15.7-26.7,31.3-29
			c0.9-0.1,1.7-0.1,2.6-0.4c1.8,0,3.6,0,5.4,0c0.1,0.2,0.2,0.1,0.4,0.1c3.8,0.3,7.6,1.1,11.1,2.6C79.1,22.1,87,33.2,88.1,48.9
			c0.5,6.7-1.1,13-4.1,19c-7.7,15-25,23.1-41.4,19.4c-15.4-3.5-26.8-15.7-29.1-31.3C13.4,55.1,13.4,54.2,13.1,53.3z M36.6,70.7
			C36.6,72,37,73.1,38,74c1.3,1.2,3.5,1.7,5.7,0.1c4.6,1.3,9.2,1.3,13.8,0c1,0.6,2,1.1,3.1,0.9c2.5-0.3,3.9-1.8,4.1-4.5
			c1.9-1.2,3.5-2.7,4.8-4.4c4.8-6,6.6-12.8,5.2-20.4c-1.1-5.7-3.9-10.5-8.4-14.2c-4.9-4-10.6-5.9-17-5.6c-3.7,0.2-7.1,1.1-10.4,2.8
			c-1.2,0.6-2.5,1.3-3.4,2.4c-1.3-0.1-1.7,0.2-1.9,1.6c-0.2,0-0.4,0.2-0.5,0.4c-1,1.2-2.1,2.3-3,3.6c-3,4.5-4.4,9.5-4.1,15
			c0.2,4.1,1.3,7.9,3.4,11.5C31.3,66.2,33.6,68.7,36.6,70.7z"/>
		<path class="st1" d="M57.5,74.2c-4.6,1.3-9.2,1.3-13.8,0c1.2-1.2,1.6-2.6,1.5-4.3C44.9,63,44.6,56,44.2,49.1
			c0-0.4,0.1-0.8,0.4-1.1c0.9-0.9,1.8-1.8,2.7-2.7c0.5-0.5,0.7-1,0.7-1.8c0-3.1,0-6.3,0-9.4c0-0.6,0-1.2,0-1.8
			c-0.1-0.8-0.7-1.3-1.4-1.2c-0.7,0.1-1.1,0.6-1.1,1.5c0,3.3,0,6.7,0,10c0,0.6-0.1,1.1-0.6,1.5c-0.9,0.9-1.8,1.8-2.7,2.7
			c-0.4,0.4-0.6,0.9-0.6,1.5c0.1,2.1,0.2,4.2,0.3,6.4c0.3,5.3,0.5,10.5,0.8,15.8c0.1,1.2-0.7,2.1-1.8,2c-1.1,0-1.8-0.8-1.7-2
			c0.1-2.8,0.3-5.5,0.4-8.3c0.2-4.7,0.5-9.3,0.7-14c0-0.6-0.2-1-0.6-1.4c-0.9-0.9-1.9-1.9-2.8-2.8c-0.3-0.3-0.5-0.7-0.5-1.1
			c0-3.3,0-6.7,0-10c0-0.7-0.2-1.3-0.8-1.7c0.9-1.1,2.2-1.7,3.4-2.4c3.2-1.7,6.7-2.7,10.4-2.8c6.4-0.3,12.1,1.6,17,5.6
			c4.5,3.7,7.4,8.5,8.4,14.2c1.4,7.6-0.4,14.4-5.2,20.4c-1.4,1.7-3,3.2-4.8,4.4c-0.3-6.5-0.6-13-0.9-19.6c0-1,0-1.7,1-2.1
			c0.2-0.1,0.3-0.2,0.4-0.4c1.7-1.6,2.1-3.6,2.2-5.8c0.1-2.7-0.7-5.3-1.6-7.9c-0.8-2.2-2.9-3.7-5.1-3.8c-2.7-0.1-4.8,1.1-5.8,3.5
			c-1.1,2.8-1.9,5.6-1.7,8.7c0.1,2.6,1,4.8,3.3,6.2c0.4,0.2,0.3,0.5,0.3,0.8c-0.1,1.7-0.2,3.4-0.2,5.1c-0.2,4.8-0.4,9.7-0.7,14.5
			C55.9,71.6,56.3,73,57.5,74.2z M44.2,37.6c0-1.7,0-3.3,0-5c0-1-0.6-1.6-1.5-1.5c-0.7,0.1-1.1,0.6-1.1,1.6c0,3.2,0,6.3,0,9.5
			c0,0.3,0,0.6,0.1,0.9c0.3,0.8,1.2,1.1,1.9,0.6c0.5-0.3,0.6-0.8,0.6-1.4C44.2,40.8,44.2,39.2,44.2,37.6z M40.3,37.6
			c0-1.7,0-3.4,0-5c0-0.9-0.5-1.4-1.3-1.4c-0.7,0-1.2,0.5-1.2,1.4c0,3.4,0,6.8,0,10.2c0,0.5,0.2,1,0.7,1.2c0.9,0.5,1.8-0.1,1.9-1.2
			C40.3,41,40.3,39.3,40.3,37.6z"/>
		<path class="st1" d="M36.6,70.7c-2.9-1.9-5.2-4.5-7-7.5c-2.1-3.5-3.2-7.3-3.4-11.5c-0.3-5.5,1.2-10.4,4.1-15
			c0.9-1.3,1.9-2.5,3-3.6c0.1-0.2,0.3-0.3,0.5-0.4c0,3.6,0,7.2,0,10.8c0,0.7,0.2,1.3,0.8,1.8c0.9,0.8,1.7,1.7,2.6,2.5
			c0.4,0.4,0.6,0.8,0.5,1.3c-0.1,2.3-0.2,4.5-0.3,6.8C37.1,60.9,36.8,65.8,36.6,70.7z"/>
		<path class="st2" d="M57.5,74.2C56.3,73,55.9,71.6,56,70c0.3-4.8,0.4-9.7,0.7-14.5c0.1-1.7,0.2-3.4,0.2-5.1c0-0.3,0.1-0.6-0.3-0.8
			c-2.3-1.4-3.2-3.6-3.3-6.2c-0.2-3,0.6-5.9,1.7-8.7c1-2.3,3.1-3.5,5.8-3.5c2.2,0.1,4.3,1.6,5.1,3.8c0.9,2.5,1.7,5.1,1.6,7.9
			C67.4,45,67,47,65.3,48.6c-0.1,0.1-0.3,0.3-0.4,0.4c-1,0.4-1.1,1.2-1,2.1c0.3,6.5,0.6,13,0.9,19.6c-0.2,2.7-1.6,4.2-4.1,4.5
			C59.5,75.3,58.5,74.8,57.5,74.2z M59.1,60C59.1,60,59.1,60,59.1,60c0,0.9-0.1,1.8-0.1,2.7c-0.1,2.7-0.2,5.3-0.4,8
			c0,0.9,0.3,1.4,1.1,1.7c1.4,0.5,2.6-0.4,2.5-2c-0.3-6.9-0.6-13.9-0.9-20.8c-0.1-1.1,0.3-1.8,1.3-2.3c1.3-0.6,2-1.7,2.2-3.1
			c0.5-3-0.3-5.9-1.4-8.6c-0.5-1.3-1.6-1.9-3-1.9c-1.4,0-2.5,0.6-3,1.9c-0.9,2.3-1.6,4.7-1.5,7.3c0.1,2.2,0.7,4,2.9,4.9
			c0.7,0.3,0.8,0.9,0.8,1.6C59.4,52.9,59.2,56.4,59.1,60z"/>
		<path class="st2" d="M36.6,70.7c0.3-4.9,0.5-9.8,0.8-14.6c0.1-2.3,0.2-4.5,0.3-6.8c0-0.6-0.1-1-0.5-1.3c-0.9-0.8-1.7-1.7-2.6-2.5
			c-0.5-0.5-0.8-1.1-0.8-1.8c0-3.6,0-7.2,0-10.8c0.2-1.4,0.5-1.7,1.9-1.6c0.6,0.4,0.8,1,0.8,1.7c0,3.3,0,6.7,0,10
			c0,0.5,0.1,0.8,0.5,1.1c1,0.9,1.9,1.9,2.8,2.8c0.4,0.4,0.6,0.9,0.6,1.4c-0.2,4.7-0.5,9.3-0.7,14c-0.1,2.8-0.3,5.5-0.4,8.3
			c-0.1,1.2,0.7,2,1.7,2c1.1,0,1.9-0.8,1.8-2c-0.3-5.3-0.5-10.5-0.8-15.8c-0.1-2.1-0.2-4.2-0.3-6.4c0-0.6,0.2-1.1,0.6-1.5
			c0.9-0.9,1.8-1.8,2.7-2.7c0.5-0.4,0.6-0.9,0.6-1.5c0-3.3,0-6.7,0-10c0-0.9,0.4-1.4,1.1-1.5c0.8-0.1,1.4,0.4,1.4,1.2
			c0,0.6,0,1.2,0,1.8c0,3.1,0,6.3,0,9.4c0,0.7-0.2,1.3-0.7,1.8c-0.9,0.9-1.8,1.8-2.7,2.7c-0.3,0.3-0.4,0.6-0.4,1.1
			c0.4,6.9,0.7,13.8,1.1,20.7c0.1,1.7-0.3,3.1-1.5,4.3c-2.2,1.6-4.4,1.1-5.7-0.1C37,73.1,36.6,72,36.6,70.7z"/>
		<path class="st2" d="M44.2,37.6c0,1.6,0,3.2,0,4.8c0,0.6-0.1,1.1-0.6,1.4c-0.7,0.4-1.6,0.1-1.9-0.6c-0.1-0.3-0.1-0.6-0.1-0.9
			c0-3.2,0-6.3,0-9.5c0-1,0.4-1.5,1.1-1.6c0.9-0.1,1.5,0.4,1.5,1.5C44.2,34.3,44.2,36,44.2,37.6z"/>
		<path class="st2" d="M40.3,37.6c0,1.7,0,3.4,0,5.1c0,1.1-1,1.7-1.9,1.2c-0.5-0.3-0.7-0.7-0.7-1.2c0-3.4,0-6.8,0-10.2
			c0-0.8,0.5-1.3,1.2-1.4c0.8,0,1.3,0.5,1.3,1.4C40.3,34.2,40.3,35.9,40.3,37.6z"/>
		<path class="st1" d="M59.1,60c0.2-3.6,0.3-7.1,0.5-10.7c0-0.7-0.1-1.3-0.8-1.6c-2.2-0.9-2.9-2.7-2.9-4.9c-0.1-2.5,0.6-4.9,1.5-7.3
			c0.5-1.3,1.6-1.9,3-1.9c1.4,0,2.5,0.6,3,1.9c1,2.8,1.9,5.6,1.4,8.6c-0.2,1.4-0.9,2.5-2.2,3.1c-1.1,0.5-1.4,1.1-1.3,2.3
			c0.3,6.9,0.6,13.9,0.9,20.8c0.1,1.6-1.1,2.5-2.5,2c-0.8-0.3-1.1-0.8-1.1-1.7c0.1-2.7,0.2-5.3,0.4-8C59,61.8,59,60.9,59.1,60
			C59.1,60,59.1,60,59.1,60z"/>
	</g>
</g>
<g id="Layer_1">
</g>
</svg>
