<?xml version="1.0" encoding="utf-8"?>
<!-- Generator: Adobe Illustrator 24.0.1, SVG Export Plug-In . SVG Version: 6.00 Build 0)  -->
<svg version="1.1" xmlns="http://www.w3.org/2000/svg" xmlns:xlink="http://www.w3.org/1999/xlink" x="0px" y="0px"
	 viewBox="0 0 100 100" style="enable-background:new 0 0 100 100;" xml:space="preserve">
<style type="text/css">
	.st0{fill:#CBE5FE;}
	.st1{fill:url(#SVGID_1_);}
	.st2{fill:#FEFDFC;}
	.st3{fill:url(#SVGID_2_);}
	.st4{fill:url(#SVGID_3_);}
	.st5{fill:url(#SVGID_4_);}
	.st6{fill:url(#SVGID_5_);}
	.st7{fill:url(#SVGID_6_);}
	.st8{fill:url(#SVGID_7_);}
	.st9{fill:url(#SVGID_8_);}
	.st10{fill:url(#SVGID_9_);}
	.st11{fill:url(#SVGID_10_);}
	.st12{fill:url(#SVGID_11_);}
	.st13{fill:url(#SVGID_12_);}
	.st14{fill:url(#SVGID_13_);}
	.st15{fill:url(#SVGID_14_);}
	.st16{fill:url(#SVGID_15_);}
</style>
<g id="Layer_2">
	<g>
		<ellipse class="st0" cx="51.4" cy="49.8" rx="37.8" ry="37.7"/>
		<linearGradient id="SVGID_1_" gradientUnits="userSpaceOnUse" x1="16.9565" y1="29.0269" x2="42.1835" y2="29.0269">
			<stop  offset="0" style="stop-color:#9E1CF6"/>
			<stop  offset="1" style="stop-color:#7201C5"/>
		</linearGradient>
		<path class="st1" d="M34.4,16.4c2.9,1.4,5.1,3.5,6.5,6.4c2.3,4.6,1.5,10.5-2,14.4c-3,3.4-6.8,4.9-11.3,4.5
			c-4.6-0.4-8.1-2.9-10.5-6.9c-0.1-0.1-0.1-0.2-0.2-0.3c0.1-0.6,0.4-1.1,0.7-1.6c0.3,0.4,0.2,0.9,0.7,1.1c0.8,0.3,1.6,0.6,2.4,0.8
			c0.3,0.1,0.5,0,0.6-0.3c0.4-0.8,0.8-1.6,1.3-2.4c0.1-0.2,0.2-0.4,0.1-0.6c-0.7-1.4-1-2.9-1.3-4.3c-0.1-0.4,0.3-0.6,0.5-0.9
			c0.3,1.7,0.7,3.3,1.3,4.8c0.2,0.4,0.4,0.6,0.8,0.7c1.2,0.3,2.3,0.6,3.5,0.8c0.3,0.1,0.6,0,0.8-0.3c1.1-1.2,2.2-2.5,3.3-3.7
			c0.2-0.2,0.3-0.5,0.2-0.8c-0.4-1.2-0.7-2.4-1.1-3.6c-0.1-0.3-0.3-0.5-0.6-0.6c-1.6-0.5-3.1-0.9-4.8-1.1c0.2-0.3,0.4-0.5,0.8-0.5
			c1.5,0.2,2.9,0.6,4.3,1.1c0.3,0.1,0.5,0.1,0.8-0.1c0.9-0.5,1.8-1,2.7-1.5c0.3-0.2,0.4-0.3,0.3-0.7c-0.2-1-0.6-1.9-1-2.8
			c-0.2-0.3-0.4-0.6-0.7-0.7C33.2,16.8,33.8,16.5,34.4,16.4z M33.5,37.8c0.6,0.1,1.2-0.1,1.7-0.6c0.9-0.7,1.6-1.5,2.3-2.4
			c0.2-0.2,0.3-0.4,0.2-0.7c-0.2-1.5-0.4-2.9-1-4.3c-0.1-0.2-0.2-0.4-0.5-0.5c-1.1-0.2-2.1-0.4-3.2-0.6c-0.3-0.1-0.5,0-0.7,0.3
			c-1.1,1.2-2.2,2.5-3.4,3.7c-0.2,0.2-0.2,0.4-0.2,0.7c0.2,1,0.5,2.1,0.7,3.1c0.1,0.4,0.3,0.6,0.6,0.7
			C31.1,37.5,32.2,37.8,33.5,37.8z M40.9,28.5c0-0.6,0-1.2-0.1-1.8c-0.2-1.6-0.2-1.6-1.8-1.5c-0.4,0-0.6,0.1-0.7,0.5
			c-0.2,1-0.5,2-1,2.9c-0.1,0.3-0.2,0.5,0,0.8c0.6,1.3,0.8,2.6,1,4c0,0.2-0.1,0.6,0.4,0.6c0.4,0,0.8,0.1,1.1-0.4
			C40.5,32,41,30.3,40.9,28.5z M28.8,40.4c1.7,0,3.3-0.4,4.9-1c0.3-0.1,0.6-0.3,0.5-0.7c-0.1-0.5-0.4-0.4-0.6-0.4
			c-1.4,0-2.8-0.3-4.1-0.9c-0.3-0.1-0.5-0.1-0.8,0c-0.9,0.4-1.9,0.8-2.9,0.9c-0.3,0-0.6,0.1-0.5,0.5c0.1,0.4-0.3,0.9,0.4,1.1
			C26.7,40.3,27.8,40.4,28.8,40.4z M34,17.7c0.5,1.1,0.9,2.2,1.1,3.4c0,0.2,0.3,0.4,0.4,0.5c0.8,0.6,1.5,1.2,2,2
			c0.5,1,1.3,1.2,2.3,1c0,0,0,0,0.1,0c0.3,0,0.4-0.1,0.3-0.4C39,21.2,37,19,34,17.7z M18.8,34.9c1.4,2.2,3.3,3.8,5.7,4.8
			c0.1-0.7,0.2-1.3-0.6-1.7c-0.9-0.4-1.5-1.2-2.1-2c-0.1-0.2-0.2-0.4-0.5-0.5C20.5,35.3,19.6,35.1,18.8,34.9z"/>
		<path class="st0" d="M30.2,79.9c-3.8-2.5-7-5.7-9.7-9.4c-0.3-0.4-0.5-0.7-0.8-1.1c0.9-2.6,2.3-4.9,4.1-6.9c2-2.4,3.4-5.1,4-8.2
			c0-0.2,0-0.5,0.3-0.7c0,0.5,0.1,1,0.1,1.4c-0.1,1.3-0.5,2.6-1,3.8c-0.8,2.1-2,4.1-3,6.2c-1.1,2.3-0.6,5,1.2,6.7
			c0.8,0.7,1.7,1.2,2.6,1.7c1.1,0.6,2.1,1.4,2.8,2.5C31.8,77.4,31.5,79.2,30.2,79.9z"/>
		<path class="st2" d="M25.5,22.4c1.6,0.2,3.2,0.5,4.8,1.1c0.3,0.1,0.5,0.3,0.6,0.6c0.3,1.2,0.7,2.4,1.1,3.6
			c0.1,0.3,0.1,0.5-0.2,0.8c-1.1,1.2-2.2,2.4-3.3,3.7c-0.2,0.3-0.5,0.3-0.8,0.3c-1.2-0.2-2.4-0.4-3.5-0.8c-0.4-0.1-0.6-0.3-0.8-0.7
			c-0.7-1.6-1-3.2-1.3-4.8C23.1,24.8,24.4,23.7,25.5,22.4z"/>
		<linearGradient id="SVGID_2_" gradientUnits="userSpaceOnUse" x1="19.2818" y1="62.3924" x2="32.136" y2="62.3924">
			<stop  offset="0" style="stop-color:#9E1CF6"/>
			<stop  offset="1" style="stop-color:#7201C5"/>
		</linearGradient>
		<path class="st3" d="M30.2,79.9c1.3-0.7,1.6-2.5,0.7-4.1c-0.7-1.1-1.7-1.8-2.8-2.5c-0.9-0.5-1.8-1-2.6-1.7
			c-1.9-1.7-2.4-4.4-1.2-6.7c1-2.1,2.1-4.1,3-6.2c0.5-1.2,0.9-2.5,1-3.8c0-0.5-0.1-0.9-0.1-1.4c-0.3,0.2-0.2,0.5-0.3,0.7
			c-0.6,3.1-2,5.8-4,8.2c-1.8,2.1-3.2,4.4-4.1,6.9c-0.2-0.2-0.4-0.5-0.5-0.8c1.1-2.9,2.9-5.3,4.8-7.6c1.8-2.3,2.8-4.9,3.2-7.8
			c0-0.2,0-0.3-0.2-0.4c-0.4-0.1-0.6-0.3-0.9-0.5c0.6-1.8,0.2-2.9-1.5-3.7c-1.5-0.7-3-1.5-4.5-2.2c0.3-0.6,0.6-1.2,0.8-1.8
			c0.1-0.3,0.3-0.3,0.5-0.2c1.1,0.5,2.2,1.1,3.3,1.6c0.3,0.2,0.3,0.4,0.2,0.6c-0.1,0.3-0.2,0.6-0.4,0.8c-0.2,0.4-0.1,0.5,0.3,0.7
			c0.5,0.3,0.8,0.3,0.9-0.3c0-0.1,0.1-0.2,0.2-0.3c0.4-0.8,0.7-0.8,1.2-0.1c0.6,0.8,0.9,1.7,0.5,2.6c-0.1,0.3-0.2,0.6,0.2,0.8
			c0.2,0.1,0.3,0.3,0.4,0.5c0.1,1.1,0.6,2.1,0.6,3.2c0,1.9-0.6,3.6-1.3,5.3c-0.8,1.9-1.8,3.6-2.7,5.5c-0.8,1.8-0.8,3.6,0.5,5.2
			c0.7,1,1.8,1.5,2.8,2.1c1.3,0.7,2.5,1.5,3.3,2.8c1.1,1.7,0.8,3.7-0.6,4.9C30.6,80.3,30.4,80.1,30.2,79.9z M27.6,51.7
			c0-0.3-0.2-0.4-0.4-0.4c-0.3,0-0.4,0.2-0.4,0.4c0,0.2,0.2,0.4,0.4,0.4C27.5,52.1,27.6,52,27.6,51.7z"/>
		<linearGradient id="SVGID_3_" gradientUnits="userSpaceOnUse" x1="49.9701" y1="80.6145" x2="60.5836" y2="80.6145">
			<stop  offset="0" style="stop-color:#9E1CF6"/>
			<stop  offset="1" style="stop-color:#7201C5"/>
		</linearGradient>
		<path class="st4" d="M50.1,86.1c-0.2-0.8,0-1.4,0.5-2.1c0.7-0.9,1.5-1.8,2.1-2.9c0.6-0.7,1.1-1.3,1.5-2.1c0.8-0.7,1.3-1.8,2-2.6
			c0.2-0.2,0.3-0.4,0.5-0.6c0.4-0.5,1-0.8,1.6-0.6c0.9,0.3,1.6,0.8,2.1,1.6c0.5,0.7,0.2,1.4-0.3,2c-1.7,2.2-3.3,4.5-5,6.7
			c-0.1,0.1-0.1,0.2-0.2,0.4c-0.9,0.2-1.8,0.3-2.7,0.3C51.5,86.1,50.8,86.2,50.1,86.1z"/>
		<path class="st2" d="M32.7,17.2c0.4,0.1,0.6,0.4,0.7,0.7c0.4,0.9,0.9,1.8,1,2.8c0.1,0.3,0,0.5-0.3,0.7c-0.9,0.5-1.8,1-2.7,1.5
			c-0.3,0.2-0.5,0.2-0.8,0.1c-1.4-0.5-2.8-0.9-4.3-1.1c0.2-0.6,0.9-0.8,1.3-1.2c0.6-0.6,1.3-0.8,1.9-1.4c0.8-0.8,1.8-1.1,2.7-1.8
			C32.3,17.4,32.5,17.3,32.7,17.2z"/>
		<path class="st2" d="M21.5,27.1c0.4,1.5,0.6,3,1.3,4.3c0.1,0.2,0,0.4-0.1,0.6c-0.4,0.8-0.9,1.6-1.3,2.4c-0.1,0.3-0.3,0.4-0.6,0.3
			c-0.8-0.2-1.6-0.5-2.4-0.8c-0.5-0.2-0.5-0.7-0.7-1.1c0.4-1.1,1.1-2.1,1.7-3.1c0.4-0.8,1.1-1.5,1.6-2.3
			C21.1,27.2,21.3,27.1,21.5,27.1z"/>
		<linearGradient id="SVGID_4_" gradientUnits="userSpaceOnUse" x1="56.4886" y1="82.6979" x2="62.1555" y2="82.6979">
			<stop  offset="0" style="stop-color:#9E1CF6"/>
			<stop  offset="1" style="stop-color:#7201C5"/>
		</linearGradient>
		<path class="st5" d="M56.5,85.6c1-1.6,2.2-3,3.3-4.6c0.2-0.3,0.4-0.6,0.6-0.8c0.4-0.5,0.7-0.5,1.2-0.2c0.6,0.4,0.7,0.7,0.3,1.3
			c-0.8,1.2-1.7,2.3-2.5,3.5c-0.1,0.1-0.1,0.2-0.2,0.3C58.3,85.4,57.4,85.6,56.5,85.6z"/>
		<path class="st2" d="M35.4,48.7c0-0.2,0.1-0.3,0.2-0.4c2.7-3.1,5.9-5.5,10-6.4c3-0.6,6-0.4,9,0.3c0.1,0,0.1,0.1,0.2,0.1
			c1.2,3.8,2.5,7.6,3.7,11.3c0,0.2-0.1,0.3-0.2,0.4c-2.7,3.1-6,5.5-10.2,6.4C45,61,42,60.9,39,60C37.8,56.2,36.6,52.4,35.4,48.7z
			 M46.2,50.6c0,0.1,0,0.2-0.1,0.2c-0.5,0.2-1.1,0.5-1.6,0.5c-0.3,0-0.3-0.6-0.4-0.9c0-0.1,0-0.2-0.1-0.2c-0.1-0.3-0.4-0.4-0.7-0.3
			c-0.3,0.1-0.4,0.3-0.3,0.6c0.1,0.3,0.2,0.7,0.3,1c0,0.1,0.1,0.3-0.1,0.4c-0.5,0.2-1.1,0.5-1.6,0.4c-0.4,0-0.3-0.7-0.5-1
			c0,0,0-0.1,0-0.1c-0.1-0.3-0.3-0.4-0.6-0.3c-0.3,0.1-0.4,0.3-0.3,0.6c0.1,0.3,0.2,0.6,0.3,0.9c0.1,0.3,0,0.4-0.2,0.4
			c-0.5,0.1-1,0.3-1.5,0.5c-0.3,0.1-0.4,0.3-0.3,0.6c0.1,0.3,0.3,0.4,0.6,0.3c0.3-0.1,0.5-0.2,0.8-0.2c1-0.3,1-0.3,1.4,0.7
			c0,0.1,0.1,0.2,0.1,0.2c0.1,0.3,0.4,0.4,0.7,0.3c0.3-0.1,0.4-0.3,0.3-0.6c-0.1-0.3-0.2-0.6-0.3-0.9c0-0.1-0.1-0.3,0-0.4
			c0.5-0.2,1.1-0.5,1.6-0.5c0.3,0,0.3,0.6,0.4,0.9c0,0.1,0,0.1,0.1,0.2c0.1,0.3,0.3,0.5,0.7,0.4c0.4-0.1,0.4-0.4,0.3-0.8
			c-0.1-0.3-0.2-0.5-0.3-0.8c-0.1-0.2-0.1-0.3,0.1-0.4c0.5-0.2,1-0.5,1.5-0.4c0.4,0,0.3,0.7,0.5,1c0,0,0,0.1,0,0.1
			c0.1,0.3,0.4,0.4,0.7,0.3c0.3-0.1,0.4-0.3,0.3-0.6c-0.1-0.3-0.2-0.6-0.3-0.9c0-0.2-0.1-0.3,0.1-0.4c0.5-0.2,1.1-0.5,1.6-0.4
			c0.3,0,0.3,0.7,0.4,1c0,0.1,0,0.1,0.1,0.2c0.1,0.3,0.3,0.4,0.6,0.3c0.3-0.1,0.4-0.3,0.3-0.6c-0.1-0.3-0.2-0.6-0.3-0.9
			c0-0.1-0.1-0.3,0.1-0.4c0.5-0.2,1.1-0.5,1.6-0.4c0.3,0,0.3,0.7,0.5,1c0,0.1,0,0.1,0.1,0.2c0.1,0.3,0.4,0.4,0.7,0.3
			c0.3-0.1,0.4-0.3,0.3-0.6c-0.1-0.3-0.2-0.6-0.3-0.8c-0.1-0.3,0-0.5,0.3-0.6c0.5-0.1,0.9-0.3,1.3-0.4c0.3-0.1,0.5-0.3,0.4-0.6
			c-0.1-0.3-0.4-0.4-0.7-0.4c-0.4,0.1-0.7,0.2-1.1,0.3c-0.8,0.2-0.7,0.2-1-0.5c-0.1-0.4-0.2-1-0.8-0.8c-0.7,0.2-0.3,0.8-0.2,1.1
			c0.2,0.6,0.2,0.8-0.5,1c-1.1,0.3-1.1,0.3-1.5-0.7c-0.1-0.3-0.3-0.6-0.7-0.5c-0.4,0.1-0.4,0.4-0.3,0.8c0,0.1,0.1,0.3,0.1,0.4
			c0.3,0.5,0.1,0.8-0.5,0.9c-1.1,0.3-1.1,0.3-1.6-0.8c-0.1-0.3-0.3-0.6-0.7-0.5c-0.4,0.1-0.4,0.5-0.3,0.8C46,50,46.1,50.3,46.2,50.6
			z"/>
		<linearGradient id="SVGID_5_" gradientUnits="userSpaceOnUse" x1="62.9888" y1="61.0154" x2="81.431" y2="61.0154">
			<stop  offset="0" style="stop-color:#9E1CF6"/>
			<stop  offset="1" style="stop-color:#7201C5"/>
		</linearGradient>
		<path class="st6" d="M63.3,64c-0.4-1.4-0.4-2.9-0.1-4.4c0.6-3.1,2.3-5.5,5.3-6.8c3.3-1.5,6.6-1.1,9.4,1.1
			c4.2,3.3,4.7,9.1,1.2,13.2c-1.1,1.3-2.4,2.3-4,2.9c-1.3-0.7-2.5-1.3-3.8-2C68.6,66.7,66,65.4,63.3,64z"/>
		<path class="st2" d="M51.6,24.1c2.9-1.2,6.7,0.5,7.7,3.4c-0.3,0.1-0.6,0.5-1.1,0.1c-0.2-0.2-0.3,0.1-0.3,0.3
			c0.1,0.4-0.2,0.7-0.6,0.6c-0.4-0.1-0.4,0-0.4,0.4c0.1,0.4-0.4,0.8-0.8,0.8c-0.1,0-0.2,0-0.3,0.1c-0.1,0.1,0,0.2,0,0.3
			c0.3,0.5,0,0.9-0.5,1c-0.3,0.1-0.4,0.2-0.2,0.5c0.4,0.4,0.3,0.8-0.2,1c-0.3,0.1-0.3,0.3,0,0.5c0.4,0.3,0.4,0.8,0,1.1
			c-0.2,0.1-0.2,0.4,0,0.4c0.7,0.1,0.5,0.7,0.7,1.1c-2.9,1.2-6.4-0.4-7.7-3.4c0.4-0.1,0.7-0.6,1.3-0.2c0.1,0.1,0.3-0.1,0.3-0.3
			c0-0.7,0.2-0.8,0.9-0.8c0.3,0,0.4-0.1,0.3-0.4c-0.2-0.5,0.1-0.8,0.6-0.8c0.3,0,0.4-0.1,0.3-0.4c-0.3-0.6-0.1-0.9,0.5-1.1
			c0.3-0.1,0.3-0.2,0.1-0.4c-0.4-0.5-0.4-0.8,0.1-1.2c0.2-0.1,0.2-0.3,0-0.4c-0.5-0.3-0.5-0.6,0-1c0.2-0.1,0.1-0.4-0.1-0.4
			C51.7,24.9,51.8,24.4,51.6,24.1z"/>
		<linearGradient id="SVGID_6_" gradientUnits="userSpaceOnUse" x1="35.7359" y1="71.0112" x2="46.35" y2="71.0112">
			<stop  offset="0" style="stop-color:#9E1CF6"/>
			<stop  offset="1" style="stop-color:#7201C5"/>
		</linearGradient>
		<path class="st7" d="M42.2,73.5c-0.9,0.9-1.5,1.9-2.2,2.9c-0.9,1.2-1.7,1.3-2.9,0.4c-0.2-0.2-0.4-0.3-0.6-0.5
			c-0.8-0.6-1-1.6-0.4-2.4c1.9-2.6,3.8-5.1,5.6-7.6c0.3-0.4,0.5-0.7,0.8-1.1c0.4-0.5,1-0.6,1.6-0.4c0.7,0.3,1.3,0.7,1.7,1.2
			c0.6,0.6,0.5,1.5,0,2.1c-0.6,0.8-1.2,1.7-1.9,2.5c-0.2,0.2-0.4,0.4-0.4,0.7C43.1,72,42.6,72.7,42.2,73.5z"/>
		<path class="st2" d="M63.3,64c2.7,1.4,5.3,2.7,8,4.1c1.3,0.7,2.5,1.3,3.8,2c-1.7,0.8-3.5,1.1-5.3,0.8c-0.6-0.1-0.9,0.1-1.2,0.6
			c-0.6,1.3-1.1,2.5-1.7,3.8c-0.5,1.1-1.6,1.5-2.6,1c-1-0.5-1.3-1.6-0.6-2.7c0.7-1.1,1.3-2.2,2-3.4c0.5-0.8,0.5-0.9-0.2-1.6
			C64.4,67.3,63.5,65.8,63.3,64z"/>
		<path class="st2" d="M42.2,73.5c0.4-0.8,0.9-1.5,1.6-2.1c3.5,2.5,6.9,5.1,10.4,7.6c-0.4,0.8-0.9,1.5-1.5,2.1
			c-3.3-2.4-6.6-4.9-9.9-7.3C42.5,73.7,42.3,73.6,42.2,73.5z"/>
		<linearGradient id="SVGID_7_" gradientUnits="userSpaceOnUse" x1="52.8626" y1="66.5195" x2="58.8542" y2="66.5195">
			<stop  offset="0" style="stop-color:#9E1CF6"/>
			<stop  offset="1" style="stop-color:#7201C5"/>
		</linearGradient>
		<path class="st8" d="M55.9,69.5c-1.6,0-3-1.3-3-2.9c0-1.6,1.4-3,3-3c1.6,0,3,1.3,3,2.9C58.9,68.1,57.5,69.5,55.9,69.5z"/>
		<linearGradient id="SVGID_8_" gradientUnits="userSpaceOnUse" x1="54.7377" y1="47.9815" x2="60.2747" y2="47.9815">
			<stop  offset="0" style="stop-color:#9E1CF6"/>
			<stop  offset="1" style="stop-color:#7201C5"/>
		</linearGradient>
		<path class="st9" d="M58.4,53.6c-1.2-3.8-2.5-7.6-3.7-11.3c1.1,0.1,2.1,0.6,3,1c0,0.1,0.1,0.3,0.1,0.4c0.8,2.5,1.6,4.9,2.4,7.4
			C59.8,52.1,59.3,53,58.4,53.6z"/>
		<linearGradient id="SVGID_9_" gradientUnits="userSpaceOnUse" x1="33.5198" y1="54.3297" x2="39.0482" y2="54.3297">
			<stop  offset="0" style="stop-color:#9E1CF6"/>
			<stop  offset="1" style="stop-color:#7201C5"/>
		</linearGradient>
		<path class="st10" d="M35.4,48.7c1.2,3.8,2.5,7.6,3.7,11.3C38,59.8,37,59.4,36,59c-0.1-0.2-0.1-0.5-0.2-0.7
			c-0.8-2.4-1.5-4.7-2.3-7.1C33.9,50.2,34.5,49.3,35.4,48.7z"/>
		<path class="st2" d="M20.1,46.5c1.5,0.7,3,1.5,4.5,2.2c1.7,0.8,2.2,1.9,1.5,3.7c-0.6,0.8-1.3,1.3-2.4,1.2c-1.7-0.2-2.7-2-1.9-3.5
			c0.2-0.4,0.1-0.5-0.2-0.7c-0.7-0.3-1.3-0.6-2-0.9c-0.3-0.1-0.4-0.3-0.2-0.6C19.7,47.4,19.8,46.9,20.1,46.5z"/>
		<linearGradient id="SVGID_10_" gradientUnits="userSpaceOnUse" x1="34.158" y1="68.4385" x2="40.9264" y2="68.4385">
			<stop  offset="0" style="stop-color:#9E1CF6"/>
			<stop  offset="1" style="stop-color:#7201C5"/>
		</linearGradient>
		<path class="st11" d="M35.2,72.7c-0.4-0.1-0.7-0.3-1-0.6c-0.2-0.3-0.1-0.6,0.1-0.9c1.6-2.1,3.1-4.3,4.7-6.4
			c0.6-0.8,1.1-0.6,1.7,0.2c0.2,0.2,0.1,0.5-0.1,0.7c-1.6,2.2-3.2,4.3-4.8,6.5C35.8,72.4,35.6,72.6,35.2,72.7z"/>
		<path class="st2" d="M47.8,31.7c-1.1-2.8,0.6-6.5,3.3-7.4c0.1,0.3,0.3,0.6-0.1,0.8c-0.2,0.1-0.1,0.4,0.1,0.4
			c0.2,0,0.3,0.1,0.3,0.3c0,0.2-0.1,0.2-0.3,0.3c-0.3,0.1-0.3,0.3-0.1,0.5c0.5,0.3,0.5,0.6-0.1,0.9c-0.2,0.1-0.2,0.3-0.1,0.4
			c0.3,0.4,0.1,0.8-0.4,0.8c-0.3,0-0.3,0.2-0.2,0.4c0.2,0.5,0,0.7-0.5,0.7c-0.3,0-0.4,0.1-0.3,0.4c0.2,0.3,0,0.4-0.2,0.5
			c-0.2,0.2-0.3,0.3-0.6,0c-0.1-0.2-0.4,0-0.4,0.1C48.6,31.6,48.1,31.5,47.8,31.7z"/>
		<path class="st2" d="M59.5,28.1c1.1,2.8-0.5,6.2-3.3,7.4c-0.1-0.3-0.5-0.7,0.1-1c0.2-0.1,0.1-0.4-0.1-0.4c-0.4,0-0.3-0.2-0.3-0.5
			c0-0.2-0.1-0.4,0.3-0.4c0.3-0.1,0.3-0.2,0.1-0.5c-0.4-0.3-0.3-0.7,0.1-0.8c0.3-0.1,0.4-0.2,0.2-0.5c-0.3-0.4-0.1-0.8,0.4-0.8
			c0.3,0,0.4-0.2,0.2-0.4c-0.2-0.3,0-0.4,0.1-0.6c0.1-0.2,0.3-0.2,0.5-0.1c0.1,0.1,0.3,0.1,0.4,0c0.1-0.1,0.1-0.2,0-0.3
			c-0.1-0.1-0.2-0.2,0-0.3c0.1-0.1,0.2-0.2,0.4-0.1c0.2,0.2,0.5,0.2,0.4-0.1C58.8,28.2,59.2,28.2,59.5,28.1z"/>
		<path class="st2" d="M33.5,51.2c0.8,2.4,1.5,4.7,2.3,7.1c0.1,0.2,0.1,0.5,0.2,0.7c-1.3-0.5-2.4-1.1-3.5-2
			c-0.7-0.6-0.9-1.2-0.7-2.1c0.3-1.3,0.8-2.4,1.5-3.5C33.4,51.3,33.5,51.3,33.5,51.2z"/>
		<path class="st2" d="M60.3,51.1c-0.8-2.5-1.6-4.9-2.4-7.4c0-0.1-0.1-0.3-0.1-0.4c1.2,0.5,2.4,1.1,3.4,2c0.6,0.6,0.9,1.2,0.7,2.1
			C61.6,48.7,61.1,50,60.3,51.1z"/>
		<linearGradient id="SVGID_11_" gradientUnits="userSpaceOnUse" x1="54.7715" y1="31.6113" x2="59.4771" y2="31.6113">
			<stop  offset="0" style="stop-color:#9E1CF6"/>
			<stop  offset="1" style="stop-color:#7201C5"/>
		</linearGradient>
		<path class="st12" d="M59.5,28.1c-0.3,0.2-0.7,0.1-0.6,0.7c0,0.2-0.3,0.3-0.4,0.1c-0.2-0.2-0.3,0-0.4,0.1c-0.2,0.1-0.1,0.2,0,0.3
			c0.1,0.1,0.1,0.2,0,0.3c-0.1,0.1-0.3,0.1-0.4,0c-0.2-0.2-0.3-0.1-0.5,0.1c-0.1,0.2-0.4,0.3-0.1,0.6c0.2,0.2,0,0.4-0.2,0.4
			c-0.5,0.1-0.7,0.4-0.4,0.8c0.2,0.3,0.1,0.4-0.2,0.5c-0.4,0.1-0.5,0.5-0.1,0.8c0.2,0.2,0.2,0.4-0.1,0.5c-0.3,0.1-0.3,0.3-0.3,0.4
			c0,0.2,0,0.4,0.3,0.5c0.2,0,0.3,0.3,0.1,0.4c-0.6,0.3-0.1,0.6-0.1,1c-0.2,0.1-0.3,0.2-0.5,0.2c-0.2-0.4,0-1-0.7-1.1
			c-0.2,0-0.1-0.3,0-0.4c0.4-0.4,0.4-0.8,0-1.1c-0.2-0.2-0.3-0.3,0-0.5c0.5-0.2,0.6-0.6,0.2-1c-0.2-0.2-0.2-0.4,0.2-0.5
			c0.5-0.1,0.8-0.6,0.5-1c-0.1-0.1-0.1-0.2,0-0.3c0.1-0.1,0.2-0.1,0.3-0.1c0.4,0.1,0.8-0.4,0.8-0.8c-0.1-0.3,0-0.5,0.4-0.4
			c0.4,0.1,0.7-0.2,0.6-0.6c0-0.3,0.1-0.5,0.3-0.3c0.4,0.4,0.7,0,1.1-0.1C59.4,27.7,59.5,27.9,59.5,28.1z"/>
		<linearGradient id="SVGID_12_" gradientUnits="userSpaceOnUse" x1="47.7817" y1="28.1666" x2="52.444" y2="28.1666">
			<stop  offset="0" style="stop-color:#9E1CF6"/>
			<stop  offset="1" style="stop-color:#7201C5"/>
		</linearGradient>
		<path class="st13" d="M47.8,31.7c0.3-0.2,0.8-0.2,0.6-0.8c0-0.1,0.2-0.3,0.4-0.1c0.2,0.2,0.4,0.1,0.6,0c0.2-0.1,0.4-0.2,0.2-0.5
			c-0.2-0.2,0-0.4,0.3-0.4c0.5,0,0.7-0.2,0.5-0.7c-0.1-0.3-0.1-0.4,0.2-0.4c0.5-0.1,0.7-0.4,0.4-0.8c-0.1-0.2-0.2-0.3,0.1-0.4
			c0.5-0.3,0.5-0.5,0.1-0.9c-0.3-0.2-0.2-0.4,0.1-0.5c0.2-0.1,0.3,0,0.3-0.3c0-0.2-0.1-0.3-0.3-0.3c-0.2,0-0.3-0.3-0.1-0.4
			c0.5-0.3,0.2-0.5,0.1-0.8c0.1-0.2,0.3-0.2,0.5-0.2c0.2,0.3,0,0.8,0.6,0.8c0.2,0,0.3,0.3,0.1,0.4c-0.5,0.3-0.5,0.6,0,1
			c0.2,0.1,0.2,0.3,0,0.4c-0.5,0.4-0.5,0.7-0.1,1.2c0.2,0.2,0.1,0.4-0.1,0.4c-0.6,0.2-0.7,0.5-0.5,1.1c0.1,0.3,0,0.4-0.3,0.4
			c-0.6,0-0.8,0.3-0.6,0.8c0.1,0.3,0,0.4-0.3,0.4c-0.7-0.1-0.8,0.1-0.9,0.8c0,0.2-0.2,0.4-0.3,0.3c-0.5-0.5-0.8,0.1-1.3,0.2
			C47.9,32.1,47.8,31.9,47.8,31.7z"/>
		<path class="st2" d="M33.5,37.8c-1.3,0-2.4-0.3-3.5-0.7c-0.4-0.1-0.5-0.3-0.6-0.7c-0.2-1-0.4-2.1-0.7-3.1c-0.1-0.3,0-0.5,0.2-0.7
			c1.1-1.2,2.3-2.5,3.4-3.7c0.2-0.2,0.4-0.3,0.7-0.3c1.1,0.2,2.1,0.4,3.2,0.6c0.3,0.1,0.4,0.2,0.5,0.5c0.6,1.4,0.9,2.8,1,4.3
			c0,0.3-0.1,0.5-0.2,0.7c-0.7,0.9-1.4,1.7-2.3,2.4C34.7,37.6,34.1,37.9,33.5,37.8z"/>
		<path class="st2" d="M40.9,28.5c0,1.8-0.5,3.5-1.2,5.1c-0.2,0.6-0.7,0.4-1.1,0.4c-0.4,0-0.3-0.3-0.4-0.6c-0.2-1.4-0.5-2.7-1-4
			c-0.1-0.3-0.1-0.5,0-0.8c0.5-0.9,0.8-1.9,1-2.9c0.1-0.4,0.2-0.5,0.7-0.5c1.6,0,1.6,0,1.8,1.5C40.9,27.3,40.9,27.9,40.9,28.5z"/>
		<path class="st2" d="M28.8,40.4c-1,0-2.1-0.2-3.2-0.5c-0.7-0.2-0.3-0.7-0.4-1.1c-0.1-0.4,0.2-0.4,0.5-0.5c1-0.1,2-0.5,2.9-0.9
			c0.3-0.1,0.5-0.2,0.8,0c1.3,0.5,2.6,0.8,4.1,0.9c0.3,0,0.6-0.1,0.6,0.4c0.1,0.4-0.2,0.6-0.5,0.7C32.1,40.1,30.5,40.4,28.8,40.4z"
			/>
		<path class="st2" d="M34,17.7c2.9,1.3,4.9,3.5,6.1,6.4c0.1,0.3,0.1,0.4-0.3,0.4c0,0,0,0-0.1,0c-1,0.2-1.7,0-2.3-1
			c-0.5-0.8-1.2-1.4-2-2c-0.2-0.1-0.4-0.2-0.4-0.5C34.9,19.9,34.6,18.8,34,17.7z"/>
		<path class="st2" d="M18.8,34.9c0.8,0.2,1.7,0.4,2.5,0.6c0.2,0,0.3,0.3,0.5,0.5c0.6,0.8,1.3,1.5,2.1,2c0.8,0.4,0.8,1,0.6,1.7
			C22.1,38.7,20.2,37.1,18.8,34.9z"/>
		<path class="st0" d="M27.6,51.7c-0.1,0.2-0.1,0.4-0.4,0.4c-0.3,0-0.4-0.1-0.4-0.4c0-0.2,0.1-0.4,0.4-0.4
			C27.4,51.4,27.6,51.5,27.6,51.7z"/>
		<linearGradient id="SVGID_13_" gradientUnits="userSpaceOnUse" x1="38.3487" y1="51.1465" x2="55.4191" y2="51.1465">
			<stop  offset="0" style="stop-color:#9E1CF6"/>
			<stop  offset="1" style="stop-color:#7201C5"/>
		</linearGradient>
		<path class="st14" d="M46.2,50.6c-0.1-0.3-0.2-0.6-0.3-0.9c-0.1-0.4-0.1-0.7,0.3-0.8c0.4-0.1,0.5,0.1,0.7,0.5
			c0.4,1.1,0.4,1.1,1.6,0.8c0.6-0.2,0.7-0.4,0.5-0.9c-0.1-0.1-0.1-0.3-0.1-0.4c-0.1-0.4-0.1-0.7,0.3-0.8c0.4-0.1,0.6,0.2,0.7,0.5
			c0.4,1.1,0.4,1,1.5,0.7c0.6-0.2,0.7-0.4,0.5-1c-0.2-0.4-0.5-0.9,0.2-1.1c0.6-0.2,0.7,0.4,0.8,0.8c0.3,0.7,0.2,0.7,1,0.5
			c0.4-0.1,0.7-0.2,1.1-0.3c0.3-0.1,0.6,0,0.7,0.4c0.1,0.3-0.1,0.5-0.4,0.6c-0.4,0.2-0.9,0.3-1.3,0.4c-0.3,0.1-0.4,0.2-0.3,0.6
			c0.1,0.3,0.2,0.5,0.3,0.8c0.1,0.3,0,0.5-0.3,0.6c-0.3,0.1-0.5,0-0.7-0.3c0-0.1,0-0.1-0.1-0.2c-0.2-0.3-0.1-1-0.5-1
			c-0.5,0-1.1,0.3-1.6,0.4c-0.2,0.1-0.1,0.2-0.1,0.4c0.1,0.3,0.2,0.6,0.3,0.9c0.1,0.3,0,0.5-0.3,0.6c-0.3,0.1-0.5,0-0.6-0.3
			c0-0.1,0-0.1-0.1-0.2c-0.2-0.3-0.1-1-0.4-1c-0.5,0-1.1,0.3-1.6,0.4c-0.2,0.1-0.1,0.3-0.1,0.4c0.1,0.3,0.2,0.6,0.3,0.9
			c0.1,0.3,0,0.5-0.3,0.6c-0.3,0.1-0.5,0-0.7-0.3c0,0,0-0.1,0-0.1c-0.2-0.4-0.1-1-0.5-1c-0.5,0-1,0.3-1.5,0.4
			c-0.2,0.1-0.2,0.2-0.1,0.4c0.1,0.3,0.2,0.5,0.3,0.8c0.1,0.3,0.1,0.6-0.3,0.8c-0.4,0.1-0.6-0.1-0.7-0.4c0-0.1,0-0.1-0.1-0.2
			c-0.1-0.3-0.1-0.9-0.4-0.9c-0.6,0-1.1,0.3-1.6,0.5c-0.2,0.1-0.1,0.2,0,0.4c0.1,0.3,0.2,0.6,0.3,0.9c0.1,0.3,0,0.5-0.3,0.6
			c-0.3,0.1-0.5,0-0.7-0.3c0-0.1-0.1-0.2-0.1-0.2c-0.4-1-0.4-1-1.4-0.7c-0.3,0.1-0.5,0.2-0.8,0.2c-0.3,0.1-0.5,0-0.6-0.3
			c-0.1-0.3,0.1-0.5,0.3-0.6c0.5-0.2,1-0.3,1.5-0.5c0.3-0.1,0.3-0.2,0.2-0.4c-0.1-0.3-0.2-0.6-0.3-0.9c-0.1-0.3,0-0.5,0.3-0.6
			c0.3-0.1,0.5,0,0.6,0.3c0,0,0,0.1,0,0.1c0.2,0.4,0.1,1,0.5,1c0.5,0,1.1-0.3,1.6-0.4c0.2-0.1,0.1-0.2,0.1-0.4
			c-0.1-0.3-0.2-0.7-0.3-1c-0.1-0.3,0-0.5,0.3-0.6c0.3-0.1,0.5,0,0.7,0.3c0,0.1,0,0.2,0.1,0.2c0.2,0.3,0.1,1,0.4,0.9
			c0.5,0,1.1-0.3,1.6-0.5C46.2,50.8,46.2,50.7,46.2,50.6z"/>
		<linearGradient id="SVGID_14_" gradientUnits="userSpaceOnUse" x1="59.8907" y1="21.31" x2="69.6182" y2="21.31">
			<stop  offset="0" style="stop-color:#9E1CF6"/>
			<stop  offset="1" style="stop-color:#7201C5"/>
		</linearGradient>
		<path class="st15" d="M59.9,16.6c0.5,0.7,0.9,1.4,1.4,2.2c1.8,2.9,3.6,5.9,5.4,8.8c0.1,0.2,0.2,0.3,0.4,0.1c0.8-0.5,1.6-1,2.4-1.4
			c0.2-0.1,0.2-0.2,0.1-0.4c-2.2-3.6-4.4-7.1-6.6-10.7c-0.1-0.1-0.2-0.2-0.2-0.3c0,0,0,0-0.1,0C61.8,15.4,60.9,16,59.9,16.6
			C59.9,16.6,59.9,16.6,59.9,16.6z"/>
		<path class="st2" d="M67.3,28.6c-0.7,0.4-1.4,0.9-2.1,1.3C65.1,30,65,30,65.1,30.1c0,0.1,0.1,0.1,0.1,0.2
			c4.7,7.7,9.4,15.3,14.1,23c0.3,0.5,0.7,0.9,1.2,1.2c0.7,0.3,1.5,0.4,2.2,0c1.2-0.6,2.3-1.3,3.4-2.1c1-0.7,1.3-2.1,0.7-3.2
			c-0.1-0.2-0.2-0.3-0.3-0.5c-4.7-7.6-9.3-15.3-14-22.9c-0.2-0.3-0.3-0.3-0.6-0.1c-0.6,0.4-1.3,0.8-1.9,1.2c1.2,3,2.4,6,3.6,9
			c0,0,0,0-0.1,0C71.5,33.5,69.4,31.1,67.3,28.6z"/>
		<linearGradient id="SVGID_15_" gradientUnits="userSpaceOnUse" x1="67.2894" y1="31.3886" x2="73.7228" y2="31.3886">
			<stop  offset="0" style="stop-color:#9E1CF6"/>
			<stop  offset="1" style="stop-color:#7201C5"/>
		</linearGradient>
		<path class="st16" d="M67.3,28.6c2.1,2.4,4.2,4.8,6.4,7.3c0,0,0,0,0.1,0c-1.2-3-2.4-6-3.6-9C69.2,27.4,68.2,28,67.3,28.6z"/>
	</g>
</g>
<g id="Layer_1">
</g>
</svg>
