<?xml version="1.0" encoding="utf-8"?>
<!-- Generator: Adobe Illustrator 24.0.1, SVG Export Plug-In . SVG Version: 6.00 Build 0)  -->
<svg version="1.1" xmlns="http://www.w3.org/2000/svg" xmlns:xlink="http://www.w3.org/1999/xlink" x="0px" y="0px"
	 viewBox="0 0 100 100" style="enable-background:new 0 0 100 100;" xml:space="preserve">
<style type="text/css">
	.st0{fill:#CBE5FE;}
	.st1{fill:url(#SVGID_1_);}
	.st2{fill:url(#SVGID_2_);}
	.st3{fill:url(#SVGID_3_);}
	.st4{fill:url(#SVGID_4_);}
	.st5{fill:url(#SVGID_5_);}
	.st6{fill:url(#SVGID_6_);}
	.st7{fill:url(#SVGID_7_);}
	.st8{fill:url(#SVGID_8_);}
	.st9{fill:url(#SVGID_9_);}
	.st10{fill:url(#SVGID_10_);}
	.st11{fill:url(#SVGID_11_);}
</style>
<g id="Layer_2">
	<g>
		<path class="st0" d="M80.2,27.6c2.3,3.3,4.3,6.9,5.5,10.7c0.8,2.4,1.4,4.8,1.6,7.4c-4,0.2-7.9,1-11.5,2.7
			c-1.4,0.7-2.8,1.4-4.3,1.9c-2.5,0.9-4.9,1-7.4,0c-1-0.4-2-0.8-3.1-1.1c-1.6-0.6-3.2-0.9-5-0.7c-1.9,0.3-3.3,1.2-4,3.2
			c-0.3,0.9-0.4,1.9-0.4,2.9c-0.1,4.2-0.1,8.4-0.2,12.6c0,1.6-0.3,3.2-0.8,4.7c-0.6,1.6-1.6,2.8-3.3,3.3c-1.4,0.4-2.7,1-4,1.6
			c-3.6,1.7-6.2,4.1-6.2,8.5c-2.7-0.9-5.2-2.3-7.7-3.8c0-0.6,0.1-1.2-0.3-1.7c-0.3-0.4-0.5-0.9-0.7-1.4c-0.3-0.7-0.7-1-1.5-0.8
			c-0.7,0.2-0.9,0.7-0.9,1.4c-3.5-2.8-6.3-6.1-8.5-9.9c-2.8-4.7-4.4-9.7-5-15.1c-0.6-5.4,0-10.8,1.8-16c1,0.3,1.8,1,2.7,1.6
			c0.8,0.6,1.6,1.3,2.6,1.8c0.8,0.4,1.6,0.7,2.5,0.6c1.6-0.2,2.5-1.1,3.3-2.4c0.8-1.3,1.1-2.8,1.4-4.3c0.6-3.4,2.4-5.8,5.5-7.3
			c0.8-0.4,1.5-0.7,2.3-1c2.4-1.1,3.2-2.2,2.9-4.8c-0.3-2.6-0.2-5.2,0.6-7.7c2.1-0.8,4.4-1.3,6.6-1.6c6.2-0.9,12.3-0.2,18.1,1.9
			c3.9,1.4,7.5,3.5,10.7,6.1c0,0.2-0.2,0.2-0.3,0.3c-1.8,1.1-3.7,2.2-5.5,3.3c-0.4,0.2-0.7,0.5-1.2,0.5c-3.5-1.3-7.1-2.7-10.6-4.1
			c-0.4-0.1-0.6-0.1-0.9,0.2c-0.8,0.7-1.6,1.4-2.4,2.1c-0.4,0.3-0.5,0.5,0,0.9c1.8,1.5,3.5,3,5.2,4.6c0.4,0.3,0.9,0.5,1,1.1
			c-0.1,0.1-0.3,0.1-0.4,0.2c-4.6,2.8-9.2,5.6-13.8,8.4c-0.7,0.4-1.2,0.6-1.9,0.1c-0.5-0.3-1.1-0.6-1.7-0.8
			c-1.6-0.7-3.1-0.4-4.5,0.7c-0.3,0.2-0.3,0.4,0,0.6c1.9,1.6,3.7,3.3,5.6,5c1.3,1.1,2.8,1.2,4.3,0.5c0.9-0.4,1.7-0.8,2.6-1.3
			c4.5-2.3,9-4.5,13.6-6.8c0.9,3,1.7,6,2.5,9.1c0.2,0.6,0.4,0.6,0.8,0.4c1-0.4,2-0.9,3-1.3c0.3-0.1,0.5-0.3,0.5-0.7
			c0-0.8,0.1-1.5,0.2-2.3c0.3-3.1,0.6-6.2,0.8-9.3c2.9-1.4,5.8-2.9,8.7-4.3C79.6,27.7,79.9,27.5,80.2,27.6z M32.8,51.5
			c0-0.7-0.3-1-0.8-1.2c-0.6-0.2-1,0.1-1.3,0.6c-0.9,1.3-1.6,2.6-2.3,3.9c-0.4,0.8-0.3,1.5,0.4,1.8c0.6,0.3,1.2,0.1,1.6-0.7
			c0.7-1.3,1.4-2.5,2.1-3.7C32.7,51.9,32.9,51.6,32.8,51.5z M27,74.1c-0.3-1.6-0.3-3.3-0.4-4.9c0-0.6-0.5-0.9-1-1
			c-0.6-0.1-1.1,0.3-1.2,1c-0.2,1.8,0,3.6,0.4,5.3c0.1,0.6,0.7,0.9,1.3,0.7C26.7,75.1,27,74.7,27,74.1z M25,64.2
			c-0.1,0.9,0.2,1.3,0.8,1.4c0.6,0.1,1.1-0.1,1.3-0.7c0.5-1.6,0.9-3.2,1.3-4.8c0.2-0.6-0.2-1.1-0.7-1.3c-0.6-0.2-1.1,0-1.4,0.6
			C25.7,61.1,25.3,62.7,25,64.2z M83.3,40.3c0-0.5-1.2-3.9-1.5-4.3c-0.4-0.4-0.8-0.7-1.4-0.4c-0.6,0.4-0.8,0.9-0.5,1.5
			c0.4,1.2,0.9,2.3,1.3,3.5c0.2,0.6,0.7,0.9,1.2,0.8C83,41.3,83.4,40.9,83.3,40.3z M37.4,45.9c0-0.4-0.2-0.7-0.6-0.9
			c-0.4-0.2-0.9-0.2-1.2,0.1c-0.6,0.6-1.3,1.2-1.8,1.8c-0.3,0.3-0.3,0.8-0.1,1.2c0.2,0.4,0.6,0.6,1,0.6
			C35.4,48.7,37.4,46.7,37.4,45.9z"/>
		<linearGradient id="SVGID_1_" gradientUnits="userSpaceOnUse" x1="37.1184" y1="66.6532" x2="87.6003" y2="66.6532">
			<stop  offset="0" style="stop-color:#9E1CF6"/>
			<stop  offset="1" style="stop-color:#7201C5"/>
		</linearGradient>
		<path class="st1" d="M37.1,85.3c-0.1-4.4,2.6-6.8,6.2-8.5c1.3-0.6,2.6-1.2,4-1.6c1.7-0.5,2.7-1.7,3.3-3.3c0.6-1.5,0.8-3.1,0.8-4.7
			c0.1-4.2,0.1-8.4,0.2-12.6c0-1,0.1-2,0.4-2.9c0.6-1.9,2-2.9,4-3.2c1.7-0.2,3.4,0.1,5,0.7c1,0.4,2,0.8,3.1,1.1
			c2.5,0.9,4.9,0.9,7.4,0c1.5-0.6,2.9-1.3,4.3-1.9c3.6-1.7,7.5-2.6,11.5-2.7c0.4,2.1,0.4,4.3,0.2,6.4c-0.4,6.8-2.4,13.1-6.3,18.7
			c-6.1,9-14.6,14.4-25.3,16.3c-6.3,1.1-12.4,0.4-18.4-1.7C37.4,85.4,37.2,85.3,37.1,85.3z"/>
		<linearGradient id="SVGID_2_" gradientUnits="userSpaceOnUse" x1="36.432" y1="32.5163" x2="85.4473" y2="32.5163">
			<stop  offset="0" style="stop-color:#9E1CF6"/>
			<stop  offset="1" style="stop-color:#7201C5"/>
		</linearGradient>
		<path class="st2" d="M66.7,24.9c0.5,0,0.8-0.3,1.2-0.5c1.8-1.1,3.7-2.2,5.5-3.3c0.1-0.1,0.3-0.1,0.3-0.3c1.2-0.3,2.3-0.6,3.5-0.5
			c1,0.1,1.9,0.3,2.7,0.7c0.6,0.3,1.1,0.3,1.7,0.2c0.9-0.1,1.8-0.3,2.6,0.2c0.7,0.4,1.2,1,1.2,1.9c0,0.9-0.4,1.6-1.2,2
			c-1,0.6-2.1,1.1-3.2,1.6c-0.3,0.2-0.6,0.3-0.8,0.6c-0.4-0.1-0.6,0.1-0.9,0.3c-2.9,1.4-5.8,2.9-8.7,4.3c0-1.2,0.1-2.3,0.3-3.5
			c0-0.2,0.1-0.5-0.1-0.7c-0.2-0.2-0.5,0.1-0.7,0.2c-0.8,0.4-1.6,0.9-2.3,1.3c-1.8,1-3.5,2-5.3,3c-0.5,0.3-0.6,0.5-0.4,1.1
			c0.3,0.8,0.5,1.7,0.7,2.6c-4.5,2.3-9,4.5-13.6,6.8c-0.9,0.4-1.7,0.9-2.6,1.3c-1.5,0.7-3,0.6-4.3-0.5c-1.9-1.6-3.8-3.3-5.6-5
			c-0.3-0.3-0.2-0.4,0-0.6c1.4-1.1,2.9-1.4,4.5-0.7c0.6,0.2,1.2,0.5,1.7,0.8c0.7,0.5,1.2,0.3,1.9-0.1c4.6-2.8,9.2-5.6,13.8-8.4
			c0.1-0.1,0.3-0.1,0.4-0.2c1.5-0.9,3-1.8,4.4-2.7C64.5,26.3,65.7,25.8,66.7,24.9z"/>
		<linearGradient id="SVGID_3_" gradientUnits="userSpaceOnUse" x1="14.4001" y1="28.1362" x2="38.1251" y2="28.1362">
			<stop  offset="0" style="stop-color:#9E1CF6"/>
			<stop  offset="1" style="stop-color:#7201C5"/>
		</linearGradient>
		<path class="st3" d="M38.1,14.4c-0.8,2.5-0.9,5.1-0.6,7.7c0.3,2.7-0.5,3.8-2.9,4.8c-0.8,0.3-1.5,0.7-2.3,1c-3.1,1.4-5,3.8-5.5,7.3
			c-0.2,1.5-0.6,3-1.4,4.3c-0.8,1.3-1.7,2.2-3.3,2.4c-0.9,0.1-1.7-0.2-2.5-0.6c-0.9-0.5-1.7-1.1-2.6-1.8c-0.8-0.6-1.7-1.2-2.7-1.6
			c1.3-4.1,3.4-7.8,6-11.2C25,21,30.8,16.9,37.7,14.5C37.9,14.4,38,14.4,38.1,14.4z"/>
		<linearGradient id="SVGID_4_" gradientUnits="userSpaceOnUse" x1="26.1422" y1="79.707" x2="29.4727" y2="79.707">
			<stop  offset="0" style="stop-color:#9E1CF6"/>
			<stop  offset="1" style="stop-color:#7201C5"/>
		</linearGradient>
		<path class="st4" d="M26.1,79c0-0.7,0.2-1.2,0.9-1.4c0.7-0.2,1.2,0.2,1.5,0.8c0.2,0.5,0.4,0.9,0.7,1.4c0.4,0.5,0.3,1.1,0.3,1.7
			c-0.2,0.1-0.4,0.1-0.6,0.2c-0.7,0.3-1.2,0.1-1.6-0.6C26.9,80.4,26.5,79.7,26.1,79z"/>
		<linearGradient id="SVGID_5_" gradientUnits="userSpaceOnUse" x1="61.9561" y1="36.9253" x2="70.9249" y2="36.9253">
			<stop  offset="0" style="stop-color:#9E1CF6"/>
			<stop  offset="1" style="stop-color:#7201C5"/>
		</linearGradient>
		<path class="st5" d="M62.7,36.3c-0.2-0.9-0.4-1.7-0.7-2.6c-0.2-0.6,0-0.9,0.4-1.1c1.8-1,3.6-2,5.3-3c0.8-0.4,1.6-0.9,2.3-1.3
			c0.2-0.1,0.4-0.4,0.7-0.2c0.2,0.2,0.1,0.5,0.1,0.7c-0.2,1.2-0.3,2.3-0.3,3.5c-0.3,3.1-0.6,6.2-0.8,9.3c-0.1,0.8-0.1,1.5-0.2,2.3
			c0,0.3-0.2,0.5-0.5,0.7c-1,0.4-2,0.8-3,1.3c-0.5,0.2-0.7,0.2-0.8-0.4C64.5,42.3,63.6,39.3,62.7,36.3z"/>
		<linearGradient id="SVGID_6_" gradientUnits="userSpaceOnUse" x1="52.4856" y1="25.2453" x2="66.662" y2="25.2453">
			<stop  offset="0" style="stop-color:#9E1CF6"/>
			<stop  offset="1" style="stop-color:#7201C5"/>
		</linearGradient>
		<path class="st6" d="M66.7,24.9c-0.9,0.9-2.2,1.4-3.2,2.1c-1.5,0.9-2.9,1.8-4.4,2.7c-0.1-0.6-0.6-0.8-1-1.1
			c-1.7-1.5-3.5-3.1-5.2-4.6c-0.5-0.4-0.4-0.6,0-0.9c0.8-0.7,1.6-1.4,2.4-2.1c0.3-0.3,0.5-0.3,0.9-0.2
			C59.6,22.2,63.1,23.5,66.7,24.9z"/>
		<linearGradient id="SVGID_7_" gradientUnits="userSpaceOnUse" x1="28.1368" y1="53.43" x2="32.8406" y2="53.43">
			<stop  offset="0" style="stop-color:#9E1CF6"/>
			<stop  offset="1" style="stop-color:#7201C5"/>
		</linearGradient>
		<path class="st7" d="M32.8,51.5c0,0.2-0.1,0.4-0.3,0.7c-0.8,1.2-1.5,2.4-2.1,3.7c-0.4,0.8-1,1.1-1.6,0.7c-0.7-0.3-0.8-1-0.4-1.8
			c0.7-1.4,1.5-2.7,2.3-3.9c0.3-0.5,0.7-0.7,1.3-0.6C32.5,50.4,32.8,50.8,32.8,51.5z"/>
		<linearGradient id="SVGID_8_" gradientUnits="userSpaceOnUse" x1="24.3593" y1="71.7245" x2="27.044" y2="71.7245">
			<stop  offset="0" style="stop-color:#9E1CF6"/>
			<stop  offset="1" style="stop-color:#7201C5"/>
		</linearGradient>
		<path class="st8" d="M27,74.1c0,0.6-0.3,1-0.9,1.1c-0.6,0.1-1.1-0.1-1.3-0.7c-0.4-1.7-0.6-3.5-0.4-5.3c0.1-0.7,0.6-1,1.2-1
			c0.6,0,1,0.4,1,1C26.7,70.8,26.7,72.4,27,74.1z"/>
		<linearGradient id="SVGID_9_" gradientUnits="userSpaceOnUse" x1="24.9891" y1="62.2521" x2="28.5053" y2="62.2521">
			<stop  offset="0" style="stop-color:#9E1CF6"/>
			<stop  offset="1" style="stop-color:#7201C5"/>
		</linearGradient>
		<path class="st9" d="M25,64.2c0.3-1.5,0.7-3.2,1.4-4.8c0.2-0.6,0.8-0.8,1.4-0.6c0.6,0.2,0.9,0.7,0.7,1.3c-0.4,1.6-0.9,3.2-1.3,4.8
			c-0.2,0.6-0.7,0.8-1.3,0.7C25.2,65.5,24.9,65.1,25,64.2z"/>
		<linearGradient id="SVGID_10_" gradientUnits="userSpaceOnUse" x1="79.732" y1="38.4478" x2="83.3271" y2="38.4478">
			<stop  offset="0" style="stop-color:#9E1CF6"/>
			<stop  offset="1" style="stop-color:#7201C5"/>
		</linearGradient>
		<path class="st10" d="M83.3,40.3c0,0.7-0.4,1.1-0.9,1.2c-0.6,0.1-1-0.1-1.2-0.8c-0.4-1.2-0.9-2.3-1.3-3.5c-0.3-0.7,0-1.2,0.5-1.5
			c0.6-0.4,1-0.1,1.4,0.4C82.2,36.4,83.3,39.7,83.3,40.3z"/>
		<linearGradient id="SVGID_11_" gradientUnits="userSpaceOnUse" x1="33.4783" y1="46.7738" x2="37.4039" y2="46.7738">
			<stop  offset="0" style="stop-color:#9E1CF6"/>
			<stop  offset="1" style="stop-color:#7201C5"/>
		</linearGradient>
		<path class="st11" d="M37.4,45.9c0,0.8-2,2.8-2.8,2.8c-0.4,0-0.8-0.2-1-0.6c-0.2-0.4-0.2-0.9,0.1-1.2c0.6-0.6,1.2-1.2,1.8-1.8
			c0.4-0.3,0.8-0.3,1.2-0.1C37.2,45.2,37.4,45.6,37.4,45.9z"/>
	</g>
</g>
<g id="Layer_1">
</g>
</svg>
